<svg width="14" height="14" viewBox="0 0 14 14" fill="none" xmlns="http://www.w3.org/2000/svg">
<path d="M7.00016 1.66683C4.05464 1.66683 1.66683 4.05464 1.66683 7.00016C1.66683 9.94568 4.05464 12.3335 7.00016 12.3335C9.94568 12.3335 12.3335 9.94568 12.3335 7.00016C12.3335 4.05464 9.94568 1.66683 7.00016 1.66683ZM0.333496 7.00016C0.333496 3.31826 3.31826 0.333496 7.00016 0.333496C10.6821 0.333496 13.6668 3.31826 13.6668 7.00016C13.6668 10.6821 10.6821 13.6668 7.00016 13.6668C3.31826 13.6668 0.333496 10.6821 0.333496 7.00016ZM10.1097 4.83522C10.3849 5.07984 10.4097 5.50122 10.1651 5.77641L6.60955 9.77641C6.48304 9.91873 6.3017 10.0002 6.11127 10.0002C5.92085 10.0002 5.73951 9.91873 5.613 9.77641L3.83522 7.77641C3.59061 7.50122 3.6154 7.07984 3.89059 6.83522C4.16578 6.59061 4.58716 6.6154 4.83177 6.89059L6.11127 8.33003L9.16856 4.89059C9.41317 4.6154 9.83455 4.59061 10.1097 4.83522Z" fill="#2393BB"/>
</svg>
