<svg width="12" height="14" viewBox="0 0 12 14" fill="none" xmlns="http://www.w3.org/2000/svg">
<path d="M6.00008 0.333313C3.06675 0.333313 0.666748 2.73331 0.666748 5.66665C0.666748 9.26665 5.33341 13.3333 5.53341 13.5333C5.66675 13.6 5.86675 13.6666 6.00008 13.6666C6.13341 13.6666 6.33341 13.6 6.46675 13.5333C6.66675 13.3333 11.3334 9.26665 11.3334 5.66665C11.3334 2.73331 8.93341 0.333313 6.00008 0.333313ZM6.00008 12.1333C4.60008 10.8 2.00008 7.93331 2.00008 5.66665C2.00008 3.46665 3.80008 1.66665 6.00008 1.66665C8.20008 1.66665 10.0001 3.46665 10.0001 5.66665C10.0001 7.86665 7.40008 10.8 6.00008 12.1333ZM6.00008 2.99998C4.53341 2.99998 3.33341 4.19998 3.33341 5.66665C3.33341 7.13331 4.53341 8.33331 6.00008 8.33331C7.46675 8.33331 8.66675 7.13331 8.66675 5.66665C8.66675 4.19998 7.46675 2.99998 6.00008 2.99998ZM6.00008 6.99998C5.26675 6.99998 4.66675 6.39998 4.66675 5.66665C4.66675 4.93331 5.26675 4.33331 6.00008 4.33331C6.73341 4.33331 7.33341 4.93331 7.33341 5.66665C7.33341 6.39998 6.73341 6.99998 6.00008 6.99998Z" fill="#262626"/>
</svg>
