<svg width="282" height="110" viewBox="0 0 282 110" fill="none" xmlns="http://www.w3.org/2000/svg">
<g clip-path="url(#clip0_47_208)">
<path d="M60.9181 88.9342C52.0801 88.9319 43.4413 86.322 36.0939 81.4345C28.7465 76.547 23.0206 69.6013 19.64 61.4758C16.2595 53.3503 15.3762 44.4099 17.1018 35.7849C18.8274 27.1599 23.0845 19.2377 29.3347 13.02C35.5849 6.80234 43.5476 2.56842 52.2159 0.853589C60.8843 -0.861237 69.869 0.0200409 78.034 3.38599C86.199 6.75194 93.1776 12.4514 98.0875 19.7637C102.997 27.0761 105.618 35.6728 105.618 44.4671C105.602 56.2578 100.888 67.561 92.5078 75.8971C84.128 84.2333 72.7674 88.9218 60.9181 88.9342ZM60.9181 2.8376C52.6432 2.83529 44.5533 5.27485 37.6718 9.84776C30.7903 14.4207 25.4262 20.9215 22.2579 28.5281C19.0896 36.1347 18.2594 44.5054 19.8724 52.5815C21.4853 60.6576 25.4689 68.0763 31.3194 73.8995C37.1699 79.7226 44.6244 83.6886 52.7402 85.2959C60.856 86.9031 69.2685 86.0794 76.9138 82.9289C84.5591 79.7784 91.0937 74.4426 95.6913 67.5964C100.289 60.7502 102.743 52.7011 102.743 44.4671C102.73 33.4321 98.3203 22.8524 90.4797 15.0484C82.639 7.24434 72.008 2.85305 60.9181 2.8376Z" fill="#B2115A"/>
<path d="M44.6882 96.7579C35.8497 96.7579 27.2097 94.15 19.8608 89.2639C12.5118 84.3778 6.78404 77.433 3.4017 69.3077C0.0193627 61.1824 -0.865611 52.2415 0.85869 43.6157C2.58299 34.99 6.83912 27.0667 13.0889 20.8479C19.3386 14.629 27.3013 10.3939 35.9699 8.67817C44.6386 6.9624 53.6239 7.843 61.7896 11.2086C69.9553 14.5742 76.9346 20.2737 81.845 27.5862C86.7554 34.8988 89.3763 43.4961 89.3763 52.2908C89.3639 64.0805 84.6517 75.3836 76.2737 83.7202C67.8958 92.0567 56.5364 96.7456 44.6882 96.7579ZM44.6882 10.673C36.416 10.673 28.3296 13.1139 21.4516 17.6869C14.5735 22.2599 9.21277 28.7597 6.04716 36.3644C2.88154 43.969 2.05327 52.337 3.66709 60.4101C5.28091 68.4832 9.26433 75.8987 15.1136 81.7191C20.9629 87.5395 28.4154 91.5032 36.5286 93.109C44.6418 94.7148 53.0513 93.8907 60.6938 90.7407C68.3362 87.5908 74.8684 82.2565 79.4641 75.4125C84.0599 68.5685 86.5129 60.5221 86.5129 52.2908C86.4973 41.2578 82.0858 30.6812 74.2456 22.8796C66.4053 15.0781 55.776 10.6885 44.6882 10.673Z" fill="#F8B114"/>
<path d="M66.8914 100.974C58.0539 100.969 49.4162 98.357 42.0704 93.4681C34.7245 88.5792 29.0004 81.6328 25.6217 73.5071C22.2429 65.3813 21.3613 56.4412 23.0882 47.817C24.8152 39.1928 29.0732 31.2717 35.3239 25.0552C41.5745 18.8387 49.5372 14.6059 58.2052 12.892C66.8733 11.1782 75.8573 12.0601 84.0217 15.4264C92.186 18.7927 99.1639 24.4922 104.073 31.8043C108.983 39.1163 111.603 47.7126 111.603 56.5064C111.591 68.3001 106.875 79.6068 98.4921 87.944C90.1091 96.2812 78.7437 100.967 66.8914 100.974ZM66.8914 14.8769C58.6179 14.8815 50.5316 17.327 43.6547 21.9041C36.7778 26.4812 31.4192 32.9845 28.2563 40.5917C25.0934 48.1989 24.2682 56.5684 25.8851 64.6422C27.502 72.716 31.4884 80.1315 37.3403 85.9512C43.1922 91.7708 50.6467 95.7333 58.7616 97.3377C66.8764 98.9421 75.2871 98.1164 82.9304 94.9648C90.5736 91.8133 97.1062 86.4775 101.702 79.6321C106.298 72.7867 108.751 64.739 108.751 56.5064C108.739 45.4653 104.324 34.8804 96.4756 27.0753C88.6274 19.2703 77.9873 14.8831 66.8914 14.8769Z" fill="#2293BB"/>
<path d="M55.7311 110C46.8921 110.002 38.251 107.396 30.9005 102.512C23.55 97.627 17.8204 90.683 14.4363 82.5579C11.0521 74.4328 10.1655 65.4916 11.8884 56.8651C13.6114 48.2386 17.8666 40.3142 24.1159 34.0942C30.3652 27.8742 38.3278 23.6379 46.9968 21.9212C55.6658 20.2045 64.6517 21.0844 72.818 24.4497C80.9844 27.8149 87.9644 33.5144 92.8754 40.8272C97.7863 48.1401 100.407 56.7378 100.407 65.533C100.395 77.3206 95.6845 88.622 87.3091 96.9582C78.9336 105.294 67.5773 109.985 55.7311 110ZM55.7311 23.9152C47.4589 23.9152 39.3726 26.356 32.4945 30.9291C25.6165 35.5021 20.2557 42.0019 17.0901 49.6066C13.9245 57.2112 13.0962 65.5792 14.71 73.6523C16.3238 81.7253 20.3072 89.1409 26.1565 94.9613C32.0058 100.782 39.4583 104.745 47.5715 106.351C55.6847 107.957 64.0942 107.133 71.7367 103.983C79.3792 100.833 85.9113 95.4987 90.5071 88.6547C95.1028 81.8106 97.5558 73.7643 97.5558 65.533C97.5403 54.5 93.1288 43.9233 85.2885 36.1218C77.4482 28.3203 66.8189 23.9306 55.7311 23.9152Z" fill="#40B080"/>
<path d="M39.2899 46.9778C40.2168 47.4995 40.9835 48.2625 41.5079 49.1848C42.0505 50.1386 42.3299 51.2183 42.3176 52.3143V57.4873C42.3194 57.5997 42.2979 57.7112 42.2544 57.815C42.211 57.9187 42.1465 58.0124 42.065 58.0902C41.9835 58.168 41.8867 58.2282 41.7808 58.2672C41.6748 58.3061 41.562 58.3229 41.4492 58.3164C41.2208 58.3256 40.9977 58.2461 40.8272 58.0946C40.6714 57.931 40.587 57.7127 40.5925 57.4873V56.1678C40.0754 56.867 39.4 57.4351 38.621 57.826C37.8067 58.236 36.9049 58.4443 35.9923 58.4332C34.9363 58.4437 33.897 58.1705 32.9841 57.6423C32.0712 57.1141 31.3184 56.3505 30.8053 55.4321C30.2814 54.4735 30.007 53.3997 30.007 52.3085C30.007 51.2173 30.2814 50.1434 30.8053 49.1848C31.3264 48.264 32.0889 47.5012 33.0115 46.9778C33.9653 46.4367 35.047 46.1586 36.1448 46.1721C37.2471 46.153 38.3339 46.4315 39.2899 46.9778ZM38.445 56.3196C39.1166 55.9256 39.6714 55.3615 40.0527 54.6848C40.4264 53.9624 40.6213 53.1618 40.6213 52.3493C40.6213 51.5369 40.4264 50.7362 40.0527 50.0139C39.7572 49.5012 39.3629 49.0518 38.8922 48.6913C38.4216 48.3309 37.884 48.0665 37.3104 47.9135C36.7367 47.7605 36.1383 47.7218 35.5496 47.7997C34.9609 47.8776 34.3935 48.0705 33.8799 48.3674C33.1965 48.7554 32.6356 49.3257 32.2604 50.0139C31.8791 50.7339 31.6799 51.5355 31.6799 52.3493C31.6799 53.1632 31.8791 53.9648 32.2604 54.6848C32.6394 55.3672 33.1996 55.9328 33.8799 56.3196C34.578 56.7061 35.3636 56.909 36.1624 56.909C36.9613 56.909 37.7469 56.7061 38.445 56.3196Z" fill="#075C89"/>
<path d="M46.2254 58.0828C46.07 57.9143 45.9859 57.6926 45.9907 57.4639V47.1412C45.9859 46.9125 46.07 46.6908 46.2254 46.5223C46.3069 46.4415 46.4041 46.378 46.511 46.3358C46.618 46.2937 46.7324 46.2737 46.8474 46.2771C46.9607 46.2732 47.0736 46.293 47.1787 46.3352C47.2838 46.3775 47.3789 46.4412 47.4577 46.5223C47.6131 46.6908 47.6972 46.9125 47.6924 47.1412V57.4639C47.6972 57.6926 47.6131 57.9143 47.4577 58.0828C47.3783 58.1624 47.2829 58.2244 47.1777 58.2646C47.0725 58.3049 46.9599 58.3225 46.8474 58.3164C46.7333 58.3213 46.6193 58.3032 46.5124 58.263C46.4055 58.2229 46.3079 58.1616 46.2254 58.0828Z" fill="#075C89"/>
<path d="M67.0791 46.7676C67.7616 47.1889 68.3076 47.7971 68.6517 48.5192C69.0502 49.3376 69.2512 50.2373 69.2384 51.1466V57.4873C69.244 57.7127 69.1596 57.931 69.0037 58.0946C68.9221 58.1703 68.8261 58.229 68.7212 58.2671C68.6164 58.3052 68.505 58.322 68.3935 58.3164C68.1651 58.3257 67.942 58.2461 67.7715 58.0946C67.6921 58.0151 67.6303 57.9201 67.5898 57.8156C67.5494 57.711 67.5314 57.5992 67.5368 57.4873V51.1466C67.5859 50.2499 67.2972 49.3672 66.7271 48.671C66.4573 48.3635 66.1203 48.1215 65.7419 47.9636C65.3635 47.8057 64.9539 47.7361 64.5443 47.7602C64.1242 47.7436 63.7053 47.8174 63.3165 47.9766C62.9276 48.1358 62.5779 48.3766 62.2911 48.6827C61.7004 49.3461 61.3967 50.2148 61.4462 51.0999V57.4873C61.4517 57.7127 61.3673 57.931 61.2115 58.0946C61.1307 58.1715 61.0347 58.2309 60.9297 58.2691C60.8247 58.3073 60.7128 58.3234 60.6012 58.3164C60.4898 58.322 60.3783 58.3052 60.2735 58.2671C60.1687 58.229 60.0726 58.1703 59.991 58.0946C59.9101 58.0157 59.8464 57.9211 59.804 57.8166C59.7616 57.7121 59.7414 57.6 59.7446 57.4873V51.1466C59.7937 50.2499 59.5049 49.3672 58.9348 48.671C58.6725 48.373 58.3469 48.1366 57.9816 47.9791C57.6163 47.8216 57.2204 47.7468 56.8225 47.7602C56.4045 47.7444 55.9879 47.8162 55.5997 47.9712C55.2115 48.1261 54.8604 48.3605 54.5693 48.6593C54.268 48.9672 54.0334 49.3333 53.88 49.735C53.7265 50.1367 53.6576 50.5655 53.6774 50.9948V57.5107C53.6862 57.6218 53.6707 57.7335 53.632 57.8381C53.5932 57.9427 53.5322 58.0376 53.453 58.1165C53.3738 58.1953 53.2783 58.2561 53.1732 58.2946C53.0681 58.3332 52.9559 58.3486 52.8442 58.3398C52.7309 58.3456 52.6176 58.329 52.5108 58.2909C52.4041 58.2528 52.306 58.194 52.2222 58.1179C52.1413 58.0391 52.0776 57.9444 52.0352 57.8399C51.9928 57.7354 51.9726 57.6234 51.9758 57.5107V47.1413C51.9724 47.0269 51.9924 46.9129 52.0348 46.8065C52.0772 46.7001 52.141 46.6034 52.2222 46.5224C52.3032 46.441 52.4003 46.3771 52.5074 46.3349C52.6144 46.2927 52.7291 46.273 52.8442 46.2772C52.9574 46.274 53.0701 46.2941 53.1751 46.3363C53.2801 46.3785 53.3752 46.4419 53.4544 46.5224C53.6067 46.692 53.6867 46.914 53.6774 47.1413V47.62C54.085 47.1553 54.5896 46.7847 55.1561 46.5341C55.7346 46.2734 56.3635 46.1419 56.9985 46.1487C57.7653 46.1403 58.5213 46.3294 59.193 46.6975C59.8356 47.0682 60.3696 47.5996 60.7421 48.2389C61.1701 47.5897 61.7605 47.0625 62.4554 46.7092C63.1788 46.3325 63.9862 46.1437 64.8025 46.1604C65.6031 46.15 66.391 46.3602 67.0791 46.7676Z" fill="#075C89"/>
<path d="M74.5663 57.966C73.7896 57.7062 73.0885 57.2612 72.5243 56.6698C72.3975 56.5319 72.3229 56.3544 72.3131 56.1677C72.3167 56.0373 72.3503 55.9096 72.4114 55.7942C72.4724 55.6788 72.5592 55.5789 72.6652 55.5021C72.823 55.379 73.0163 55.3094 73.2167 55.3036C73.3411 55.3048 73.4637 55.3338 73.5754 55.3884C73.6871 55.4429 73.7851 55.5217 73.8622 55.6189C74.2414 56.0448 74.7214 56.3699 75.2587 56.5647C75.8801 56.7848 76.5354 56.8954 77.195 56.8917C78.0123 56.9507 78.8289 56.7679 79.5421 56.3662C79.7814 56.2196 79.9799 56.0155 80.1193 55.7727C80.2587 55.53 80.3346 55.2562 80.3401 54.9766C80.3229 54.717 80.241 54.4656 80.1017 54.2454C79.9623 54.0252 79.77 53.8431 79.5421 53.7155C78.7893 53.2832 77.9537 53.0127 77.0894 52.9214C75.9218 52.7966 74.8062 52.3743 73.8504 51.6953C73.5175 51.4537 73.2463 51.1375 73.0588 50.7724C72.8712 50.4073 72.7726 50.0034 72.7708 49.5934C72.7533 49.1072 72.8592 48.6245 73.0786 48.1898C73.2981 47.7551 73.6241 47.3824 74.0265 47.1061C74.9493 46.4963 76.0411 46.19 77.1481 46.2303C78.0225 46.21 78.891 46.3772 79.6946 46.7208C80.3828 47.0296 80.9835 47.5029 81.4432 48.0987C81.5466 48.2514 81.6073 48.4287 81.6192 48.6125C81.6201 48.7326 81.5877 48.8506 81.5256 48.9536C81.4635 49.0566 81.3741 49.1406 81.2672 49.1964C81.1435 49.2814 80.9947 49.3225 80.8447 49.3131C80.7001 49.3137 80.5569 49.285 80.4237 49.2287C80.2906 49.1725 80.1703 49.09 80.0702 48.9862C79.7018 48.5727 79.2448 48.2468 78.733 48.0326C78.2211 47.8183 77.6675 47.7212 77.1129 47.7484C76.4288 47.7145 75.7503 47.8853 75.1648 48.2388C74.9487 48.3703 74.7702 48.5547 74.6464 48.7746C74.5225 48.9944 74.4574 49.2421 74.4574 49.4941C74.4574 49.7461 74.5225 49.9939 74.6464 50.2137C74.7702 50.4335 74.9487 50.618 75.1648 50.7494C75.9143 51.164 76.7409 51.4222 77.594 51.5085C78.8104 51.6183 79.9761 52.0452 80.9738 52.7463C81.2967 53.016 81.5549 53.3542 81.7295 53.7361C81.9042 54.1179 81.9908 54.5338 81.983 54.9533C81.9899 55.6058 81.7794 56.2422 81.3845 56.7632C80.9306 57.2949 80.3436 57.6977 79.6829 57.931C78.9023 58.2367 78.069 58.3874 77.2302 58.3747C76.3245 58.4031 75.4213 58.2646 74.5663 57.966Z" fill="#075C89"/>
<path d="M131.06 31.0148L135.109 21.1709H136.13L140.167 31.0148H138.712L135.391 22.6889H135.895L132.539 31.0148H131.06ZM132.985 28.7845V27.6168H138.184V28.7845H132.985Z" fill="#808080"/>
<path d="M146.926 31.1551C146.237 31.1755 145.553 31.0313 144.931 30.7347C144.36 30.4299 143.86 30.008 143.464 29.4969L144.368 28.5861C144.657 28.9901 145.029 29.3284 145.459 29.5787C145.924 29.813 146.441 29.9255 146.962 29.9056C147.464 29.932 147.962 29.7969 148.382 29.5203C148.557 29.4086 148.7 29.2524 148.795 29.0677C148.89 28.883 148.933 28.6764 148.921 28.4693C148.939 28.153 148.848 27.8401 148.663 27.5819C148.482 27.341 148.245 27.1485 147.971 27.0213C147.664 26.8661 147.346 26.7334 147.02 26.6243C146.676 26.5075 146.336 26.3791 145.999 26.239C145.666 26.1076 145.35 25.935 145.06 25.7252C144.768 25.5209 144.53 25.2482 144.368 24.9311C144.178 24.5425 144.085 24.1137 144.098 23.6816C144.083 23.1759 144.227 22.678 144.509 22.257C144.803 21.8463 145.211 21.5298 145.682 21.3462C146.182 21.1297 146.722 21.0222 147.267 21.0309C147.867 21.0163 148.463 21.1444 149.003 21.4046C149.494 21.6282 149.924 21.9644 150.259 22.3855L149.344 23.2963C149.081 22.9842 148.763 22.723 148.405 22.5256C148.039 22.3514 147.637 22.2634 147.231 22.2687C146.782 22.2423 146.336 22.3655 145.964 22.619C145.811 22.73 145.688 22.8761 145.604 23.0449C145.52 23.2136 145.479 23.4001 145.483 23.5882C145.468 23.881 145.564 24.1686 145.753 24.394C145.945 24.6111 146.181 24.7861 146.445 24.9078C146.75 25.0673 147.068 25.2001 147.396 25.3048C147.736 25.4216 148.088 25.55 148.428 25.6901C148.763 25.8295 149.078 26.01 149.367 26.2273C149.659 26.457 149.895 26.7481 150.06 27.0797C150.248 27.4853 150.336 27.9296 150.318 28.3759C150.338 28.763 150.266 29.1494 150.109 29.5042C149.953 29.859 149.714 30.1724 149.414 30.4194C148.7 30.952 147.817 31.2129 146.926 31.1551Z" fill="#808080"/>
<path d="M157.429 31.1551C156.74 31.1741 156.057 31.03 155.434 30.7347C154.863 30.4299 154.363 30.008 153.968 29.4969L154.883 28.5861C155.164 28.9925 155.533 29.3316 155.963 29.5786C156.432 29.812 156.952 29.9244 157.476 29.9056C157.979 29.932 158.477 29.7969 158.896 29.5203C159.065 29.4023 159.202 29.2446 159.294 29.0611C159.386 28.8777 159.431 28.6743 159.424 28.4693C159.442 28.1529 159.351 27.8401 159.166 27.5818C158.988 27.3385 158.75 27.1454 158.474 27.0213C158.172 26.8638 157.858 26.731 157.535 26.6243C157.195 26.5075 156.843 26.3791 156.502 26.2389C156.169 26.1076 155.854 25.9349 155.564 25.7251C155.275 25.5163 155.038 25.2447 154.871 24.9311C154.685 24.5414 154.596 24.1127 154.613 23.6816C154.595 23.1771 154.734 22.6794 155.012 22.257C155.29 21.855 155.676 21.5393 156.127 21.3462C156.653 21.1193 157.22 21.0022 157.793 21.0022C158.367 21.0022 158.934 21.1193 159.46 21.3462C159.946 21.5759 160.375 21.9111 160.715 22.3271L159.8 23.2379C159.536 22.9227 159.213 22.661 158.849 22.4672C158.483 22.2929 158.082 22.205 157.676 22.2103C157.226 22.1874 156.782 22.3103 156.408 22.5606C156.258 22.6729 156.137 22.8195 156.055 22.9882C155.973 23.1569 155.933 23.3426 155.939 23.5298C155.921 23.8211 156.013 24.1085 156.197 24.3355C156.39 24.5527 156.626 24.7277 156.89 24.8494C157.195 25.0068 157.513 25.1396 157.84 25.2464C158.192 25.3632 158.533 25.4916 158.873 25.6317C159.207 25.7711 159.523 25.9515 159.812 26.1689C160.107 26.3944 160.345 26.6865 160.504 27.0213C160.706 27.4435 160.799 27.9091 160.774 28.3759C160.791 28.7627 160.719 29.1482 160.562 29.5026C160.405 29.8569 160.169 30.1706 159.87 30.4194C159.167 30.9387 158.304 31.1988 157.429 31.1551Z" fill="#808080"/>
<path d="M169.986 31.155C169.329 31.1589 168.678 31.0294 168.072 30.7745C167.467 30.5195 166.92 30.1443 166.466 29.672C166.008 29.2042 165.646 28.6531 165.398 28.0488C165.147 27.4208 165.02 26.751 165.022 26.0754C165.018 25.3995 165.145 24.7293 165.398 24.1019C165.643 23.5026 166.002 22.9556 166.454 22.4905C166.903 22.0255 167.442 21.6561 168.038 21.4045C169.297 20.9065 170.699 20.9065 171.958 21.4045C172.554 21.6561 173.093 22.0255 173.542 22.4905C174.003 22.9534 174.37 23.5006 174.622 24.1019C174.872 24.734 175 25.4076 174.997 26.0871C175.014 27.4288 174.494 28.7222 173.554 29.6837C173.101 30.1439 172.563 30.5126 171.97 30.7697C171.343 31.034 170.667 31.1652 169.986 31.155ZM169.986 29.8822C170.63 29.8967 171.264 29.7302 171.816 29.4017C172.368 29.0732 172.816 28.5962 173.108 28.0255C173.43 27.4223 173.592 26.7468 173.577 26.0637C173.587 25.5488 173.496 25.0371 173.307 24.5573C173.139 24.1213 172.884 23.724 172.556 23.3896C172.226 23.0478 171.826 22.7809 171.383 22.6072C170.922 22.4161 170.427 22.3207 169.928 22.327C169.287 22.3058 168.654 22.4643 168.1 22.7844C167.546 23.1045 167.093 23.5732 166.794 24.137C166.481 24.7432 166.324 25.4172 166.337 26.0987C166.329 26.6199 166.417 27.1382 166.595 27.6285C166.763 28.0617 167.014 28.4583 167.334 28.7962C167.672 29.1384 168.076 29.4098 168.522 29.5943C168.967 29.7788 169.445 29.8727 169.928 29.8705L169.986 29.8822Z" fill="#808080"/>
<path d="M184.245 31.1549C183.588 31.1603 182.938 31.0327 182.332 30.7797C181.727 30.5267 181.18 30.1538 180.724 29.6835C180.266 29.2184 179.907 28.6664 179.668 28.0604C179.42 27.432 179.297 26.7619 179.304 26.0869C179.298 25.4083 179.421 24.7346 179.668 24.1018C179.91 23.5008 180.269 22.9532 180.724 22.4903C181.172 22.0328 181.707 21.6678 182.297 21.416C182.913 21.1558 183.575 21.0208 184.245 21.019C184.95 21.0036 185.65 21.139 186.298 21.416C186.882 21.6739 187.411 22.0383 187.859 22.4903L186.932 23.4128C186.608 23.0527 186.207 22.7694 185.759 22.5838C185.278 22.3895 184.763 22.2942 184.245 22.3035C183.749 22.2972 183.258 22.3926 182.801 22.5838C182.356 22.7544 181.956 23.0217 181.628 23.3661C181.302 23.7017 181.046 24.0987 180.877 24.5339C180.699 25.0202 180.611 25.5345 180.618 26.0519C180.61 26.5694 180.698 27.0839 180.877 27.57C181.049 28.004 181.304 28.4006 181.628 28.7377C181.959 29.0784 182.359 29.3451 182.801 29.5201C183.258 29.7112 183.749 29.8067 184.245 29.8003C184.796 29.8101 185.343 29.7067 185.852 29.4967C186.3 29.3043 186.701 29.0174 187.026 28.6559L187.953 29.5668C187.503 30.0417 186.96 30.4193 186.357 30.6761C185.695 30.9836 184.975 31.1468 184.245 31.1549Z" fill="#808080"/>
<path d="M192.459 31.0148V21.1709H193.797V31.0148H192.459Z" fill="#808080"/>
<path d="M198.198 31.0148L202.247 21.1709H203.221L207.258 31.0148H205.802L202.481 22.6889H203.021L199.677 31.0148H198.198ZM200.123 28.7845V27.6168H205.368V28.7845H200.123Z" fill="#808080"/>
<path d="M209.523 22.3853V21.2175H217.573V22.3853H209.523ZM212.891 31.0148V21.4511H214.228V31.0148H212.891Z" fill="#808080"/>
<path d="M222.021 31.0148V21.1709H223.37V31.0148H222.021Z" fill="#808080"/>
<path d="M233.064 31.155C232.406 31.1589 231.755 31.0294 231.15 30.7745C230.544 30.5195 229.998 30.1443 229.543 29.672C229.086 29.2042 228.723 28.6531 228.475 28.0488C228.225 27.4208 228.097 26.751 228.1 26.0754C228.095 25.3995 228.222 24.7293 228.475 24.1019C228.721 23.5026 229.079 22.9556 229.531 22.4905C229.982 22.028 230.521 21.6589 231.116 21.4045C232.374 20.9065 233.777 20.9065 235.035 21.4045C235.635 21.6558 236.178 22.0252 236.631 22.4905C237.088 22.954 237.451 23.5012 237.699 24.1019C237.959 24.7316 238.091 25.4064 238.086 26.0871C238.096 27.0764 237.813 28.0467 237.272 28.8772C236.732 29.7078 235.958 30.3618 235.047 30.758C234.421 31.028 233.746 31.1633 233.064 31.155ZM233.064 29.8822C233.723 29.897 234.374 29.7271 234.941 29.3917C235.471 29.055 235.901 28.5832 236.185 28.0255C236.461 27.4873 236.621 26.8979 236.655 26.2948C236.69 25.6917 236.597 25.0881 236.385 24.5223C236.208 24.0879 235.949 23.6914 235.622 23.3546C235.294 23.0102 234.893 22.7429 234.448 22.5722C233.988 22.3798 233.493 22.2843 232.993 22.2919C232.343 22.2779 231.701 22.4437 231.139 22.7707C230.605 23.0946 230.168 23.5541 229.872 24.1019C229.549 24.7051 229.387 25.3806 229.402 26.0637C229.399 26.5856 229.491 27.1038 229.672 27.5934C229.84 28.0266 230.091 28.4232 230.411 28.7612C230.74 29.1047 231.141 29.3718 231.585 29.5435C232.037 29.7571 232.529 29.8726 233.028 29.8822H233.064Z" fill="#808080"/>
<path d="M242.722 31.0148V21.1709H243.661L244.071 22.7123V31.0148H242.722ZM249.564 31.0148L243.496 22.9458L243.661 21.1709L249.751 29.2282L249.564 31.0148ZM249.564 31.0148L249.165 29.5552V21.1709H250.514V31.0148H249.564Z" fill="#808080"/>
<path d="M266.016 31.155C265.359 31.1589 264.708 31.0294 264.103 30.7744C263.497 30.5195 262.951 30.1443 262.496 29.672C262.038 29.2042 261.676 28.6531 261.428 28.0488C261.178 27.4208 261.05 26.751 261.052 26.0754C261.048 25.3995 261.175 24.7293 261.428 24.1019C261.673 23.5026 262.032 22.9556 262.484 22.4905C262.931 22.0235 263.471 21.6538 264.068 21.4045C265.327 20.9065 266.729 20.9065 267.988 21.4045C269.19 21.9273 270.141 22.8945 270.64 24.1019C270.9 24.7316 271.032 25.4064 271.027 26.0871C271.041 27.0758 270.761 28.0465 270.222 28.8774C269.684 29.7083 268.911 30.3625 268 30.758C267.374 31.0263 266.698 31.1616 266.016 31.155ZM266.016 29.8822C266.66 29.8967 267.294 29.7302 267.846 29.4017C268.399 29.0732 268.846 28.5962 269.138 28.0255C269.461 27.4223 269.622 26.7468 269.607 26.0637C269.617 25.5488 269.526 25.0371 269.338 24.5573C269.17 24.1213 268.914 23.724 268.587 23.3896C268.256 23.0478 267.856 22.7809 267.413 22.6072C266.952 22.4161 266.457 22.3207 265.958 22.327C265.328 22.3124 264.706 22.4716 264.161 22.7869C263.617 23.1023 263.17 23.5614 262.871 24.1136C262.558 24.7198 262.401 25.3939 262.414 26.0754C262.407 26.5966 262.494 27.1148 262.672 27.6051C262.84 28.0383 263.091 28.4349 263.411 28.7728C263.75 29.1151 264.153 29.3865 264.599 29.571C265.044 29.7555 265.522 29.8494 266.005 29.8471L266.016 29.8822Z" fill="#808080"/>
<path d="M275.686 31.0148V21.1709H277.024V31.0148H275.686ZM276.602 22.3853V21.2176H282V22.3853H276.602ZM276.602 26.6826V25.5148H281.754V26.6826H276.602Z" fill="#808080"/>
<path d="M131.788 48.0988V38.2549H133.126V48.0988H131.788Z" fill="#808080"/>
<path d="M140.824 48.2389C140.131 48.2594 139.443 48.1152 138.817 47.8186C138.245 47.5143 137.745 47.0923 137.35 46.5808L138.266 45.6699C138.546 46.0771 138.915 46.4164 139.345 46.6625C139.815 46.8959 140.335 47.0083 140.859 46.9895C141.361 47.0193 141.858 46.8883 142.279 46.6158C142.449 46.4984 142.587 46.3411 142.682 46.1577C142.776 45.9744 142.823 45.7707 142.819 45.5648C142.83 45.2456 142.74 44.9309 142.561 44.6657C142.373 44.4314 142.137 44.2402 141.868 44.1052C141.56 43.9547 141.242 43.8221 140.918 43.7082L139.897 43.3228C139.56 43.1955 139.241 43.0268 138.946 42.8207C138.661 42.6071 138.428 42.3316 138.266 42.0149C138.069 41.6286 137.976 41.1982 137.996 40.7655C137.983 40.2599 138.126 39.7625 138.407 39.3408C138.683 38.9422 139.065 38.6271 139.51 38.43C140.013 38.2136 140.557 38.1062 141.106 38.1147C141.706 38.107 142.299 38.2348 142.842 38.4884C143.329 38.7232 143.758 39.0621 144.098 39.481L143.183 40.3801C142.922 40.0649 142.598 39.8065 142.232 39.6211C141.869 39.439 141.465 39.3507 141.059 39.3642C140.609 39.3413 140.164 39.4642 139.791 39.7145C139.641 39.8268 139.519 39.9734 139.438 40.1421C139.356 40.3108 139.316 40.4966 139.322 40.6837C139.307 40.9765 139.403 41.2641 139.592 41.4895C139.785 41.7059 140.021 41.8807 140.284 42.0033C140.588 42.1519 140.902 42.2806 141.223 42.3886C141.575 42.5054 141.915 42.6455 142.256 42.7856C142.596 42.9205 142.916 43.1012 143.206 43.3228C143.497 43.548 143.734 43.8353 143.899 44.1636C144.084 44.5699 144.173 45.0136 144.157 45.4597C144.176 45.8468 144.104 46.2328 143.947 46.5875C143.79 46.9422 143.553 47.2557 143.253 47.5033C142.553 48.0208 141.695 48.2808 140.824 48.2389Z" fill="#808080"/>
<path d="M148.874 48.0988V38.2549H150.212V48.0988H148.874ZM149.79 48.0988V46.9311H155.094V48.0988H149.79Z" fill="#808080"/>
<path d="M158.509 48.0988L162.558 38.2549H163.532L167.569 48.0988H166.114L162.793 39.7729H163.285L159.941 48.0988H158.509ZM160.434 45.8685V44.7007H165.644V45.8685H160.434Z" fill="#808080"/>
<path d="M171.899 48.0988V38.2549H172.838L177.039 45.1094H176.394L180.583 38.2549H181.522V48.0988H180.184V40.602L180.501 40.6838L177.203 46.0903H176.265L172.955 40.6838L173.249 40.602V48.0988H171.899Z" fill="#808080"/>
<path d="M186.709 48.0988V38.2549H188.047V48.0988H186.709Z" fill="#808080"/>
<path d="M197.729 48.2389C197.052 48.2455 196.381 48.1144 195.757 47.8535C195.155 47.6057 194.612 47.2358 194.161 46.7676C193.713 46.3011 193.359 45.7542 193.117 45.1561C192.616 43.8836 192.616 42.47 193.117 41.1975C193.604 39.9985 194.549 39.041 195.745 38.5351C196.369 38.2733 197.04 38.1421 197.717 38.1497C198.422 38.1321 199.123 38.2676 199.771 38.5467C200.355 38.8085 200.888 39.1723 201.343 39.6211L200.416 40.5436C200.088 40.1908 199.688 39.9121 199.242 39.7262C198.753 39.5182 198.225 39.4148 197.693 39.4225C197.198 39.4185 196.707 39.5138 196.25 39.7028C195.81 39.882 195.41 40.1482 195.076 40.4852C194.756 40.8227 194.505 41.2194 194.337 41.6529C194.149 42.1367 194.057 42.6523 194.067 43.171C194.058 43.6895 194.15 44.205 194.337 44.689C194.503 45.1232 194.755 45.5201 195.076 45.8567C195.406 46.1985 195.807 46.4654 196.25 46.6391C196.707 46.8281 197.198 46.9234 197.693 46.9194C198.245 46.9315 198.793 46.828 199.301 46.6157C199.745 46.4227 200.145 46.1405 200.475 45.7867L201.402 46.6975C200.945 47.1665 200.398 47.5397 199.794 47.7952C199.144 48.0854 198.441 48.2366 197.729 48.2389Z" fill="#808080"/>
<path d="M131.647 65.1943V55.2219H133.008L137.069 61.6911H136.294L140.343 55.2219H141.704V65.1943H139.78V58.5266L140.155 58.6317L137.303 63.1508H136.013L133.196 58.6317L133.583 58.5266V65.1943H131.647Z" fill="#075C89"/>
<path d="M146.609 65.1943V55.2219H148.546V65.1943H146.609ZM148.041 56.9151V55.2219H153.51V56.9151H148.041ZM148.041 60.9204V59.2739H153.087V60.9204H148.041ZM148.041 65.1943V63.4894H153.58V65.1943H148.041Z" fill="#075C89"/>
<path d="M158.04 65.1942V55.2218H159.401L159.988 57.1486V65.1942H158.04ZM164.975 65.1942L159.025 57.5339L159.401 55.1985L165.339 62.8588L164.975 65.1942ZM164.975 65.1942L164.412 63.3142V55.2218H166.372V65.1942H164.975Z" fill="#075C89"/>
<path d="M170.55 56.9385V55.2219H178.882V56.9385H170.55ZM173.742 65.1943V55.4321H175.69V65.1943H173.742Z" fill="#075C89"/>
<path d="M181.041 65.1943L185.078 55.2219H186.65L190.676 65.1943H188.61L185.5 57.0202H186.216L183.059 65.1943H181.041ZM183.177 63.326V61.7145H188.563V63.326H183.177Z" fill="#075C89"/>
<path d="M194.713 65.1943V55.2219H196.649V65.1943H194.713ZM196.133 65.1943V63.4778H201.237V65.1943H196.133Z" fill="#075C89"/>
<path d="M204.852 62.4151V60.7219H209.781V62.4151H204.852Z" fill="#075C89"/>
<path d="M214.487 65.1943V55.2219H216.423V65.1943H214.487ZM215.66 60.8971V59.1922H221.27V60.8971H215.66ZM220.718 65.1943V55.2219H222.666V65.1943H220.718Z" fill="#075C89"/>
<path d="M227.665 65.1943V55.2219H229.602V65.1943H227.665ZM229.085 56.9151V55.2219H234.566V56.9151H229.085ZM229.085 60.9204V59.2739H234.132V60.9204H229.085ZM229.085 65.1943V63.4894H234.636V65.1943H229.085Z" fill="#075C89"/>
<path d="M238.309 65.1943L242.335 55.2219H243.919L247.944 65.1943H245.879L242.769 57.0202H243.485L240.328 65.1943H238.309ZM240.445 63.326V61.7145H245.832V63.326H240.445Z" fill="#075C89"/>
<path d="M251.981 65.1943V55.2219H253.917V65.1943H251.981ZM253.401 65.1943V63.4778H258.506V65.1943H253.401Z" fill="#075C89"/>
<path d="M260.912 56.9385V55.2219H269.255V56.9385H260.912ZM264.104 65.1943V55.4321H266.063V65.1943H264.104Z" fill="#075C89"/>
<path d="M273.433 65.1943V55.2219H275.37V65.1943H273.433ZM274.665 60.8971V59.1922H280.263V60.8971H274.665ZM279.723 65.1943V55.2219H281.648V65.1943H279.723Z" fill="#075C89"/>
<path d="M134.534 82.4183C133.845 82.4373 133.161 82.2932 132.539 81.9979C131.967 81.693 131.468 81.2712 131.072 80.7601L131.987 79.8493C132.262 80.2615 132.632 80.602 133.067 80.8418C133.536 81.0752 134.057 81.1876 134.581 81.1688C135.083 81.1952 135.581 81.0601 136.001 80.7834C136.172 80.6713 136.312 80.5164 136.404 80.334C136.497 80.1516 136.54 79.9482 136.529 79.7442C136.548 79.424 136.457 79.1069 136.271 78.845C136.086 78.608 135.849 78.4162 135.578 78.2845C135.277 78.127 134.963 77.9942 134.639 77.8875C134.299 77.7707 133.947 77.6423 133.607 77.5021C133.273 77.3708 132.958 77.1981 132.668 76.9883C132.379 76.7794 132.143 76.5079 131.976 76.1943C131.789 75.8046 131.701 75.3759 131.717 74.9448C131.699 74.4403 131.838 73.9426 132.116 73.5202C132.41 73.1095 132.818 72.793 133.29 72.6094C133.816 72.3825 134.383 72.2654 134.956 72.2654C135.53 72.2654 136.097 72.3825 136.623 72.6094C137.107 72.843 137.535 73.1775 137.878 73.5902L136.963 74.5011C136.702 74.1859 136.378 73.9275 136.012 73.742C135.648 73.5623 135.245 73.4741 134.839 73.4851C134.391 73.4645 133.948 73.5828 133.572 73.8238C133.419 73.9372 133.297 74.0857 133.215 74.2566C133.133 74.4275 133.095 74.6156 133.102 74.8047C133.087 75.092 133.179 75.3747 133.36 75.5987C133.556 75.8153 133.791 75.9936 134.053 76.1242C134.361 76.2728 134.678 76.4015 135.003 76.5096C135.355 76.6263 135.696 76.7548 136.036 76.8949C136.371 77.0384 136.686 77.2227 136.975 77.4437C137.272 77.6629 137.51 77.9517 137.667 78.2845C137.859 78.6894 137.951 79.1335 137.937 79.5807C137.956 79.9677 137.884 80.3538 137.727 80.7084C137.571 81.0631 137.333 81.3766 137.033 81.6242C136.322 82.1775 135.436 82.4592 134.534 82.4183Z" fill="#808080"/>
<path d="M142.549 82.2781V72.3992H143.887V82.2431L142.549 82.2781ZM143.441 78.448V77.2803H146.14C146.482 77.2897 146.821 77.2134 147.126 77.0584C147.414 76.9154 147.655 76.6923 147.818 76.4161C147.98 76.1162 148.064 75.7813 148.064 75.4411C148.064 75.1009 147.98 74.766 147.818 74.466C147.655 74.1899 147.414 73.9668 147.126 73.8238C146.821 73.6688 146.482 73.5925 146.14 73.6019H143.441V72.3992H146.222C146.787 72.3878 147.347 72.512 147.853 72.7612C148.334 72.9982 148.74 73.3617 149.027 73.8121C149.246 74.1618 149.39 74.553 149.45 74.961C149.51 75.3689 149.483 75.7848 149.373 76.1821C149.263 76.5795 149.071 76.9498 148.809 77.2694C148.548 77.5891 148.222 77.8513 147.853 78.0393C147.348 78.2925 146.788 78.4207 146.222 78.413L143.441 78.448Z" fill="#808080"/>
<path d="M153.921 82.2781V72.3992H155.258V82.2431L153.921 82.2781ZM154.836 73.6486V72.3992H160.434V73.5669L154.836 73.6486ZM154.836 77.8291V76.6614H160.035V77.8291H154.836ZM154.836 82.2781V81.1104H160.516V82.2781H154.836Z" fill="#808080"/>
<path d="M169.458 82.4182C168.781 82.4248 168.111 82.2937 167.487 82.0329C166.886 81.7805 166.343 81.4107 165.89 80.9453C165.436 80.4799 165.081 79.9284 164.846 79.3237C164.595 78.6961 164.467 78.026 164.471 77.3503C164.468 76.6708 164.596 75.9972 164.846 75.3651C165.089 74.767 165.443 74.2201 165.891 73.7537C166.349 73.2883 166.897 72.9192 167.502 72.6685C168.107 72.4178 168.756 72.2904 169.411 72.294C170.117 72.2764 170.817 72.4119 171.465 72.691C172.052 72.9486 172.585 73.313 173.037 73.7653L172.11 74.6878C171.782 74.3351 171.382 74.0563 170.937 73.8704C170.448 73.6625 169.92 73.5591 169.388 73.5668C168.893 73.5628 168.402 73.6581 167.944 73.8471C167.504 74.0263 167.105 74.2925 166.771 74.6295C166.449 74.9661 166.198 75.363 166.031 75.7972C165.844 76.2812 165.752 76.7966 165.762 77.3152C165.752 77.8339 165.843 78.3495 166.031 78.8333C166.185 79.2791 166.432 79.6875 166.755 80.0317C167.079 80.3758 167.472 80.6479 167.909 80.8301C168.366 81.0191 168.857 81.1144 169.353 81.1104C169.904 81.1225 170.452 81.019 170.96 80.8067C171.405 80.6137 171.804 80.3315 172.134 79.9777L173.061 80.8768C172.605 81.3495 172.058 81.7267 171.453 81.9861C170.824 82.263 170.146 82.41 169.458 82.4182Z" fill="#808080"/>
<path d="M177.626 82.2781V72.3992H178.976V82.2431L177.626 82.2781Z" fill="#808080"/>
<path d="M183.435 82.2781L187.484 72.3992H188.458L192.459 82.2781H191.004L187.765 73.9522H188.27L184.914 82.2781H183.435ZM185.418 80.0478V78.8801H190.617V80.0478H185.418Z" fill="#808080"/>
<path d="M196.825 82.2781V72.3992H198.163V82.2431L196.825 82.2781ZM197.729 82.2781V81.1104H203.021V82.2781H197.729Z" fill="#808080"/>
<path d="M207.539 82.2781V72.3992H208.889V82.2431L207.539 82.2781Z" fill="#808080"/>
<path d="M216.622 82.4184C215.933 82.4374 215.25 82.2933 214.627 81.998C214.056 81.6931 213.556 81.2713 213.161 80.7602L214.076 79.8494C214.351 80.2616 214.721 80.602 215.156 80.8419C215.625 81.0753 216.145 81.1877 216.669 81.1689C217.172 81.1953 217.67 81.0602 218.089 80.7835C218.261 80.6714 218.4 80.5165 218.493 80.3341C218.586 80.1517 218.629 79.9483 218.617 79.7443C218.636 79.4241 218.545 79.107 218.359 78.8451C218.175 78.6081 217.938 78.4163 217.667 78.2846C217.365 78.1271 217.051 77.9943 216.728 77.8876C216.376 77.7708 216.036 77.6424 215.695 77.5022C215.362 77.3708 215.047 77.1982 214.757 76.9884C214.468 76.7795 214.231 76.508 214.064 76.1944C213.878 75.8047 213.789 75.376 213.806 74.9449C213.788 74.4404 213.927 73.9427 214.205 73.5203C214.483 73.1183 214.869 72.8026 215.32 72.6094C215.819 72.393 216.359 72.2855 216.904 72.2942C217.508 72.2808 218.107 72.4088 218.653 72.6678C219.135 72.8987 219.56 73.2338 219.897 73.6487L218.993 74.5595C218.732 74.2443 218.408 73.986 218.042 73.8005C217.678 73.6208 217.275 73.5326 216.869 73.5436C216.421 73.5214 215.978 73.6398 215.601 73.8823C215.449 73.9957 215.327 74.1442 215.245 74.3151C215.163 74.486 215.125 74.674 215.132 74.8632C215.117 75.1505 215.209 75.4332 215.39 75.6572C215.586 75.8738 215.821 76.052 216.083 76.1827C216.39 76.3333 216.708 76.4621 217.033 76.568C217.374 76.6848 217.726 76.8133 218.066 76.9534C218.401 77.0969 218.716 77.2812 219.005 77.5022C219.299 77.7244 219.536 78.0124 219.697 78.343C219.889 78.7478 219.981 79.192 219.967 79.6392C219.986 80.0274 219.914 80.4147 219.755 80.7697C219.596 81.1247 219.355 81.4375 219.052 81.6827C218.353 82.202 217.494 82.4622 216.622 82.4184Z" fill="#808080"/>
<path d="M223.441 73.6486V72.3992H231.491V73.5669L223.441 73.6486ZM226.797 82.2781V72.7145H228.135V82.2781H226.797Z" fill="#808080"/>
</g>
<defs>
<clipPath id="clip0_47_208">
<rect width="282" height="110" fill="white"/>
</clipPath>
</defs>
</svg>
