<svg width="30" height="34" viewBox="0 0 30 34" fill="none" xmlns="http://www.w3.org/2000/svg">
<path fill-rule="evenodd" clip-rule="evenodd" d="M3.23806 0.0685398C2.6048 0.22187 1.78834 0.674582 1.29931 1.14373C0.750165 1.6705 0.241571 2.54613 0.0969795 3.21407C0.0273843 3.53537 -0.000949758 7.55824 2.42213e-05 16.9975C0.00144092 31.5657 -0.0212261 30.9053 0.510212 31.8574C1.53289 33.6898 4.0694 34.5197 6.01691 33.6591C6.95928 33.2426 28.1577 20.5033 28.6856 20.0361C29.599 19.2277 30.0688 18.0812 29.9918 16.8482C29.9139 15.5989 29.3867 14.6128 28.3756 13.8247C28.0841 13.5976 24.2795 11.2684 19.921 8.64876C15.5624 6.02905 10.6987 3.105 9.11275 2.15086C7.52684 1.19664 6.01275 0.331794 5.74809 0.228975C5.19903 0.0155465 3.82103 -0.0725475 3.23806 0.0685398Z" fill="#115786"/>
</svg>
