<svg width="14" height="12" viewBox="0 0 14 12" fill="none" xmlns="http://www.w3.org/2000/svg">
<path d="M2.13823 0.195262C1.87788 -0.0650874 1.45577 -0.0650874 1.19542 0.195262C0.935075 0.455612 0.935075 0.877722 1.19542 1.13807L2.81153 2.75418C1.85776 3.47158 1.02633 4.45695 0.403878 5.70186C0.310035 5.88954 0.310035 6.11046 0.403878 6.29814C1.84269 9.17577 4.39808 10.6667 7.00016 10.6667C8.03693 10.6667 9.06629 10.43 10.0206 9.96321L11.8621 11.8047C12.1224 12.0651 12.5446 12.0651 12.8049 11.8047C13.0653 11.5444 13.0653 11.1223 12.8049 10.8619L2.13823 0.195262ZM9.00934 8.95199C8.35634 9.20744 7.67575 9.33334 7.00016 9.33334C5.02097 9.33334 2.99887 8.25281 1.75327 6C2.2983 5.01424 2.99201 4.25293 3.76575 3.70839L5.19508 5.13772C5.07013 5.39882 5.00016 5.69124 5.00016 6.00001C5.00016 7.10458 5.89559 8.00001 7.00016 8.00001C7.30893 8.00001 7.60135 7.93004 7.86244 7.80509L9.00934 8.95199Z" fill="#9D9D9D"/>
<path d="M11.3684 7.26365C11.6904 6.89344 11.9858 6.47251 12.247 6C11.0014 3.74719 8.97933 2.66667 7.00014 2.66667C6.92547 2.66667 6.85074 2.6682 6.77599 2.67129L5.58643 1.48172C6.05177 1.38301 6.52518 1.33333 7.00014 1.33333C9.60222 1.33333 12.1576 2.82423 13.5964 5.70186C13.6903 5.88954 13.6903 6.11046 13.5964 6.29814C13.2338 7.02344 12.8002 7.66065 12.3128 8.20809L11.3684 7.26365Z" fill="#9D9D9D"/>
</svg>
