<svg width="14" height="10" viewBox="0 0 14 10" fill="none" xmlns="http://www.w3.org/2000/svg">
<path d="M6.665 3C7.14709 3 7.60944 3.21071 7.95033 3.58579C8.29122 3.96086 8.48273 4.46957 8.48273 5C8.48273 5.53043 8.29122 6.03914 7.95033 6.41421C7.60944 6.78929 7.14709 7 6.665 7C6.18291 7 5.72056 6.78929 5.37967 6.41421C5.03878 6.03914 4.84727 5.53043 4.84727 5C4.84727 4.46957 5.03878 3.96086 5.37967 3.58579C5.72056 3.21071 6.18291 3 6.665 3ZM6.665 0C9.69455 0 12.2818 2.07333 13.33 5C12.2818 7.92667 9.69455 10 6.665 10C3.63545 10 1.04822 7.92667 0 5C1.04822 2.07333 3.63545 0 6.665 0ZM1.32088 5C1.81061 6.1002 2.57106 7.02716 3.51577 7.6755C4.46049 8.32384 5.55158 8.66755 6.665 8.66755C7.77842 8.66755 8.86951 8.32384 9.81422 7.6755C10.7589 7.02716 11.5194 6.1002 12.0091 5C11.5194 3.8998 10.7589 2.97283 9.81422 2.3245C8.86951 1.67616 7.77842 1.33245 6.665 1.33245C5.55158 1.33245 4.46049 1.67616 3.51577 2.3245C2.57106 2.97283 1.81061 3.8998 1.32088 5Z" fill="#9D9D9D"/>
</svg>
