<?xml version="1.0" encoding="UTF-8"?>
<svg version="1.1" xmlns="http://www.w3.org/2000/svg" width="200" height="200">
<path d="M0 0 C14.48558496 10.86220004 23.17275391 24.89506945 30.10253906 41.37255859 C31.48500077 44.43846075 33.08975694 47.37189264 34.66113281 50.34521484 C43.68488616 68.29917385 45.89918155 90.89414215 39.60644531 110.21240234 C31.84334121 129.05366581 20.64229985 142.1231461 4.20800781 154.13037109 C2.00615635 155.84058778 0.00862269 157.69019694 -2.02636719 159.59521484 C-20.10290491 175.81138848 -40.46917437 179.76226626 -63.89013672 178.90673828 C-80.07150965 177.88317735 -96.00630155 169.53540101 -107.83886719 158.72021484 C-108.73412109 157.94484375 -108.73412109 157.94484375 -109.64746094 157.15380859 C-114.21119651 152.94842639 -117.56164209 147.98092945 -121.07495117 142.9074707 C-123.45955353 139.50716251 -125.85570802 136.50922841 -128.90136719 133.65771484 C-136.94937529 126.03328611 -143.02621159 116.07886368 -146.83886719 105.72021484 C-147.23074219 104.69541016 -147.62261719 103.67060547 -148.02636719 102.61474609 C-154.39146952 83.05531705 -152.41989411 60.78178877 -143.58886719 42.40771484 C-140.3058209 36.21105211 -136.54516929 30.90570407 -131.83886719 25.72021484 C-131.08863281 24.87716797 -130.33839844 24.03412109 -129.56542969 23.16552734 C-120.31760427 13.31913717 -109.34121889 7.49182245 -96.83886719 2.72021484 C-92.67399196 1.06862639 -88.99195109 -0.77531885 -85.21386719 -3.15478516 C-59.31896663 -18.99915353 -24.76585213 -17.23613873 0 0 Z M-73.83886719 -2.27978516 C-74.49886719 -1.61978516 -75.15886719 -0.95978516 -75.83886719 -0.27978516 C-75.2457373 -0.21509033 -74.65260742 -0.15039551 -74.04150391 -0.08374023 C-54.50334447 2.11888757 -54.50334447 2.11888757 -46.52636719 5.34521484 C-41.29045174 7.44960192 -36.84441041 8.15234216 -31.27636719 8.34521484 C-17.82400876 8.826513 -7.38630287 12.46480661 4.37548828 18.77099609 C6.94588114 20.13737392 9.55200248 21.42976398 12.16113281 22.72021484 C5.90771785 9.19608295 -8.7140801 1.27981566 -21.83886719 -4.27978516 C-38.73036461 -10.08756701 -57.42703936 -9.43724329 -73.83886719 -2.27978516 Z M-97.83886719 14.72021484 C-98.49757813 15.42017578 -99.15628906 16.12013672 -99.83496094 16.84130859 C-107.67188676 25.9003671 -116.59033538 40.32098967 -115.83886719 52.72021484 C-114.81792969 51.69927734 -114.81792969 51.69927734 -113.77636719 50.65771484 C-113.08220703 49.97128906 -113.08220703 49.97128906 -112.37402344 49.27099609 C-111.33991064 48.22635797 -110.32693643 47.16041523 -109.33496094 46.07568359 C-105.1569322 41.61576376 -100.67192726 38.55692578 -95.38964844 35.49365234 C-92.57279389 33.53522667 -90.94446918 31.41275852 -88.83886719 28.72021484 C-78.4453769 19.6138441 -66.30463027 12.97806075 -52.83886719 9.72021484 C-65.81462535 1.0697094 -87.44209919 3.66202224 -97.83886719 14.72021484 Z M-55.15136719 15.90771484 C-55.8995874 16.12967529 -56.64780762 16.35163574 -57.41870117 16.58032227 C-62.97525162 18.29694579 -67.98632312 20.47136055 -72.83886719 23.72021484 C-69.38404587 24.74302379 -66.77444086 24.48027085 -63.20996094 23.98974609 C-50.0333882 22.49191493 -35.65761457 24.3514768 -23.62402344 30.04833984 C-23.03492188 30.27005859 -22.44582031 30.49177734 -21.83886719 30.72021484 C-21.17886719 30.39021484 -20.51886719 30.06021484 -19.83886719 29.72021484 C-25.79359446 23.2331113 -34.38534384 14.3387929 -43.56933594 13.45849609 C-47.62801333 13.78338425 -51.26415183 14.73389773 -55.15136719 15.90771484 Z M-28.83886719 13.72021484 C-27.00786743 15.62750625 -25.16381162 17.45688516 -23.10839844 19.12255859 C-17.82533502 23.43547863 -13.99502466 28.29161791 -9.99511719 33.79833984 C-6.60414279 38.39335588 -2.84014398 42.6136077 1.09082031 46.75146484 C10.465677 56.81940433 16.05372892 67.71343585 20.16113281 80.72021484 C20.82573656 82.7209013 21.49175306 84.72112125 22.16113281 86.72021484 C28.78998145 76.77694189 27.350335 59.62071454 25.34863281 48.28271484 C21.45023994 35.30015999 7.56470243 26.31969945 -3.68652344 20.16162109 C-11.4868293 16.37931451 -20.08908128 13.41794951 -28.83886719 13.72021484 Z M-106.83886719 13.72021484 C-124.60057754 23.50873258 -136.95934531 38.51276785 -142.87011719 57.96240234 C-147.56092855 76.15821092 -146.19188627 93.37253926 -137.90136719 110.22021484 C-137.39754517 111.24477783 -137.39754517 111.24477783 -136.88354492 112.29003906 C-134.95915577 116.02898524 -133.04665933 118.90711748 -129.83886719 121.72021484 C-129.99742187 120.64900391 -130.15597656 119.57779297 -130.31933594 118.47412109 C-132.35860478 101.98972944 -132.37396316 84.46873062 -124.71386719 69.40771484 C-122.59802349 65.0698268 -122.31455499 60.83553415 -121.90136719 56.09521484 C-120.5880842 41.48607376 -115.802849 26.83388686 -105.83886719 15.72021484 C-106.33386719 14.73021484 -106.33386719 14.73021484 -106.83886719 13.72021484 Z M-91.58886719 40.03271484 C-104.48761046 56.84207955 -108.57726631 76.63212134 -106.47167969 97.32958984 C-104.99198693 105.96450925 -101.17854294 110.85705067 -94.83886719 116.72021484 C-94.17371094 117.36732422 -93.50855469 118.01443359 -92.82324219 118.68115234 C-79.30094617 131.26898075 -60.92680371 137.35469089 -42.57324219 136.90380859 C-33.52153681 136.29605123 -27.75101246 134.98462552 -21.42944336 128.2097168 C-7.30157848 111.90446609 -0.11801415 92.55243727 -1.60253906 70.95166016 C-2.26774994 64.67064008 -3.88970244 58.71082958 -5.83886719 52.72021484 C-6.2371875 51.46917969 -6.2371875 51.46917969 -6.64355469 50.19287109 C-10.14585815 41.50382298 -19.91215472 37.27675033 -28.03808594 33.78271484 C-46.32331482 26.84605898 -76.44021211 24.57768248 -91.58886719 40.03271484 Z M-106.83886719 51.72021484 C-109.30762527 54.27126486 -111.56908514 56.99235887 -113.83886719 59.72021484 C-114.79792969 60.86490234 -114.79792969 60.86490234 -115.77636719 62.03271484 C-119.06232019 70.34424303 -116.24402308 79.51691527 -113.83886719 87.72021484 C-113.50886719 87.72021484 -113.17886719 87.72021484 -112.83886719 87.72021484 C-112.74089844 86.58326172 -112.64292969 85.44630859 -112.54199219 84.27490234 C-111.60375547 74.29813784 -109.89988855 65.287563 -106.83886719 55.72021484 C-106.49221274 54.39028267 -106.15239042 53.05834491 -105.83886719 51.72021484 C-106.16886719 51.72021484 -106.49886719 51.72021484 -106.83886719 51.72021484 Z M2.16113281 57.72021484 C2.23332031 58.29384766 2.30550781 58.86748047 2.37988281 59.45849609 C4.8337723 81.91840125 2.80477776 102.07328353 -9.50683594 121.56396484 C-10.74662299 123.57089285 -11.81949006 125.5944995 -12.83886719 127.72021484 C-0.99939612 123.44780248 9.00856208 113.44877091 15.78613281 103.03271484 C19.57405991 93.90725412 15.87657383 82.51616525 12.34912109 73.68798828 C9.71694423 67.72172073 7.06944553 62.15491844 2.16113281 57.72021484 Z M32.16113281 61.72021484 C32.06316406 62.94095703 31.96519531 64.16169922 31.86425781 65.41943359 C30.88023982 76.6164865 29.40954845 86.788112 24.58691406 97.07958984 C23.05220139 100.99836303 22.58934854 104.57401699 22.28613281 108.72021484 C21.59640353 116.2556529 19.74684944 122.7756211 17.08691406 129.84130859 C15.82164018 132.62419391 15.82164018 132.62419391 17.16113281 134.72021484 C29.94942349 122.21166802 36.26775182 104.69436851 37.20410156 87.05615234 C37.09244229 78.38733232 35.67129707 70.00269777 33.16113281 61.72021484 C32.83113281 61.72021484 32.50113281 61.72021484 32.16113281 61.72021484 Z M-122.83886719 77.72021484 C-128.37159687 93.03402022 -127.81486034 111.67575656 -121.83886719 126.72021484 C-121.57332031 127.50396484 -121.30777344 128.28771484 -121.03417969 129.09521484 C-117.85549877 137.08732686 -109.83719821 140.89558982 -102.46386719 144.47021484 C-95.28983386 147.55790248 -87.7095745 149.99211201 -79.83886719 149.72021484 C-82.03262004 147.45790721 -84.16997005 145.25387843 -86.63574219 143.28662109 C-97.86792614 134.27840956 -104.07425082 121.20168522 -109.67480469 108.24755859 C-111.11783613 105.11453395 -112.73799525 102.08799597 -114.33886719 99.03271484 C-117.88783772 92.16136408 -120.002841 85.22397406 -121.83886719 77.72021484 C-122.16886719 77.72021484 -122.49886719 77.72021484 -122.83886719 77.72021484 Z M15.16113281 112.72021484 C14.66226563 113.33767578 14.16339844 113.95513672 13.64941406 114.59130859 C3.65915137 126.37515525 -8.17521744 132.81120728 -22.23339844 138.72802734 C-26.55054787 140.57934548 -30.46261231 142.68556802 -34.46386719 145.15771484 C-41.23771695 149.218524 -48.31410942 151.48951479 -55.83886719 153.72021484 C-46.00074637 160.27896206 -30.84870374 158.28100857 -19.83227539 156.12841797 C-10.87992402 154.20754153 -2.295446 151.78902272 3.50488281 144.28271484 C13.04590604 130.28509178 13.04590604 130.28509178 15.71972656 114.45068359 C15.53539062 113.87962891 15.35105469 113.30857422 15.16113281 112.72021484 Z M-92.83886719 126.72021484 C-88.37059981 136.35890589 -77.75788074 145.87862968 -67.83886719 149.72021484 C-59.26470757 150.35715242 -50.75282302 146.57979088 -42.83886719 143.72021484 C-42.83886719 143.39021484 -42.83886719 143.06021484 -42.83886719 142.72021484 C-43.39646729 142.65552002 -43.95406738 142.5908252 -44.52856445 142.52416992 C-62.52980681 140.36993804 -77.3544713 136.33533278 -92.83886719 126.72021484 Z M-107.83886719 148.72021484 C-97.21031767 162.99283848 -80.11847016 170.3630089 -62.97558594 173.19287109 C-46.98887496 175.07493314 -30.4010444 171.43875734 -16.83886719 162.72021484 C-20.17845865 161.46786805 -22.93531869 161.97248715 -26.39746094 162.45068359 C-38.33331971 163.7684024 -51.72726926 162.77650199 -62.71386719 157.59521484 C-68.00880385 155.22806669 -73.16760806 155.31927986 -78.86889648 155.15112305 C-86.6189415 154.85015826 -93.44913557 153.01596968 -100.83886719 150.72021484 C-103.16942088 150.04341699 -105.50393725 149.38182777 -107.83886719 148.72021484 Z " fill="#23B888" transform="translate(154.8388671875,16.27978515625)"/>
<path d="M0 0 C3.62493334 -0.05787784 7.24974857 -0.0935542 10.875 -0.125 C11.90753906 -0.14175781 12.94007812 -0.15851563 14.00390625 -0.17578125 C14.99003906 -0.18222656 15.97617188 -0.18867187 16.9921875 -0.1953125 C18.35899658 -0.21102295 18.35899658 -0.21102295 19.75341797 -0.22705078 C22 0 22 0 24 2 C24.44869661 5.29243604 24.32408242 8.61797743 24.3125 11.9375 C24.32861328 12.85724609 24.34472656 13.77699219 24.36132812 14.72460938 C24.36229492 16.05008789 24.36229492 16.05008789 24.36328125 17.40234375 C24.36626221 18.21179443 24.36924316 19.02124512 24.37231445 19.85522461 C24 22 24 22 22.76464844 23.76464844 C20.50499021 25.34653425 19.14679605 25.37338822 16.40234375 25.36328125 C15.51869141 25.36263672 14.63503906 25.36199219 13.72460938 25.36132812 C12.80486328 25.34521484 11.88511719 25.32910156 10.9375 25.3125 C9.55208008 25.31733398 9.55208008 25.31733398 8.13867188 25.32226562 C1.26705173 25.26705173 1.26705173 25.26705173 -1 23 C-1.24291992 20.87695312 -1.24291992 20.87695312 -1.23046875 18.28125 C-1.22853516 17.34925781 -1.22660156 16.41726562 -1.22460938 15.45703125 C-1.21236328 14.48121094 -1.20011719 13.50539063 -1.1875 12.5 C-1.18685547 11.52417969 -1.18621094 10.54835938 -1.18554688 9.54296875 C-1.14034598 2.28069196 -1.14034598 2.28069196 0 0 Z " fill="#0D7554" transform="translate(114,93)"/>
<path d="M0 0 C0.91120605 0.01047363 1.82241211 0.02094727 2.76123047 0.03173828 C3.74736328 0.03818359 4.73349609 0.04462891 5.74951172 0.05126953 C7.29832031 0.07640625 7.29832031 0.07640625 8.87841797 0.10205078 C9.91869141 0.11107422 10.95896484 0.12009766 12.03076172 0.12939453 C14.60520889 0.15301331 17.17920009 0.18594929 19.75341797 0.22705078 C21.63861325 3.99744135 20.93817791 8.57859673 20.94091797 12.72705078 C20.95316406 13.70287109 20.96541016 14.67869141 20.97802734 15.68408203 C20.98092773 17.08207031 20.98092773 17.08207031 20.98388672 18.50830078 C20.98799561 19.36488281 20.99210449 20.22146484 20.99633789 21.10400391 C20.75341797 23.22705078 20.75341797 23.22705078 18.75341797 25.22705078 C15.46098193 25.6757474 12.13544054 25.5511332 8.81591797 25.53955078 C7.43629883 25.5637207 7.43629883 25.5637207 6.02880859 25.58837891 C4.70333008 25.5893457 4.70333008 25.5893457 3.35107422 25.59033203 C2.54162354 25.59331299 1.73217285 25.59629395 0.89819336 25.59936523 C-1.24658203 25.22705078 -1.24658203 25.22705078 -3.01123047 23.99169922 C-4.59311628 21.73204099 -4.61997025 20.37384683 -4.60986328 17.62939453 C-4.60921875 16.74574219 -4.60857422 15.86208984 -4.60791016 14.95166016 C-4.59179688 14.03191406 -4.57568359 13.11216797 -4.55908203 12.16455078 C-4.56230469 11.2409375 -4.56552734 10.31732422 -4.56884766 9.36572266 C-4.49724554 0.45451406 -4.49724554 0.45451406 0 0 Z " fill="#0D7554" transform="translate(68.24658203125,92.77294921875)"/>
<path d="M0 0 C3.30583039 2.20388692 3.88814046 3.58984836 4.9375 7.4375 C5.02343984 12.33607114 3.4795076 14.29287585 0.375 17.875 C-3.45870585 19.69096593 -6.99319093 19.18366286 -11 18 C-13.66346536 15.8562352 -14.7026198 14.41541539 -15.40625 11.06640625 C-15.7206953 6.90786714 -15.3257515 5.40290317 -12.625 2.0625 C-8.30381236 -1.33271886 -5.25976828 -1.32275361 0 0 Z " fill="#0D7554" transform="translate(82,72)"/>
<path d="M0 0 C2.86830829 2.01391859 4.61592935 3.45434983 5.48046875 6.93359375 C5.77055907 11.08110127 5.31126311 12.61501668 2.625 15.9375 C-1.15401664 18.90672736 -3.17380821 19.55686828 -8 19 C-11.99062431 16.51527166 -13.68655935 15.03251036 -15.0625 10.5 C-14.99187106 6.54477949 -14.51464223 5.01757067 -12 2 C-7.91125 -1.40729167 -5.05982822 -1.4456652 0 0 Z " fill="#0D7554" transform="translate(130,72)"/>
<path d="M0 0 C3.04474365 0.32916148 4.63608594 0.67130343 6.9375 2.75 C8 5 8 5 7.375 7.5625 C6.10680577 9.8106625 4.94104323 11.32364448 3 13 C2.01 12.67 1.02 12.34 0 12 C0.33 11.01 0.66 10.02 1 9 C-3.29 8.67 -7.58 8.34 -12 8 C-11.67 6.68 -11.34 5.36 -11 4 C-5.555 3.505 -5.555 3.505 0 3 C0 2.01 0 1.02 0 0 Z " fill="#0D7554" transform="translate(103,77)"/>
<path d="M0 0 C-0.33 1.32 -0.66 2.64 -1 4 C3.29 4.33 7.58 4.66 12 5 C12 5.99 12 6.98 12 8 C5.565 8.495 5.565 8.495 -1 9 C-1 10.32 -1 11.64 -1 13 C-3.84383123 11.7251791 -6.13754018 10.54862922 -8 8 C-7.90664164 5.10589098 -6.98479822 3.98175786 -5.125 1.75 C-3 0 -3 0 0 0 Z " fill="#0D7554" transform="translate(99,86)"/>
</svg>
