<?xml version="1.0" encoding="UTF-8"?>
<svg version="1.1" xmlns="http://www.w3.org/2000/svg" width="200" height="200">
<path d="M0 0 C1.14001465 0.00902344 2.2800293 0.01804688 3.45458984 0.02734375 C25.87512232 0.48666324 44.45311407 10.09987703 59.875 26.125 C66.86344551 34.17608928 71.63009069 43.74418425 75.83984375 53.4765625 C76.87605135 55.75321572 77.95924745 57.94138606 79.12890625 60.1484375 C89.30933402 79.3949234 92.8241257 100.17077198 87.625 121.6875 C84.04730354 132.74812498 78.75061004 142.58626902 71.1875 151.4375 C70.424375 152.448125 69.66125 153.45875 68.875 154.5 C63.94202595 159.89185536 57.99438322 164.11763395 52.125 168.4375 C49.23400952 170.56830972 46.62332566 172.86088293 44 175.3125 C25.60678695 191.81275802 5.01912979 195.46063836 -18.765625 194.62402344 C-34.96799544 193.63214755 -50.97588953 185.29128722 -62.8125 174.4375 C-63.85277344 173.51710937 -63.85277344 173.51710937 -64.9140625 172.578125 C-68.82181533 168.9268656 -71.75459431 165.13730103 -74.625 160.625 C-77.45584505 156.19000942 -80.42852178 152.67640489 -84.25 149.0625 C-97.63413377 136.16101183 -106.4806476 117.78120379 -107.24609375 99.10546875 C-107.26961523 96.94544017 -107.27045389 94.7850598 -107.25 92.625 C-107.24170166 91.48643555 -107.23340332 90.34787109 -107.22485352 89.17480469 C-106.80354194 68.11822189 -97.96901012 50.28991052 -83.62890625 35.12890625 C-74.85595043 26.87105976 -64.87709812 21.56793147 -53.6237793 17.65795898 C-48.38113666 15.79015282 -44.06381623 13.23015135 -39.44921875 10.10546875 C-27.56628185 2.58841089 -13.87084671 -0.13235935 0 0 Z M-30.8125 12.4375 C-30.8125 12.7675 -30.8125 13.0975 -30.8125 13.4375 C-30.2548999 13.50219482 -29.6972998 13.56688965 -29.12280273 13.63354492 C-10.71074004 15.8369402 -10.71074004 15.8369402 -2.0625 19.0625 C3.33919751 21.04763856 7.94301965 21.82988083 13.625 22 C30.7216714 22.55975281 44.71047132 28.55198144 59.1875 37.4375 C53.34177025 24.19326853 38.96997471 15.80088419 26.1875 10.4375 C7.46396801 3.33091853 -12.53326647 4.88072189 -30.8125 12.4375 Z M-35.6796875 19.57421875 C-44.42092112 20.43054825 -49.13850858 23.87985417 -54.8125 30.4375 C-62.66325021 40.38261967 -69.50160358 51.79831142 -71.8125 64.4375 C-71.4825 65.4275 -71.1525 66.4175 -70.8125 67.4375 C-70.29042969 66.8084375 -69.76835938 66.179375 -69.23046875 65.53125 C-64.40739052 59.92262662 -59.51023854 55.50952644 -53.4375 51.30078125 C-51.06984656 49.6201701 -48.91330381 47.86964433 -46.75 45.9375 C-46.10933594 45.36902344 -45.46867187 44.80054687 -44.80859375 44.21484375 C-43.42294283 42.98104498 -42.04034028 41.7438175 -40.66015625 40.50390625 C-31.20912449 32.4367194 -19.73773588 26.84471025 -7.8125 23.4375 C-15.52882097 18.29328602 -26.69762864 19.14591894 -35.6796875 19.57421875 Z M17.1875 27.4375 C19.83130772 30.1614231 22.45306047 32.65558013 25.4375 35 C31.50437054 40.11103973 35.9856268 47.0202261 40.25390625 53.64453125 C41.91420349 56.04273838 43.13230206 57.44086267 45.4375 59.125 C57.5407415 69.16372269 65.4172813 86.20129717 68.1875 101.4375 C68.8475 101.1075 69.5075 100.7775 70.1875 100.4375 C74.49951511 87.10585694 75.48401299 70.57162759 70.1875 57.4375 C58.28531505 40.18977234 40.1434728 31.53396689 20.1875 27.4375 C19.1975 27.4375 18.2075 27.4375 17.1875 27.4375 Z M-61.8125 27.4375 C-80.53025293 39.44805813 -93.03658073 53.45455833 -99.75 74.9375 C-104.12598947 95.12175144 -100.35553459 114.91201706 -89.8125 132.4375 C-87.72758239 134.7649101 -87.72758239 134.7649101 -85.8125 136.4375 C-85.88106201 135.83309082 -85.94962402 135.22868164 -86.02026367 134.60595703 C-87.86781446 117.42720816 -88.04200517 100.74173335 -80.75 84.75 C-78.53991068 79.69591977 -78.04875127 74.54964668 -77.375 69.125 C-75.54672143 54.71912183 -70.69771428 40.46331593 -60.8125 29.4375 C-61.3075 28.4475 -61.3075 28.4475 -61.8125 27.4375 Z M-28.8125 38.4375 C-25.43148219 39.56450594 -24.21248256 39.18224009 -20.8125 38.4375 C-4.3403733 37.27906641 9.62298556 39.18625045 25.1875 44.4375 C22.20114056 37.07005281 12.31416411 30.67406361 5.1875 27.4375 C-7.06003385 27.4375 -18.31577731 32.59869801 -28.8125 38.4375 Z M-34.8125 47.4375 C-36.21048828 47.89382812 -36.21048828 47.89382812 -37.63671875 48.359375 C-47.33000461 52.21887626 -52.28940467 61.98376562 -56.6875 70.9375 C-62.59103998 85.21630432 -65.27394976 105.07740231 -60.09375 120.06640625 C-51.73089363 135.54278984 -33.58774624 145.32604158 -17.3125 150.3125 C-11.56431199 151.61296021 -5.86777154 151.71454213 0 151.75 C1.34384766 151.75845947 1.34384766 151.75845947 2.71484375 151.76708984 C11.07201416 151.6750986 16.98065007 150.33382899 23.1484375 144.53515625 C38.07045341 129.18434678 44.84759249 110.79948095 44.66259766 89.58129883 C44.40436245 81.36556708 43.06300965 74.15040548 40.1875 66.4375 C39.74857422 65.13425781 39.74857422 65.13425781 39.30078125 63.8046875 C35.39556639 54.6976647 24.51664262 50.74704461 15.9375 47.0625 C-0.29288346 41.17841051 -18.67937813 41.58509787 -34.8125 47.4375 Z M-61.8125 65.4375 C-63.13965214 66.96997389 -64.42390103 68.53971558 -65.6875 70.125 C-66.73550781 71.43017578 -66.73550781 71.43017578 -67.8046875 72.76171875 C-72.53506076 79.06581541 -73.13280114 82.23202925 -72.33984375 90.0546875 C-71.61802138 94.68504436 -70.39356437 99.03239613 -68.8125 103.4375 C-68.4825 103.4375 -68.1525 103.4375 -67.8125 103.4375 C-67.78671875 102.45652344 -67.7609375 101.47554687 -67.734375 100.46484375 C-67.36051199 90.58276829 -65.69091313 81.89824656 -62.8125 72.4375 C-62.13848159 70.10620949 -61.47565219 67.77191467 -60.8125 65.4375 C-61.1425 65.4375 -61.4725 65.4375 -61.8125 65.4375 Z M48.1875 71.4375 C48.34605469 72.67242187 48.50460938 73.90734375 48.66796875 75.1796875 C51.17820658 97.99922072 49.24835316 120.56575226 34.9375 139.3984375 C34.36 140.07132812 33.7825 140.74421875 33.1875 141.4375 C33.5175 142.0975 33.8475 142.7575 34.1875 143.4375 C45.92166839 136.41893199 56.22052015 128.48975308 63.1875 116.4375 C66.27345803 103.4735232 59.96500841 88.57695877 53.5 77.5625 C52.1279883 75.45171277 50.77460506 73.39165542 49.1875 71.4375 C48.8575 71.4375 48.5275 71.4375 48.1875 71.4375 Z M79.1875 76.4375 C79.10113281 77.55125 79.01476562 78.665 78.92578125 79.8125 C77.95329617 90.83804963 76.48475705 102.44700167 71.15576172 112.35595703 C70.09309145 114.64045696 69.76306908 116.50219759 69.4765625 119 C69.36795898 119.87422607 69.25935547 120.74845215 69.14746094 121.64916992 C69.03692383 122.56931885 68.92638672 123.48946777 68.8125 124.4375 C67.8638922 131.80691777 66.59571079 138.42540094 63.859375 145.35546875 C62.90998234 147.46603712 62.90998234 147.46603712 64.1875 149.4375 C76.8344876 137.06716525 83.16139445 120.24991398 83.60351562 102.79321289 C83.66809339 93.64591895 83.3241979 85.11943169 80.1875 76.4375 C79.8575 76.4375 79.5275 76.4375 79.1875 76.4375 Z M-78.8125 93.4375 C-83.41955093 110.74136391 -84.39034349 131.7434549 -75.046875 147.87890625 C-66.2384212 159.00097292 -50.20399238 163.2655018 -36.8125 165.4375 C-36.1525 165.1075 -35.4925 164.7775 -34.8125 164.4375 C-36.26537661 163.09822279 -37.72497259 161.76623153 -39.1875 160.4375 C-39.99960938 159.695 -40.81171875 158.9525 -41.6484375 158.1875 C-43.60783992 156.22790187 -43.60783992 156.22790187 -45.8125 156.4375 C-46.06644531 155.86773437 -46.32039063 155.29796875 -46.58203125 154.7109375 C-47.95865829 152.16745515 -49.60402332 150.24529437 -51.5 148.0625 C-55.95435156 142.57281267 -58.90670583 136.72856709 -61.89746094 130.35107422 C-62.84839783 128.36242872 -63.84249842 126.40115487 -64.8515625 124.44140625 C-70.03787019 114.35489854 -74.2588364 104.22655075 -77.8125 93.4375 C-78.1425 93.4375 -78.4725 93.4375 -78.8125 93.4375 Z M62.1875 127.4375 C60.9246526 128.90571336 59.67795132 130.38781657 58.4375 131.875 C49.42740983 141.97029913 36.78378729 150.01394633 23.75 153.8125 C19.7475348 155.02471616 16.62692118 156.97418144 13.125 159.25 C5.89116797 163.88685205 -1.70432115 166.68967045 -9.8125 169.4375 C0.07633439 175.59519107 16.43347432 173.79636953 27.1875 171.4375 C38.98198945 168.39510519 47.73214208 164.05103893 54.1875 153.4375 C58.50399246 145.20780134 62.09278264 136.73142699 63.1875 127.4375 C62.8575 127.4375 62.5275 127.4375 62.1875 127.4375 Z M-47.8125 142.4375 C-42.50484335 151.99808665 -32.48281229 161.61679679 -21.90112305 165.05932617 C-18.33512298 165.70499936 -14.95762622 164.548171 -11.5 163.6875 C-10.76587891 163.51734375 -10.03175781 163.3471875 -9.27539062 163.171875 C-4.53215224 162.02710052 -0.24569511 160.47548137 4.1875 158.4375 C4.1875 158.1075 4.1875 157.7775 4.1875 157.4375 C2.7334375 157.39882812 2.7334375 157.39882812 1.25 157.359375 C-14.81435621 156.75630393 -30.94808415 153.66073889 -44.078125 143.72265625 C-45.72054868 142.23904754 -45.72054868 142.23904754 -47.8125 142.4375 Z M-62.8125 164.4375 C-52.7980802 177.88543516 -36.8736838 185.0329233 -20.8125 188.4375 C-17.05018311 188.84569137 -13.34461509 188.91558824 -9.5625 188.875 C-8.56178467 188.86742676 -7.56106934 188.85985352 -6.5300293 188.85205078 C6.67719566 188.56084778 17.64749605 184.88442958 29.1875 178.4375 C29.1875 178.1075 29.1875 177.7775 29.1875 177.4375 C28.59960693 177.4782666 28.01171387 177.5190332 27.40600586 177.56103516 C10.46140319 178.68131215 -6.15035835 179.26857083 -21.8125 171.4375 C-23.59775479 171.34287519 -25.38353299 171.25371028 -27.17041016 171.19750977 C-39.56435088 170.78986853 -50.94652366 167.87401003 -62.8125 164.4375 Z " fill="#1897BB" transform="translate(108.8125,1.5625)"/>
<path d="M0 0 C2.31 0 4.62 0 7 0 C7.3403125 0.9590625 7.3403125 0.9590625 7.6875 1.9375 C8.83177823 4.27087348 8.83177823 4.27087348 11.5 4.5625 C12.7375 4.7790625 12.7375 4.7790625 14 5 C14.66 5.99 15.32 6.98 16 8 C17.97888961 8.72693904 19.97954558 9.39816251 22 10 C23 11 23 11 23.09765625 13.50390625 C23.08605469 14.51324219 23.07445312 15.52257812 23.0625 16.5625 C23.05347656 17.57441406 23.04445312 18.58632812 23.03515625 19.62890625 C23.02355469 20.41136719 23.01195312 21.19382812 23 22 C21.68 21.67 20.36 21.34 19 21 C18.505 17.04 18.505 17.04 18 13 C17.67 13 17.34 13 17 13 C16.67 15.64 16.34 18.28 16 21 C15.01 21.33 14.02 21.66 13 22 C12 21 12 21 11.90234375 18.27734375 C11.91394531 17.17519531 11.92554687 16.07304688 11.9375 14.9375 C11.94652344 13.83277344 11.95554687 12.72804688 11.96484375 11.58984375 C11.97644531 10.73519531 11.98804687 9.88054687 12 9 C11.34 9 10.68 9 10 9 C9.90912109 10.69769531 9.90912109 10.69769531 9.81640625 12.4296875 C9.73200083 13.91147145 9.64735283 15.3932416 9.5625 16.875 C9.52318359 17.62136719 9.48386719 18.36773437 9.44335938 19.13671875 C9.11328125 24.7734375 9.11328125 24.7734375 8 27 C7.01 27 6.02 27 5 27 C5 19.08 5 11.16 5 3 C4.01 3.495 4.01 3.495 3 4 C2.67 11.92 2.34 19.84 2 28 C0.68 27.67 -0.64 27.34 -2 27 C-2 21.06 -2 15.12 -2 9 C-2.66 9 -3.32 9 -4 9 C-4.33 17.91 -4.66 26.82 -5 36 C-9.36568695 35.12686261 -11.42547265 34.34897511 -15 32 C-11.94863313 38.36806998 -7.73626121 42.85938892 -2 47 C4.58471889 49.30778719 12.23469633 47.87698381 19 47 C18.34 48.32 17.68 49.64 17 51 C16.01 51 15.02 51 14 51 C14 51.66 14 52.32 14 53 C8.72 53 3.44 53 -2 53 C-2 52.34 -2 51.68 -2 51 C-3.07314453 50.6596875 -3.07314453 50.6596875 -4.16796875 50.3125 C-7.60492671 48.71964776 -9.66484167 46.69865027 -12.3125 44 C-13.19550781 43.113125 -14.07851562 42.22625 -14.98828125 41.3125 C-17 39 -17 39 -17 37 C-17.66 37 -18.32 37 -19 37 C-19.125 33.625 -19.125 33.625 -19 30 C-17 28 -17 28 -13.9375 27.8125 C-11 28 -11 28 -10 29 C-9.9906543 28.34926514 -9.98130859 27.69853027 -9.97167969 27.02807617 C-9.91800507 24.08044494 -9.8343545 21.13440607 -9.75 18.1875 C-9.72873047 16.65125977 -9.72873047 16.65125977 -9.70703125 15.08398438 C-9.67480469 14.10107422 -9.64257812 13.11816406 -9.609375 12.10546875 C-9.58842773 11.19949951 -9.56748047 10.29353027 -9.54589844 9.36010742 C-9 7 -9 7 -7.21191406 5.1809082 C-5 4 -5 4 -1 4 C-0.67 2.68 -0.34 1.36 0 0 Z " fill="#1897BB" transform="translate(80,71)"/>
<path d="M0 0 C2.31 0 4.62 0 7 0 C7.33 1.32 7.66 2.64 8 4 C8.78375 4.12375 9.5675 4.2475 10.375 4.375 C13 5 13 5 15 7 C15.31884766 9.33837891 15.31884766 9.33837891 15.4140625 12.2265625 C15.45273438 13.2578125 15.49140625 14.2890625 15.53125 15.3515625 C15.5621875 16.43179688 15.593125 17.51203125 15.625 18.625 C15.66367188 19.71296875 15.70234375 20.8009375 15.7421875 21.921875 C15.83666247 24.61441165 15.92222431 27.30693757 16 30 C16.66 29.34 17.32 28.68 18 28 C21.625 28.375 21.625 28.375 25 29 C25.65363351 32.62469492 25.91322229 34.497642 25 38 C20.7417071 43.5752907 15.82719507 48.81579683 9 51 C9 51.66 9 52.32 9 53 C3.72 53 -1.56 53 -7 53 C-7 52.34 -7 51.68 -7 51 C-8.65 50.67 -10.3 50.34 -12 50 C-12 49.01 -12 48.02 -12 47 C-10.865625 47.11859375 -9.73125 47.2371875 -8.5625 47.359375 C1.74842232 48.66061202 1.74842232 48.66061202 11.2890625 45.51171875 C15.63733299 41.66975373 20.13901422 37.58295734 22 32 C21.278125 32.474375 20.55625 32.94875 19.8125 33.4375 C17 35 17 35 12 36 C11.67 27.09 11.34 18.18 11 9 C10.34 8.67 9.68 8.34 9 8 C9 14.27 9 20.54 9 27 C7.68 27.33 6.36 27.66 5 28 C4.01956036 25.05868109 3.88378798 23.17498335 3.90234375 20.11328125 C3.90556641 19.17548828 3.90878906 18.23769531 3.91210938 17.27148438 C3.92048828 16.29501953 3.92886719 15.31855469 3.9375 14.3125 C3.94201172 13.32443359 3.94652344 12.33636719 3.95117188 11.31835938 C3.96295697 8.87884526 3.97940989 6.43945311 4 4 C3.34 4 2.68 4 2 4 C1.67 11.92 1.34 19.84 1 28 C-2.6946276 24.3053724 -2.53697672 21.73676168 -2.6875 16.8125 C-2.72166016 16.06291016 -2.75582031 15.31332031 -2.79101562 14.54101562 C-2.87334294 12.69453162 -2.93835281 10.84729006 -3 9 C-3.99 9.495 -3.99 9.495 -5 10 C-5 13.96 -5 17.92 -5 22 C-6.32 21.67 -7.64 21.34 -9 21 C-10 18 -10 18 -10 14 C-10.99 14.495 -10.99 14.495 -12 15 C-12 16.98 -12 18.96 -12 21 C-13.32 21.33 -14.64 21.66 -16 22 C-16.05416188 20.39620659 -16.09286638 18.79188594 -16.125 17.1875 C-16.14820312 16.29417969 -16.17140625 15.40085937 -16.1953125 14.48046875 C-16 12 -16 12 -14 9 C-11.375 8.8125 -11.375 8.8125 -9 9 C-8.67 7.68 -8.34 6.36 -8 5 C-7.05125 4.9175 -6.1025 4.835 -5.125 4.75 C-1.89538209 4.34925077 -1.89538209 4.34925077 -0.625 1.9375 C-0.41875 1.298125 -0.2125 0.65875 0 0 Z " fill="#1897BB" transform="translate(120,71)"/>
<path d="M0 0 C0.8353125 0.4640625 0.8353125 0.4640625 1.6875 0.9375 C2.491875 0.1640625 2.491875 0.1640625 3.3125 -0.625 C5.6875 -2.0625 5.6875 -2.0625 8.6875 -2.0625 C12.49127801 -0.794574 13.74685151 0.44433271 15.6875 3.9375 C15.60192479 8.05081486 14.90086328 9.68497511 12.21875 12.859375 C11.22076226 13.81523133 10.20990484 14.75780694 9.1875 15.6875 C5.47797495 18.94838841 5.47797495 18.94838841 2.6875 22.9375 C-1.28790392 22.39416461 -3.12029008 20.50280421 -5.875 17.6875 C-6.63941406 16.91921875 -7.40382813 16.1509375 -8.19140625 15.359375 C-13.40091779 9.41112978 -13.40091779 9.41112978 -13.125 4.8125 C-12.3125 1.9375 -12.3125 1.9375 -10.3125 -1.0625 C-6.30701099 -2.397663 -3.79413284 -1.74325022 0 0 Z " fill="#1897BB" transform="translate(102.3125,96.0625)"/>
</svg>
