<?xml version="1.0" encoding="UTF-8"?>
<svg version="1.1" xmlns="http://www.w3.org/2000/svg" width="200" height="200">
<path d="M0 0 C12.86360856 10.16296146 21.65411411 22.64157776 27.61328125 37.890625 C28.85803273 40.86842275 30.307477 43.61089901 31.890625 46.421875 C41.80159252 64.15460866 44.12387553 85.23855738 39.265625 105.046875 C35.68711478 116.11001576 30.38439694 125.93719019 22.828125 134.796875 C22.22871094 135.60253906 21.62929687 136.40820312 21.01171875 137.23828125 C18.50023296 140.18107766 15.67611077 142.39681277 12.578125 144.671875 C8.83019918 147.48607775 5.1417811 150.30018981 1.640625 153.421875 C1.01800781 153.97230469 0.39539063 154.52273437 -0.24609375 155.08984375 C-1.60698388 156.29615001 -2.96332661 157.50759567 -4.31640625 158.72265625 C-22.92441455 174.61506799 -44.33566493 178.27845987 -68.171875 176.796875 C-86.07376828 174.96579753 -104.70724935 163.36815333 -116.171875 149.796875 C-118.28588704 146.93753245 -120.29992381 144.00862421 -122.31396484 141.07836914 C-125.02952033 137.19521832 -127.91125996 133.89005502 -131.359375 130.609375 C-143.82440148 118.63202561 -151.88438044 100.74834602 -152.60546875 83.46484375 C-152.6291583 81.30481701 -152.62998686 79.1444333 -152.609375 76.984375 C-152.60035156 75.84436035 -152.59132812 74.7043457 -152.58203125 73.52978516 C-152.16409775 53.12940621 -144.17918261 34.86477553 -129.82666016 20.36035156 C-120.50248296 11.55066865 -109.33340518 5.55763691 -97.234375 1.421875 C-93.39470158 0.06953719 -90.02842042 -2.00351846 -86.546875 -4.078125 C-59.45519686 -20.12224738 -25.65651877 -17.82053767 0 0 Z M-75.171875 -3.203125 C-75.831875 -2.543125 -76.491875 -1.883125 -77.171875 -1.203125 C-75.62693359 -1.07357422 -75.62693359 -1.07357422 -74.05078125 -0.94140625 C-62.18896344 0.18354237 -51.45283873 3.03655376 -40.171875 6.796875 C-38.323961 6.89009936 -36.47562145 6.9791308 -34.6262207 7.03564453 C-17.26328085 7.61639631 -2.4745619 12.98931827 11.828125 22.796875 C5.62034156 8.88507314 -9.40603087 0.35247586 -22.96875 -5.0546875 C-39.90787032 -11.12798186 -58.63776248 -10.30502568 -75.171875 -3.203125 Z M-84.96484375 4.86328125 C-93.27800744 5.69591927 -98.11933972 11.70434013 -103.171875 17.796875 C-109.4954563 26.28786082 -115.03740701 36.33798187 -117.171875 46.796875 C-116.90687896 49.12995948 -116.90687896 49.12995948 -116.171875 50.796875 C-114.46303495 49.17347695 -112.79740783 47.50368447 -111.171875 45.796875 C-111.171875 45.136875 -111.171875 44.476875 -111.171875 43.796875 C-110.32882813 43.41595703 -110.32882813 43.41595703 -109.46875 43.02734375 C-106.85746839 41.62844289 -104.72321394 39.9746322 -102.421875 38.109375 C-101.53757812 37.39265625 -100.65328125 36.6759375 -99.7421875 35.9375 C-97.55461219 34.11562877 -95.41740587 32.25809302 -93.296875 30.359375 C-81.76279183 20.2526634 -70.08203881 12.7487366 -55.171875 8.796875 C-55.666875 7.806875 -55.666875 7.806875 -56.171875 6.796875 C-65.46455346 3.8217487 -75.36982362 4.6351479 -84.96484375 4.86328125 Z M-57.109375 14.984375 C-58.14771484 15.31731567 -58.14771484 15.31731567 -59.20703125 15.65698242 C-64.55672573 17.43833551 -69.4387508 19.7071967 -74.171875 22.796875 C-70.41838723 24.04803759 -68.07471351 23.38869887 -64.171875 22.796875 C-49.484374 22.02696567 -36.17727368 24.15037803 -22.171875 28.796875 C-25.73972516 24.00576192 -29.71441828 20.35749146 -34.546875 16.859375 C-35.60648438 16.08722656 -36.66609375 15.31507812 -37.7578125 14.51953125 C-44.384865 11.17567524 -50.40518383 12.76246594 -57.109375 14.984375 Z M-29.171875 12.796875 C-28.5325 13.43625 -27.893125 14.075625 -27.234375 14.734375 C-26.77546875 15.1984375 -26.3165625 15.6625 -25.84375 16.140625 C-24.64516971 17.32800361 -23.42348315 18.4922312 -22.1875 19.640625 C-16.99979889 24.57078067 -12.93221226 29.77346787 -8.90576172 35.64233398 C-6.40315502 39.23541061 -3.82851612 42.29607562 -0.609375 45.296875 C10.57507028 55.96663784 16.24688337 70.32979615 20.828125 84.796875 C27.41387404 74.91825144 26.03407037 58.41504947 23.890625 47.234375 C21.94349483 40.6582184 17.73530558 36.40737963 12.828125 31.796875 C12.16296875 31.14847656 11.4978125 30.50007813 10.8125 29.83203125 C-0.06300353 19.73019159 -14.23063988 13.1755699 -29.171875 12.796875 Z M-108.171875 12.796875 C-126.15364645 23.55232708 -139.36737328 38.191533 -145.046875 58.796875 C-149.51454959 79.72002184 -145.7357201 99.82059608 -134.171875 117.796875 C-133.181875 118.456875 -132.191875 119.116875 -131.171875 119.796875 C-131.33042969 118.72566406 -131.48898438 117.65445313 -131.65234375 116.55078125 C-133.6994473 100.00305786 -133.64745228 82.56588235 -126.046875 67.421875 C-124.02376424 63.26587228 -123.61343826 59.09193986 -123.171875 54.546875 C-121.70319447 39.7504426 -116.83148924 26.32062532 -107.171875 14.796875 C-107.666875 13.806875 -107.666875 13.806875 -108.171875 12.796875 Z M-94.171875 40.796875 C-106.29859505 57.28737689 -110.03638702 76.12813758 -107.78125 96.2890625 C-105.60901748 107.01097941 -98.65676961 114.36855241 -90.140625 120.84765625 C-73.24369279 131.94182622 -54.62076988 137.33830293 -34.296875 134.296875 C-22.96323423 131.17694018 -16.3931383 118.66045578 -10.63671875 109.30078125 C-1.92747498 93.50695386 -0.66915975 74.39926709 -5.48657227 57.22070312 C-6.0318877 55.40773023 -6.60109479 53.60199262 -7.171875 51.796875 C-7.40261719 50.90097656 -7.63335937 50.00507812 -7.87109375 49.08203125 C-9.96380691 42.60458576 -14.82463253 39.72846902 -20.59765625 36.5859375 C-41.83149436 25.95741525 -76.38055055 20.84290982 -94.171875 40.796875 Z M-108.171875 50.796875 C-110.64063308 53.34792502 -112.90209295 56.06901902 -115.171875 58.796875 C-116.1309375 59.9415625 -116.1309375 59.9415625 -117.109375 61.109375 C-120.29945521 69.17840142 -117.74062082 77.89186555 -115.171875 85.796875 C-114.841875 85.796875 -114.511875 85.796875 -114.171875 85.796875 C-114.07390625 84.64832031 -113.9759375 83.49976563 -113.875 82.31640625 C-112.96891755 72.61451531 -111.37332322 64.02702441 -108.171875 54.796875 C-107.82091241 53.46807323 -107.47975566 52.13631458 -107.171875 50.796875 C-107.501875 50.796875 -107.831875 50.796875 -108.171875 50.796875 Z M-0.171875 54.796875 C0.828125 56.796875 0.828125 56.796875 0.828125 56.796875 Z M0.828125 56.796875 C1.075625 58.6840625 1.075625 58.6840625 1.328125 60.609375 C3.63313888 84.50694536 -0.1100616 104.91977896 -14.171875 124.796875 C-14.666875 125.786875 -14.666875 125.786875 -15.171875 126.796875 C-3.00316618 122.31706715 8.10196847 111.97561081 14.828125 100.98828125 C18.52709363 92.88233828 14.72793921 82.73635343 11.828125 74.796875 C10.57431692 71.80677075 9.20478488 68.88938248 7.765625 65.984375 C7.4253125 65.29657959 7.085 64.60878418 6.734375 63.90014648 C5.03241023 60.61914582 3.95832079 58.88367219 0.828125 56.796875 Z M30.828125 60.796875 C30.73015625 61.93382813 30.6321875 63.07078125 30.53125 64.2421875 C28.48186004 86.08018298 28.48186004 86.08018298 23.2578125 95.68359375 C21.55349254 99.39491344 21.19920579 102.84736894 20.890625 106.859375 C20.24515431 113.74589508 18.87478756 119.72668621 16.53515625 126.2578125 C15.54783027 128.88786862 15.54783027 128.88786862 16.828125 131.796875 C29.14799418 119.73913069 35.05097932 102.27960777 35.87109375 85.32421875 C35.76954201 76.98774404 34.46582 68.70995999 31.828125 60.796875 C31.498125 60.796875 31.168125 60.796875 30.828125 60.796875 Z M-124.171875 76.796875 C-129.97322546 93.16497094 -128.90405261 112.41476918 -122.109375 128.27734375 C-116.92633895 137.86955977 -105.07228776 142.52700238 -95.203125 145.7734375 C-90.7291773 147.0602988 -86.85047649 147.95618222 -82.171875 147.796875 C-82.81125 147.1575 -83.450625 146.518125 -84.109375 145.859375 C-84.56699219 145.3953125 -85.02460937 144.93125 -85.49609375 144.453125 C-86.7027655 143.26051702 -87.93845694 142.09701683 -89.19140625 140.953125 C-98.9021927 131.83757064 -104.8633 121.24843185 -109.7734375 109.02734375 C-111.05214939 106.07344786 -112.4824799 103.54946773 -114.234375 100.859375 C-117.5766175 95.5872287 -119.26826323 90.04393455 -121.09375 84.1171875 C-121.94672078 81.49028473 -122.84195052 79.2028293 -124.171875 76.796875 Z M13.828125 110.796875 C13.415625 111.29316406 13.003125 111.78945312 12.578125 112.30078125 C1.78803828 124.99358415 -10.28160425 132.37690761 -25.99609375 137.5859375 C-29.75675796 139.0198931 -32.6513866 140.96767817 -35.890625 143.3125 C-42.26073877 147.45743704 -49.82850372 149.96103218 -57.171875 151.796875 C-47.64758062 158.14640459 -32.74382117 156.68507789 -22.046875 154.609375 C-9.65040285 151.63924163 -1.13348864 147.95378694 5.828125 136.921875 C9.81944069 130.27978039 15.68194015 120.28065685 14.44921875 112.36328125 C14.24425781 111.84636719 14.03929687 111.32945312 13.828125 110.796875 Z M-95.171875 124.796875 C-88.44223851 134.28738799 -80.79494461 142.58018903 -70.171875 147.796875 C-61.19025436 148.57875715 -52.21366112 145.6350002 -44.171875 141.796875 C-44.171875 141.466875 -44.171875 141.136875 -44.171875 140.796875 C-45.285625 140.71050781 -46.399375 140.62414062 -47.546875 140.53515625 C-63.87074026 139.10292218 -76.99052039 135.02786591 -91.171875 126.796875 C-92.49899933 126.11793226 -93.82971403 125.44558614 -95.171875 124.796875 Z M-109.171875 146.796875 C-98.14292433 161.1047029 -81.63491969 168.61925221 -64.05859375 171.265625 C-48.04892972 172.9858331 -31.77411247 169.54117052 -18.171875 160.796875 C-22.01885959 159.41196055 -25.19203048 160.22597883 -29.171875 160.796875 C-41.35007031 161.51649563 -53.13694692 160.41873804 -64.484375 155.671875 C-70.06558597 153.46592832 -75.33310022 153.40336795 -81.25024414 153.2277832 C-91.05974727 152.84404491 -99.90786442 149.92698766 -109.171875 146.796875 Z " fill="#B82864" transform="translate(156.171875,18.203125)"/>
<path d="M0 0 C4.41312574 2.12775705 7.47505015 4.79175025 10 9 C10.59995097 11.99471322 10.86715584 14.95122645 11 18 C11.99 18.33 12.98 18.66 14 19 C14.25 26.625 14.25 26.625 12 30 C11.01 30 10.02 30 9 30 C8.731875 30.53625 8.46375 31.0725 8.1875 31.625 C7.5996875 32.800625 7.5996875 32.800625 7 34 C6.38125 35.3921875 6.38125 35.3921875 5.75 36.8125 C3.92894858 40.12941509 1.8582875 42.62349487 -0.6953125 45.38671875 C-2.57438255 47.7102395 -3.02352132 49.51819227 -2.87890625 52.48046875 C-2.77449219 53.37378906 -2.67007813 54.26710937 -2.5625 55.1875 C-2.40974609 56.53908203 -2.40974609 56.53908203 -2.25390625 57.91796875 C-2.17011719 58.60503906 -2.08632812 59.29210937 -2 60 C-1.34 60 -0.68 60 0 60 C0.18175781 59.03900391 0.18175781 59.03900391 0.3671875 58.05859375 C1.35679227 52.95071067 2.48510951 47.97749731 4 43 C6.3125 43.25 6.3125 43.25 10 44 C10.90492187 44.165 11.80984375 44.33 12.7421875 44.5 C15.95614245 45.31840763 18.27208057 46.09527295 21 48 C22.90515731 52.23800299 23.47204202 56.41125886 24 61 C24.18304688 61.81597656 24.36609375 62.63195312 24.5546875 63.47265625 C25 66 25 66 25 73 C4.54 73 -15.92 73 -37 73 C-37 67.5059028 -36.67858598 63.03579187 -35.6875 57.75 C-35.56955078 57.04359375 -35.45160156 56.3371875 -35.33007812 55.609375 C-34.81913373 52.84241458 -34.33912255 50.49507706 -32.734375 48.15234375 C-30.44185204 46.62915845 -28.15648744 45.73113056 -25.5625 44.8125 C-24.61503906 44.46832031 -23.66757813 44.12414062 -22.69140625 43.76953125 C-20 43 -20 43 -16 43 C-15.32844651 45.26949102 -14.6626037 47.5403961 -14 49.8125 C-13.62875 51.07707031 -13.2575 52.34164062 -12.875 53.64453125 C-12 57 -12 57 -12 60 C-11.34 60 -10.68 60 -10 60 C-8.77495073 51.33644448 -8.77495073 51.33644448 -11 43 C-8.36 43 -5.72 43 -3 43 C-3 41.68 -3 40.36 -3 39 C-4.03125 39.0825 -5.0625 39.165 -6.125 39.25 C-10.6996019 38.95486439 -12.52129839 37.92527181 -16 35 C-16.515625 34.0925 -17.03125 33.185 -17.5625 32.25 C-18.036875 31.5075 -18.51125 30.765 -19 30 C-21.5417707 29.83328148 -21.5417707 29.83328148 -24 30 C-26.67927341 25.98108988 -26.15601248 23.75838077 -26 19 C-25.01 18.67 -24.02 18.34 -23 18 C-22.99742188 17.43152344 -22.99484375 16.86304687 -22.9921875 16.27734375 C-22.7097635 10.63827789 -21.48611641 7.56202375 -17.66796875 3.41015625 C-12.42229303 -1.02471245 -6.58343366 -0.71482323 0 0 Z M-15 5 C-14.01 5.495 -14.01 5.495 -13 6 C-12.34 5.67 -11.68 5.34 -11 5 C-5.46867349 4.71874611 -1.24200843 5.25266386 4 7 C-0.09191326 2.76394399 -0.09191326 2.76394399 -5.8125 1.75 C-9.62428913 1.7777726 -11.90532917 2.67899688 -15 5 Z M4 7 C4 7.66 4 8.32 4 9 C4.66 8.67 5.32 8.34 6 8 C5.34 7.67 4.68 7.34 4 7 Z M-20 11 C-19 13 -19 13 -19 13 Z M7 11 C7 16.61 7 22.22 7 28 C7.33 28 7.66 28 8 28 C8.22262606 25.91814549 8.42757926 23.83439574 8.625 21.75 C8.74101563 20.58984375 8.85703125 19.4296875 8.9765625 18.234375 C9.2464834 14.73682839 9.2464834 14.73682839 7 11 Z M-21 15 C-21 16.65 -21 18.3 -21 20 C-20.67 20 -20.34 20 -20 20 C-20 18.35 -20 16.7 -20 15 C-20.33 15 -20.66 15 -21 15 Z M-20 25 C-19 29 -19 29 -19 29 Z " fill="#F378AC" transform="translate(108,58)"/>
</svg>
