<svg width="14" height="14" viewBox="0 0 14 14" fill="none" xmlns="http://www.w3.org/2000/svg">
<path d="M6 1.66659C4.52724 1.66659 3.33333 2.86049 3.33333 4.33325C3.33333 5.80601 4.52724 6.99992 6 6.99992C7.47276 6.99992 8.66667 5.80601 8.66667 4.33325C8.66667 2.86049 7.47276 1.66659 6 1.66659ZM2 4.33325C2 2.12411 3.79086 0.333252 6 0.333252C8.20914 0.333252 10 2.12411 10 4.33325C10 6.54239 8.20914 8.33325 6 8.33325C3.79086 8.33325 2 6.54239 2 4.33325ZM3.33333 10.9999C2.22876 10.9999 1.33333 11.8953 1.33333 12.9999C1.33333 13.3681 1.03486 13.6666 0.666667 13.6666C0.298477 13.6666 0 13.3681 0 12.9999C0 11.159 1.49239 9.66659 3.33333 9.66659H8.66667C10.5076 9.66659 12 11.159 12 12.9999C12 13.3681 11.7015 13.6666 11.3333 13.6666C10.9651 13.6666 10.6667 13.3681 10.6667 12.9999C10.6667 11.8953 9.77124 10.9999 8.66667 10.9999H3.33333Z" fill="#7B7B7B"/>
</svg>
