<?xml version="1.0" encoding="UTF-8"?><svg version="1.1" width="45px" height="45px" viewBox="0 0 45.0 45.0" xmlns="http://www.w3.org/2000/svg" xmlns:xlink="http://www.w3.org/1999/xlink"><defs><clipPath id="i0"><path d="M22.4999228,0 C34.9270216,0 45,10.0743686 45,22.5000772 C45,34.9271761 34.9270216,45 22.4999228,45 C10.0728239,45 0,34.9270216 0,22.5000772 C0,10.0743686 10.0729784,0 22.4999228,0 Z"></path></clipPath><clipPath id="i1"><path d="M11.2809326,0 L11.2809326,4.28344873 L8.38122471,4.28344873 C7.60068859,4.28344873 7.05232065,4.94442518 7.05232065,5.76852179 L7.05232065,7.06081649 L11.1936571,7.06081649 L10.5229491,11.2555995 L7.05093042,11.2555995 L7.05093042,22.4999228 L2.81243242,22.4999228 L2.81243242,11.2555995 L0,11.2555995 L0,7.06081649 L2.81243242,7.06081649 L2.81243242,4.92187259 C2.89553719,2.48341166 3.74203193,0.161729925 7.87224658,0.0154469842 L7.87224658,0 L11.2809326,0 Z"></path></clipPath></defs><g transform="translate(-1203.0 -52.0)"><g transform="translate(1203.0 52.0)"><g clip-path="url(#i0)"><polygon points="0,0 45,0 45,45 0,45 0,0" stroke="none" fill="#3B5898"></polygon></g><g transform="translate(16.85822071337606 11.20632365207899)"><g clip-path="url(#i1)"><polygon points="0,0 11.2809326,0 11.2809326,22.4999228 0,22.4999228 0,0" stroke="none" fill="#FFFFFF"></polygon></g></g></g></g></svg>