<?xml version="1.0" encoding="UTF-8"?><svg version="1.1" width="45px" height="45px" viewBox="0 0 45.0 45.0" xmlns="http://www.w3.org/2000/svg" xmlns:xlink="http://www.w3.org/1999/xlink"><defs><clipPath id="i0"><path d="M22.5,0 C34.9264069,0 45,10.0735931 45,22.5 C45,34.9264069 34.9264069,45 22.5,45 C10.0735931,45 0,34.9264069 0,22.5 C0,10.0735931 10.0735931,0 22.5,0 Z"></path></clipPath><linearGradient id="i1" x1="22.5px" y1="44.8688956px" x2="22.5px" y2="0.349508379px" gradientUnits="userSpaceOnUse"><stop stop-color="#E09B3C" offset="0%"></stop><stop stop-color="#C74C4D" offset="30%"></stop><stop stop-color="#C21975" offset="60%"></stop><stop stop-color="#7024C3" offset="100%"></stop></linearGradient><clipPath id="i2"><path d="M16.148176,0 C19.9262459,0 23,3.07371233 23,6.85182403 L23,16.148176 C23,19.9262877 19.9262877,23 16.148176,23 L6.85182403,23 C3.07371233,23 0,19.9262877 0,16.148176 L0,6.85182403 C0,3.07371233 3.07371233,0 6.85182403,0 L16.148176,0 Z M16.148176,2.31379915 L6.85182403,2.31379915 C4.34556307,2.31379915 2.31379915,4.34552133 2.31379915,6.85182403 L2.31379915,16.148176 C2.31379915,18.6544369 4.34556307,20.6862009 6.85182403,20.6862009 L16.148176,20.6862009 C18.6544369,20.6862009 20.6862009,18.6544369 20.6862009,16.148176 L20.6862009,6.85182403 C20.6862009,4.34552133 18.6544369,2.31379915 16.148176,2.31379915 Z M11.5,5.59459459 C14.7562458,5.59459459 17.4054054,8.24372209 17.4054054,11.4999793 C17.4054054,14.7562365 14.7562458,17.4054054 11.5,17.4054054 C8.24375423,17.4054054 5.59459459,14.756195 5.59459459,11.4999793 C5.59459459,8.24376352 8.24375423,5.59459459 11.5,5.59459459 Z M11.5,7.89159349 C9.50715306,7.89159349 7.89158543,9.50712535 7.89158543,11.5000207 C7.89158543,13.4929161 9.50711162,15.1084479 11.5,15.1084479 C13.4928469,15.1084479 15.1084146,13.4928747 15.1084146,11.5000207 C15.1084146,9.50712535 13.4928884,7.89159349 11.5,7.89159349 Z M17.5608108,4.35135135 C18.3332631,4.35135135 18.9594595,4.97754768 18.9594595,5.75 C18.9594595,6.52245232 18.3332631,7.14864865 17.5608108,7.14864865 C16.7883585,7.14864865 16.1621622,6.52245232 16.1621622,5.75 C16.1621622,4.97754768 16.7883585,4.35135135 17.5608108,4.35135135 Z"></path></clipPath></defs><g transform="translate(-1313.0 -52.0)"><g transform="translate(1313.0 52.0)"><g clip-path="url(#i0)"><polygon points="0,0 45,0 45,45 0,45 0,0" stroke="none" fill="url(#i1)"></polygon></g><g transform="translate(11.0 11.0)"><g clip-path="url(#i2)"><polygon points="0,0 23,0 23,23 0,23 0,0" stroke="none" fill="#FFFFFF"></polygon></g></g></g></g></svg>