<svg width="40" height="36" viewBox="0 0 40 36" fill="none" xmlns="http://www.w3.org/2000/svg">
<path d="M20 3.05529C15.2884 -1.16621 8.04251 -1.01307 3.51472 3.51472C-1.17157 8.20101 -1.17157 15.799 3.51472 20.4853L17.1716 34.1421C18.7337 35.7042 21.2663 35.7042 22.8284 34.1421L36.4853 20.4853C41.1716 15.799 41.1716 8.20101 36.4853 3.51472C31.9575 -1.01307 24.7117 -1.16621 20 3.05529ZM17.6569 6.34315L18.5858 7.27208C19.3668 8.05313 20.6332 8.05313 21.4142 7.27208L22.3431 6.34315C25.4673 3.21895 30.5327 3.21895 33.6569 6.34315C36.7811 9.46734 36.7811 14.5327 33.6569 17.6569L20 31.3137L6.34315 17.6569C3.21895 14.5327 3.21895 9.46734 6.34315 6.34315C9.46734 3.21895 14.5327 3.21895 17.6569 6.34315Z" fill="#115786"/>
</svg>
