<svg width="40" height="38" viewBox="0 0 40 38" fill="none" xmlns="http://www.w3.org/2000/svg">
<path d="M18.6713 0.505181C19.4291 -0.168394 20.571 -0.168394 21.3287 0.505181L39.3288 16.5052C40.1543 17.239 40.2287 18.5032 39.4948 19.3287C38.761 20.1543 37.4969 20.2287 36.6713 19.4948L36 18.8981V34C36 36.2091 34.2092 38 32 38H8.00002C5.79088 38 4.00002 36.2091 4.00002 34V18.8981L3.32875 19.4948C2.50318 20.2287 1.23904 20.1543 0.505203 19.3287C-0.228633 18.5032 -0.154272 17.239 0.671294 16.5052L18.6713 0.505181ZM8.00002 15.3426V34H14V24C14 22.8954 14.8955 22 16 22H24C25.1046 22 26 22.8954 26 24V34H32V15.3426L20 4.67591L8.00002 15.3426ZM22 34V26H18V34H22Z" fill="#115786"/>
</svg>
