<svg width="14" height="14" viewBox="0 0 14 14" fill="none" xmlns="http://www.w3.org/2000/svg">
<path d="M7.00016 1.66683C4.05464 1.66683 1.66683 4.05464 1.66683 7.00016C1.66683 9.94568 4.05464 12.3335 7.00016 12.3335C9.94568 12.3335 12.3335 9.94568 12.3335 7.00016C12.3335 4.05464 9.94568 1.66683 7.00016 1.66683ZM0.333496 7.00016C0.333496 3.31826 3.31826 0.333496 7.00016 0.333496C10.6821 0.333496 13.6668 3.31826 13.6668 7.00016C13.6668 10.6821 10.6821 13.6668 7.00016 13.6668C3.31826 13.6668 0.333496 10.6821 0.333496 7.00016ZM4.19543 4.19543C4.45577 3.93508 4.87788 3.93508 5.13823 4.19543L7.00016 6.05735L8.86209 4.19543C9.12244 3.93508 9.54455 3.93508 9.8049 4.19543C10.0653 4.45577 10.0653 4.87788 9.8049 5.13823L7.94297 7.00016L9.8049 8.86209C10.0653 9.12244 10.0653 9.54455 9.8049 9.8049C9.54455 10.0653 9.12244 10.0653 8.86209 9.8049L7.00016 7.94297L5.13823 9.8049C4.87788 10.0653 4.45577 10.0653 4.19543 9.8049C3.93508 9.54455 3.93508 9.12244 4.19543 8.86209L6.05735 7.00016L4.19543 5.13823C3.93508 4.87788 3.93508 4.45577 4.19543 4.19543Z" fill="#FF3C3C"/>
</svg>
