<svg width="491" height="295" viewBox="0 0 491 295" fill="none" xmlns="http://www.w3.org/2000/svg">
<g clip-path="url(#clip0_659_3583)">
<rect width="491" height="295" fill="white"/>
<path d="M256.064 295C385.816 295 491 284.044 491 270.53C491 257.015 385.816 246.059 256.064 246.059C126.313 246.059 21.1284 257.015 21.1284 270.53C21.1284 284.044 126.313 295 256.064 295Z" fill="#D9D9D9"/>
<path d="M167.666 186.801C167.666 186.801 93.8694 65.3113 61.6212 86.5529C29.373 107.795 129.129 157.018 149.49 193.064L167.668 186.804L167.666 186.801Z" fill="#78DCEA"/>
<path d="M133.325 165.128C133.325 165.128 48.3882 75.131 19.2444 100.751C-9.89942 126.372 92.5796 147.541 116.287 174.581L133.328 165.128H133.325Z" fill="#A7F3F8"/>
<path d="M146.705 203.041L147.398 201.966C146.923 201.659 98.7348 171.453 0.00244141 171.24V172.52C98.3618 172.73 146.233 202.737 146.705 203.041Z" fill="#53BCD6"/>
<path d="M84.4973 166.275C97.2639 154.297 99.3583 144.959 99.4409 144.568L98.1885 144.302C98.1699 144.395 96.0621 153.671 83.6206 165.344L84.4973 166.275Z" fill="#53BCD6"/>
<path d="M82.5362 180.125C86.0563 173.609 85.5127 164.337 80.964 153.315C77.5585 145.06 73.0579 138.624 73.0126 138.56L71.9653 139.295C72.1412 139.545 89.5017 164.532 81.4064 179.515L82.5335 180.122L82.5362 180.125Z" fill="#53BCD6"/>
<path d="M56.5154 178.451C58.037 177.122 58.8577 176.263 58.8924 176.223L57.9571 175.347C57.7865 175.531 40.5086 193.61 14.4399 193.378L14.4292 194.656C35.435 194.842 50.845 183.394 56.5128 178.445L56.5154 178.451Z" fill="#53BCD6"/>
<path d="M44.3483 208.301C50.152 201.548 51.7082 194.89 51.9907 190.496C52.2998 185.71 51.2312 182.558 51.1859 182.425L49.9735 182.843C50.0161 182.965 54.0025 195.106 43.373 207.47L44.3457 208.303L44.3483 208.301Z" fill="#53BCD6"/>
<path d="M319.713 13.3093H314.2V21.231H319.713V13.3093Z" fill="#062C59"/>
<path d="M326.545 9.29253C326.545 4.16048 322.38 0 317.243 0C312.105 0 307.94 4.16048 307.94 9.29253C307.94 14.4246 312.105 18.5851 317.243 18.5851C322.38 18.5851 326.545 14.4246 326.545 9.29253Z" fill="#062C59"/>
<path d="M321.893 9.29265C321.893 6.06116 319.271 3.44189 316.036 3.44189C312.801 3.44189 310.179 6.06116 310.179 9.29265C310.179 12.5241 312.801 15.1434 316.036 15.1434C319.271 15.1434 321.893 12.5241 321.893 9.29265Z" fill="#0B3E6C"/>
<path d="M318.063 9.08918C319.131 8.91605 319.856 7.91108 319.683 6.84452C319.509 5.77795 318.503 5.05368 317.436 5.22681C316.368 5.39994 315.643 6.4049 315.816 7.47147C315.99 8.53803 316.996 9.26231 318.063 9.08918Z" fill="#115786"/>
<path d="M361.346 193.729V257.83C361.346 258.886 360.488 259.741 359.433 259.741H333.474V246.027C333.474 246.027 344.066 238.787 344.809 238.603C345.553 238.417 353.728 193.729 353.728 193.729H361.346Z" fill="#062C59"/>
<path d="M358.002 193.73V234.994C358.002 245.718 350.858 254.412 342.046 254.412H339.368C339.133 254.412 338.904 254.444 338.688 254.497C338.225 254.62 337.814 254.862 337.484 255.189C337.002 255.674 336.703 256.339 336.703 257.074C336.703 258.312 337.545 259.352 338.688 259.653C338.907 259.709 339.133 259.738 339.368 259.738H256.331V254.409H259.685C268.498 254.409 275.642 245.716 275.642 234.991V193.727H357.999L358.002 193.73Z" fill="#062C59"/>
<path d="M338.686 259.656C338.904 259.712 339.131 259.741 339.365 259.741H257.01C256.776 259.741 256.546 259.712 256.331 259.656C255.187 259.355 254.343 258.317 254.343 257.076C254.343 256.342 254.641 255.676 255.124 255.192C255.451 254.864 255.867 254.622 256.331 254.5C256.549 254.444 256.776 254.415 257.01 254.415H339.365C339.131 254.415 338.902 254.446 338.686 254.5C338.222 254.622 337.812 254.864 337.481 255.192C336.999 255.676 336.701 256.342 336.701 257.076C336.701 258.314 337.543 259.355 338.686 259.656Z" fill="#062C59"/>
<path d="M462.194 208.839L180.397 205.61C174.364 205.541 169.512 200.635 169.512 194.609V22.7965C169.512 16.786 174.34 11.8882 180.357 11.7977L458.52 7.54405C464.579 7.45089 469.575 12.2688 469.698 18.3219L473.333 197.616C473.458 203.827 468.414 208.911 462.197 208.839H462.194Z" fill="#115786"/>
<path d="M449.708 35.0752H183.398C180.135 35.0752 177.49 37.7173 177.49 40.9765V179.09C177.49 182.349 180.135 184.991 183.398 184.991H449.708C452.971 184.991 455.615 182.349 455.615 179.09V40.9765C455.615 37.7173 452.971 35.0752 449.708 35.0752Z" fill="#78DCEA"/>
<path d="M306.483 269.303C306.483 269.303 298.11 260.691 300.991 255.788C303.871 250.885 308.734 266.321 308.734 266.321C308.734 266.321 306.214 248.066 311.436 247.75C316.659 247.433 311.436 266.321 311.436 266.321C311.436 266.321 313.371 261.916 315.263 261.644C317.152 261.373 316.614 265.379 313.238 269.3H306.485L306.483 269.303Z" fill="#A7F3F8"/>
<path d="M307.08 269.518C306.686 269.111 297.458 259.515 300.805 253.819C301.332 252.919 301.977 252.512 302.694 252.586C305.148 252.863 307.834 259.297 309.228 263.135C308.767 258.33 308.244 248.846 310.856 245.66C311.418 244.973 312.105 244.601 312.897 244.553C313.686 244.526 314.304 244.779 314.784 245.373C317.142 248.282 315.021 258.645 313.856 263.492C314.725 262.076 315.953 260.497 317.214 260.314C317.808 260.236 318.28 260.449 318.546 260.939C319.316 262.339 318.272 265.922 315.191 269.505L314.725 269.103C317.755 265.584 318.575 262.275 318.005 261.237C317.864 260.976 317.643 260.865 317.296 260.928C315.679 261.16 313.787 264.703 313.195 266.052L312.617 265.845C312.665 265.682 317.152 249.28 314.304 245.766C313.976 245.365 313.571 245.165 313.059 245.165C313.017 245.165 312.977 245.168 312.934 245.168C312.311 245.205 311.788 245.498 311.33 246.054C308.018 250.089 310.134 265.73 310.155 265.887L309.558 266.023C308.466 262.549 305.089 253.483 302.622 253.204C302.158 253.137 301.734 253.454 301.335 254.138C298.222 259.435 307.424 268.999 307.52 269.095L307.077 269.526L307.08 269.518Z" fill="#062C59"/>
<path d="M217.549 253.334C217.549 253.334 209.176 244.723 212.057 239.82C214.937 234.916 219.8 250.353 219.8 250.353C219.8 250.353 217.28 232.098 222.502 231.781C227.725 231.464 222.502 250.353 222.502 250.353C222.502 250.353 224.437 245.947 226.329 245.676C228.221 245.404 227.68 249.41 224.304 253.331H217.551L217.549 253.334Z" fill="#A7F3F8"/>
<path d="M218.148 253.55C217.754 253.142 208.526 243.546 211.873 237.85C212.4 236.948 213.056 236.508 213.762 236.618C216.216 236.894 218.902 243.325 220.293 247.166C219.832 242.362 219.31 232.878 221.924 229.691C222.486 229.005 223.174 228.632 223.965 228.584C224.749 228.549 225.372 228.813 225.849 229.404C228.21 232.313 226.089 242.673 224.922 247.52C225.791 246.104 227.019 244.531 228.279 244.345C228.876 244.265 229.348 244.481 229.612 244.97C230.382 246.371 229.337 249.959 226.257 253.536L225.791 253.134C228.82 249.615 229.641 246.307 229.071 245.269C228.93 245.008 228.703 244.893 228.365 244.96C226.747 245.191 224.855 248.734 224.264 250.084L223.685 249.876C223.733 249.714 228.221 233.309 225.37 229.793C225.018 229.359 224.557 229.175 224.003 229.199C223.379 229.236 222.857 229.529 222.398 230.085C219.089 234.126 221.202 249.762 221.223 249.919L220.626 250.055C219.534 246.581 216.158 237.515 213.693 237.235C213.224 237.211 212.806 237.485 212.406 238.169C209.293 243.464 218.495 253.031 218.591 253.126L218.148 253.558V253.55Z" fill="#062C59"/>
<path d="M409.172 259.97C409.172 259.97 400.8 251.359 403.68 246.456C406.561 241.553 411.424 256.989 411.424 256.989C411.424 256.989 408.903 238.734 414.126 238.417C419.349 238.1 414.126 256.989 414.126 256.989C414.126 256.989 416.06 252.583 417.952 252.312C419.844 252.04 419.303 256.046 415.927 259.967H409.175L409.172 259.97Z" fill="#A7F3F8"/>
<path d="M409.769 260.188C409.375 259.781 400.147 250.185 403.494 244.489C404.022 243.586 404.664 243.155 405.383 243.256C407.837 243.533 410.523 249.964 411.914 253.805C411.453 249 410.931 239.516 413.543 236.33C414.105 235.643 414.792 235.271 415.584 235.223C416.378 235.18 416.988 235.452 417.47 236.042C419.829 238.949 417.707 249.312 416.543 254.159C417.412 252.743 418.643 251.164 419.901 250.981C420.489 250.909 420.966 251.117 421.233 251.606C422.003 253.006 420.958 256.595 417.878 260.175L417.412 259.773C420.441 256.254 421.265 252.94 420.692 251.902C420.551 251.641 420.332 251.526 419.986 251.593C418.366 251.825 416.474 255.373 415.882 256.72L415.304 256.512C415.352 256.35 419.839 239.945 416.991 236.428C416.639 235.997 416.178 235.824 415.621 235.835C415 235.872 414.475 236.165 414.017 236.721C410.707 240.757 412.82 256.398 412.842 256.555L412.245 256.69C411.152 253.217 407.776 244.148 405.311 243.871C404.85 243.836 404.424 244.121 404.024 244.805C400.909 250.1 410.113 259.666 410.209 259.762L409.767 260.193L409.769 260.188Z" fill="#062C59"/>
<path d="M60.2113 262.864C60.2113 262.864 51.8388 254.253 54.7194 249.349C57.5999 244.446 62.463 259.882 62.463 259.882C62.463 259.882 59.9422 241.627 65.165 241.311C70.3878 240.994 65.165 259.882 65.165 259.882C65.165 259.882 67.0996 255.477 68.9915 255.205C70.8808 254.934 70.3425 258.94 66.9663 262.861H60.214L60.2113 262.864Z" fill="#A7F3F8"/>
<path d="M60.8084 263.082C60.414 262.674 51.1862 253.078 54.533 247.382C55.0606 246.485 55.7028 246.072 56.4223 246.15C58.8765 246.426 61.5625 252.857 62.9535 256.699C62.4925 251.894 61.9702 242.41 64.5816 239.223C65.1439 238.537 65.8313 238.164 66.6228 238.116C67.4142 238.09 68.0297 238.345 68.5094 238.936C70.8676 241.845 68.7465 252.205 67.582 257.053C68.4507 255.636 69.6818 254.058 70.9396 253.874C71.5258 253.794 72.0081 254.01 72.2719 254.5C73.0394 255.903 71.9948 259.491 68.9171 263.068L68.4507 262.666C71.4805 259.147 72.3012 255.833 71.731 254.795C71.5924 254.534 71.3713 254.42 71.0248 254.487C69.4047 254.718 67.5128 258.266 66.9212 259.613L66.343 259.406C66.3909 259.243 70.8783 242.841 68.0297 239.327C67.678 238.893 67.225 238.734 66.6601 238.731C66.0392 238.768 65.5142 239.061 65.0559 239.617C61.7464 243.653 63.8595 259.294 63.8808 259.451L63.2839 259.587C62.1914 256.113 58.8152 247.044 56.3503 246.767C55.8867 246.741 55.463 247.017 55.0633 247.701C51.9483 252.996 61.1521 262.563 61.2481 262.658L60.8057 263.09L60.8084 263.082Z" fill="#1973A0"/>
<path d="M101.887 265.001H97.4985V217.221L100.382 220.394L101.887 265.001Z" fill="#0B3E6C"/>
<path d="M112.866 267.62C112.866 267.62 93.1977 267.971 86.6399 268.022C85.9151 268.027 85.3955 267.032 85.3955 266.31C85.3955 265.586 86.4534 264.729 87.1782 264.732C93.6001 264.767 112.866 265.001 112.866 265.001C113.591 265.001 114.177 265.586 114.177 266.31C114.177 267.034 113.591 267.62 112.866 267.62Z" fill="#0B3E6C"/>
<path d="M86.3362 269.973C86.576 268.536 87.8364 267.623 89.294 267.623C90.7516 267.623 92.2518 268.584 92.2518 270.04C92.2518 271.853 90.4158 273.13 88.9582 273.13C87.5006 273.13 86.0324 271.786 86.3362 269.973Z" fill="#0B3E6C"/>
<path d="M107.315 269.973C107.555 268.536 108.815 267.623 110.273 267.623C111.731 267.623 113.231 268.584 113.231 270.04C113.231 271.853 111.395 273.13 109.937 273.13C108.48 273.13 107.011 271.786 107.315 269.973Z" fill="#0B3E6C"/>
<path d="M90.9435 220.165C90.9435 220.165 90.2374 223.287 97.4987 224.296C104.76 225.305 107.888 220.165 107.888 220.165H90.9435Z" fill="#0B3E6C"/>
<path d="M111.555 207.13C111.632 198.356 107.198 171.088 94.6926 168.772C89.7843 167.865 72.4184 165.623 70.0815 173.069C66.1004 185.755 76.8978 217.218 76.8978 217.218C76.8978 217.218 77.8731 220.561 81.4278 220.937C84.9825 221.309 128.417 222.568 128.843 220.937C130.53 214.516 117.745 208.924 111.555 207.13Z" fill="#062C59"/>
<path d="M140.93 267.099C140.93 267.099 141.13 271.491 144.133 272.67C147.136 273.849 155.783 274.789 152.62 277.68C150.806 279.338 142.068 278.47 139.609 278.521C137.149 278.571 134.86 279.689 132.998 278.084C130.948 276.317 132.774 267.266 132.774 267.266C132.774 267.266 134.919 268.328 136.829 268.238C139.579 268.11 140.933 267.099 140.933 267.099H140.93Z" fill="#0B3E6C"/>
<path d="M190.406 264.575C190.406 264.575 190.654 268.965 193.67 270.112C196.684 271.256 205.342 272.106 202.211 275.031C200.412 276.711 191.666 275.936 189.207 276.013C186.747 276.09 184.472 277.235 182.59 275.646C180.523 273.9 182.249 264.831 182.249 264.831C182.249 264.831 184.408 265.869 186.313 265.76C189.063 265.603 190.403 264.575 190.403 264.575H190.406Z" fill="#0B3E6C"/>
<path d="M188.397 268.209C193.478 267.631 197.212 263.159 196.86 258.062C194.877 229.255 189.308 209.895 179.566 197.893C173.307 190.182 160.476 182.18 140.491 182.981C130.437 183.383 127.714 179.58 117.383 179.864C100.534 180.328 103.806 182.737 103.806 182.737C93.4776 209.962 113.489 211.732 128.132 211.192C128.614 211.173 129.102 211.16 129.59 211.149C138.466 210.944 154.355 211.833 161.052 220.085C166.354 226.62 170.461 236.08 174.005 261.088C174.684 265.888 179.057 269.279 183.877 268.73L188.399 268.217L188.397 268.209Z" fill="#1973A0"/>
<path d="M148.922 271.041C162.179 243.568 168.033 218.331 158.288 206.328C152.029 198.617 143.145 193.155 131.884 190.091C123.847 187.906 114.531 186.942 104.2 187.227C87.3515 187.693 79.6425 186.317 79.6425 186.317C68.9597 220.947 117.982 209.571 132.134 222.715C138.301 228.443 129.973 238.196 130.898 266.494C131.055 271.339 146.702 275.643 148.925 271.041H148.922Z" fill="#1973A0"/>
<path d="M163.237 222.933L163.045 222.92C163.647 214.489 159.764 210.055 157.396 208.165L157.518 208.013C159.916 209.93 163.847 214.415 163.237 222.936V222.933Z" fill="#062C59"/>
<path d="M134.24 156.9C132.036 150.664 126.968 143.45 126.917 143.378L134.224 138.217C137.285 136.053 141.52 136.995 143.422 140.221C145.325 143.45 147.534 147.619 148.978 151.705C150.638 156.408 152.216 138.254 151.027 131.799L160.705 126.877C162.227 130.668 166.754 154.47 163.89 163.113C157.505 182.369 139.023 170.436 134.24 156.898V156.9Z" fill="#FFB27D"/>
<path d="M148.237 147.456C148.237 147.456 145.732 136.053 132.585 130.934C132.579 130.934 132.574 130.929 132.569 130.926C130.221 129.744 128.009 128.432 125.483 127.894C71.1447 116.297 71.0141 200.515 78.1315 202.131C113.516 210.159 147.688 191.015 143.955 182.34C139.582 165.45 139.217 160.792 141.714 155.455C142.527 153.717 144.285 153.48 146.529 150.975C147.939 149.399 148.24 147.459 148.24 147.459L148.237 147.456Z" fill="#115786"/>
<path d="M143.156 117.404L138.535 124.878L136.028 128.935L135.764 129.364L134.884 130.785C134.29 131.749 134.727 132.331 134.874 133.617C134.932 134.139 135.385 137.36 132.723 136.883C129.408 136.287 125.787 131.357 125.483 127.899C125.499 127.905 129.142 128.64 130.504 127.548L134.717 124.173L135.942 123.188L143.153 117.406L143.156 117.404Z" fill="#FFB27D"/>
<path d="M136.076 128.408L136.028 128.935L135.764 129.364L134.884 130.785C133.136 128.69 133.384 125.469 133.384 125.469L136.076 128.408Z" fill="#0B3E6C"/>
<path d="M151.709 123.103C151.709 123.103 150.577 124.998 148.277 126.481C145.975 127.963 148.757 121.402 148.757 121.402L151.712 123.1L151.709 123.103Z" fill="#062C59"/>
<path d="M147.954 127.252C151.168 123.134 151.001 117.637 147.582 114.974C144.163 112.311 138.785 113.491 135.571 117.61C132.357 121.728 132.524 127.225 135.943 129.888C139.362 132.55 144.74 131.371 147.954 127.252Z" fill="#FFB27D"/>
<path d="M137.363 115.572L140.31 118C140.957 118.532 141.813 118.764 142.636 118.588C144.051 118.288 146.313 118.612 147.68 122.31C149.506 127.247 154.563 124.673 156.575 123.372C158.63 122.043 158.174 119.27 155.778 118.466C153.383 117.662 156.058 116.387 154.747 114.636C152.301 111.364 149.543 113.012 147.286 110.582C144.328 107.393 136.507 104.169 133.648 112.165L137.36 115.57L137.363 115.572Z" fill="#0B3E6C"/>
<path d="M142.335 122.451C142.382 122.461 142.433 122.451 142.473 122.419C142.54 122.363 142.55 122.262 142.494 122.195C142.462 122.155 141.78 121.162 140.464 121.623C140.381 121.652 140.336 121.74 140.363 121.822C140.389 121.905 140.475 121.932 140.562 121.924C141.439 121.838 142.223 122.365 142.249 122.397C142.273 122.424 142.303 122.443 142.335 122.451Z" fill="#062C59"/>
<path d="M146.803 126.308C146.833 126.329 146.875 126.332 146.921 126.313C146.995 126.281 147.043 126.193 147.03 126.119C147.022 126.076 146.934 125.014 145.759 125.094C145.684 125.099 145.612 125.166 145.599 125.248C145.583 125.331 145.636 125.376 145.706 125.389C146.393 125.533 146.756 126.204 146.761 126.238C146.766 126.268 146.782 126.292 146.803 126.308Z" fill="#062C59"/>
<path d="M133.651 112.168C133.651 112.168 131.457 118.005 133.776 120.944C133.776 120.944 134.738 115.777 141.064 118.445C141.064 118.445 137.629 113.659 133.653 112.165L133.651 112.168Z" fill="#062C59"/>
<path d="M135.108 118.091C135.305 119.012 136.134 119.616 136.96 119.438C137.786 119.259 138.292 118.37 138.095 117.449C137.898 116.528 137.069 115.924 136.243 116.102C135.42 116.278 134.911 117.17 135.108 118.091Z" fill="#FFB27D"/>
<path d="M149.977 111.122C148.597 111.122 148.29 109.892 148.288 109.879C148.269 109.796 148.32 109.711 148.402 109.695C148.477 109.668 148.57 109.722 148.589 109.81C148.602 109.857 148.887 111.018 150.382 110.776C150.39 110.773 150.401 110.773 150.409 110.773C150.483 110.773 150.55 110.829 150.561 110.901C150.577 110.989 150.518 111.069 150.433 111.082C150.267 111.109 150.116 111.125 149.974 111.125L149.977 111.122Z" fill="#0B3E6C"/>
<path d="M153.913 122.56C151.885 122.56 149.473 121.229 149.337 121.154L149.391 121.064C149.433 121.085 153.793 123.491 155.685 121.908C156.22 121.46 156.468 121.053 156.441 120.664C156.399 120.042 155.653 119.57 154.992 119.153C154.891 119.091 154.792 119.027 154.699 118.966L154.757 118.876C154.851 118.937 154.949 119.001 155.051 119.062C155.733 119.493 156.503 119.978 156.548 120.657C156.577 121.082 156.319 121.519 155.754 121.99C155.256 122.408 154.608 122.56 153.915 122.56H153.913Z" fill="white"/>
<path d="M151.595 113.443C150.894 113.443 147.872 113.235 145.349 109.876L145.437 109.815C147.931 113.134 150.907 113.337 151.592 113.337C151.68 113.337 151.731 113.334 151.733 113.334L151.744 113.438C151.744 113.438 151.685 113.446 151.592 113.446L151.595 113.443Z" fill="white"/>
<path d="M139.99 123.96C139.897 124.173 140.025 124.434 140.275 124.546C140.528 124.657 140.808 124.578 140.901 124.365C140.995 124.152 140.867 123.891 140.616 123.779C140.363 123.667 140.083 123.747 139.99 123.96Z" fill="#062C59"/>
<path d="M143.609 126.587C143.515 126.8 143.643 127.061 143.894 127.173C144.147 127.285 144.427 127.205 144.52 126.992C144.613 126.779 144.485 126.518 144.235 126.406C143.984 126.294 143.702 126.374 143.609 126.587Z" fill="#062C59"/>
<path d="M139.987 129.081C139.761 129.422 139.302 129.513 138.961 129.286C138.62 129.06 138.529 128.602 138.756 128.262C138.982 127.921 139.441 127.83 139.782 128.057C140.123 128.283 140.214 128.741 139.987 129.081Z" fill="white"/>
<path d="M157.374 119.089C156.087 116.831 155.205 116.371 155.205 116.371C155.205 116.371 150.569 112.631 150.164 114.092C149.758 115.554 153.819 118.769 153.819 118.769C153.819 118.769 147.949 114.758 148.013 116.262C148.077 117.766 152.559 120.782 152.559 120.782C152.559 120.782 146.947 117.268 147.062 119.014C147.176 120.76 150.744 122.352 150.337 123.814C150.302 123.939 147.104 120.782 147.275 123.241C147.342 124.221 148.546 126.571 148.546 126.571C148.525 126.891 148.927 127.46 149.132 127.753C150.049 129.065 150.497 129.922 151.03 131.802L160.708 126.88C160.708 126.88 159.018 121.969 157.377 119.091L157.374 119.089Z" fill="#FFB27D"/>
<path d="M155.664 121.16C155.611 121.16 155.56 121.125 155.547 121.069C155.171 119.68 153.775 118.881 153.759 118.873C153.7 118.839 153.681 118.767 153.713 118.706C153.745 118.644 153.82 118.623 153.881 118.658C153.942 118.692 155.381 119.515 155.784 121.005C155.802 121.072 155.762 121.139 155.696 121.155C155.685 121.157 155.674 121.157 155.664 121.157V121.16Z" fill="#0B3E6C"/>
<path d="M154.291 123.036C154.238 123.036 154.19 123.002 154.174 122.948C153.713 121.351 152.53 120.899 152.516 120.896C152.452 120.872 152.421 120.803 152.444 120.739C152.466 120.678 152.532 120.633 152.602 120.667C152.655 120.686 153.915 121.16 154.411 122.879C154.43 122.946 154.392 123.012 154.328 123.031C154.315 123.034 154.304 123.034 154.294 123.034L154.291 123.036Z" fill="#0B3E6C"/>
<path d="M151.24 133.713C151.174 133.713 151.12 133.66 151.118 133.596C151.118 133.569 150.984 130.62 149.948 129.132C149.042 127.841 146.622 123.747 147.259 122.709C147.443 122.405 147.656 122.24 147.907 122.198C148.424 122.099 148.954 122.549 149.588 123.055L149.612 123.076C150.51 123.798 151.653 124.729 151.653 124.729L151.501 124.915C151.501 124.915 150.358 123.984 149.46 123.262L149.434 123.244C148.893 122.81 148.418 122.427 148.037 122.427C148.008 122.427 147.979 122.429 147.949 122.435C147.771 122.467 147.614 122.597 147.467 122.831C146.974 123.638 148.981 127.322 150.15 128.991C151.23 130.532 151.358 133.46 151.363 133.585C151.366 133.652 151.315 133.708 151.246 133.71H151.24V133.713Z" fill="#0B3E6C"/>
<path d="M135.169 194.84C135.169 194.84 143.091 195.149 146.039 198.729C148.986 202.309 150.044 209.107 147.744 207.276C145.444 205.445 143.155 202.293 143.155 202.293C143.155 202.293 147.733 209.254 145.639 209.618C143.544 209.983 139.625 203.89 139.625 203.89C139.625 203.89 144.41 212.608 142.321 212.312C140.232 212.017 136.643 205.37 136.643 205.37C136.643 205.37 140.77 213.656 138.354 213.257C135.934 212.858 134.988 206.387 132.894 206.752C130.799 207.116 122.363 207.856 120.639 202.165L135.172 194.84H135.169Z" fill="#FFB27D"/>
<path d="M142.998 202.368C142.988 202.346 142.015 200.273 140.688 200.055L140.744 199.714C142.252 199.964 143.267 202.131 143.307 202.221L142.998 202.368Z" fill="#0B3E6C"/>
<path d="M139.465 203.962C139.457 203.941 138.532 201.886 136.651 201.172L136.773 200.853C138.791 201.617 139.742 203.733 139.779 203.824L139.467 203.962H139.465Z" fill="#0B3E6C"/>
<path d="M136.486 205.442C136.472 205.415 135.321 202.948 133.893 202.836L133.92 202.495C135.548 202.623 136.744 205.186 136.795 205.295L136.483 205.442H136.486Z" fill="#0B3E6C"/>
<path d="M113.913 146.368C113.703 147.893 108.701 148.46 102.745 147.637C96.7897 146.815 92.1318 144.909 92.3423 143.386C92.5528 141.861 97.5545 141.294 103.51 142.119C109.466 142.942 114.124 144.848 113.913 146.37V146.368Z" fill="#0B3E6C"/>
<path d="M121.862 204.074C104.197 194.265 97.4291 180.974 94.9643 169.738C91.7773 155.199 94.6712 144.834 94.8177 144.315C94.8177 144.315 96.0408 142.809 103.561 144.177C110.262 145.398 110.649 146.982 110.649 146.982C110.622 147.078 106.905 181.035 135.167 194.84C135.167 194.84 125.694 206.201 121.862 204.074Z" fill="#FFB27D"/>
<path d="M113.913 146.469H113.892C113.838 146.455 113.804 146.402 113.82 146.346C113.831 146.298 114.963 141.443 114.379 137.948C114.371 137.892 114.406 137.844 114.462 137.833C114.523 137.826 114.566 137.857 114.574 137.913C115.163 141.448 114.022 146.343 114.012 146.394C114.001 146.439 113.961 146.466 113.916 146.466L113.913 146.469Z" fill="#0B3E6C"/>
<path d="M103.342 182.249C103.044 182.249 102.705 182.122 102.348 181.863C101.844 181.507 101.352 180.932 100.957 180.253C100.563 179.577 100.315 178.861 100.256 178.246C100.192 177.575 100.363 177.085 100.736 176.87C101.104 176.657 101.615 176.753 102.164 177.144C102.668 177.501 103.161 178.076 103.555 178.754C104.408 180.226 104.507 181.714 103.779 182.138C103.648 182.209 103.502 182.249 103.342 182.249ZM101.173 177.165C101.085 177.165 101.005 177.186 100.938 177.224C100.715 177.352 100.613 177.711 100.661 178.206C100.715 178.765 100.944 179.417 101.309 180.051C101.674 180.681 102.127 181.211 102.585 181.533C102.99 181.826 103.347 181.909 103.577 181.784C104.024 181.523 103.982 180.298 103.206 178.957C102.841 178.326 102.388 177.796 101.93 177.474C101.645 177.269 101.381 177.165 101.173 177.165Z" fill="#0B3E6C"/>
<path d="M160.439 126.129C160.439 126.129 160.178 123.901 160.178 121.849C160.178 119.797 161.364 118.024 160.178 117.404C158.992 116.784 157.409 119.991 157.457 121.5C157.505 123.01 160.439 126.132 160.439 126.132V126.129Z" fill="#FFB27D"/>
<path d="M148.445 162.094C148.368 162.094 148.293 162.049 148.258 161.971C148.205 161.849 147.011 158.937 149.356 151.851C149.391 151.745 149.495 151.683 149.615 151.723C149.721 151.758 149.777 151.872 149.743 151.976C147.456 158.892 148.621 161.785 148.632 161.812C148.677 161.915 148.629 162.035 148.525 162.078C148.498 162.088 148.472 162.091 148.445 162.091V162.094Z" fill="#0B3E6C"/>
<path d="M146.449 53.4181C145.962 26.5999 169.494 7.67676 196.082 7.19496C234.587 6.49756 248.206 28 248.694 54.8182C249.181 81.6364 219.012 101.185 192.421 101.664C165.832 102.146 146.934 80.2336 146.449 53.4154V53.4181Z" fill="#1973A0"/>
<path d="M138.815 96.6172C138.815 96.6172 155.597 93.6919 156.493 76.7917L169.893 86.3026C169.893 86.3026 163.863 101.925 138.815 96.6172Z" fill="#1973A0"/>
<path d="M190.912 107.355C181.039 107.355 171.83 104.249 164.215 98.3502C159.866 101.792 151.834 105.218 138.098 102.292L136.784 102.016L138.106 101.784C138.234 101.763 150.729 99.4495 154.512 88.0009C148.829 79.6746 145.722 69.5995 145.524 58.8429C145.295 46.1193 150.534 34.3352 160.276 25.6576C169.637 17.3207 182.116 12.5985 195.413 12.359C213.506 12.0262 227.224 16.5967 236.169 25.9318C243.945 34.0451 248.025 45.5896 248.291 60.2378C248.518 72.7139 242.096 84.6177 230.206 93.7478C219.432 102.021 205.059 107.105 191.765 107.35C191.482 107.353 191.197 107.358 190.915 107.358L190.912 107.355ZM164.209 97.6847L164.372 97.8125C171.924 103.724 181.085 106.834 190.912 106.834C191.189 106.834 191.469 106.834 191.749 106.826C204.939 106.586 219.195 101.542 229.886 93.3326C241.64 84.3062 247.99 72.5515 247.766 60.2431C247.502 45.7306 243.473 34.3086 235.791 26.2885C227.251 17.3766 214.276 12.8594 197.217 12.8594C196.623 12.8594 196.026 12.8674 195.421 12.878C182.249 13.1149 169.888 17.7892 160.62 26.0462C150.992 34.6174 145.815 46.2604 146.044 58.835C146.236 69.5329 149.338 79.5522 155.011 87.8119L155.083 87.9157L155.043 88.0382C151.893 97.7779 142.633 101.121 139.356 102.018C152.357 104.488 159.94 101.137 164.047 97.8178L164.207 97.6847H164.209Z" fill="#0B3E6C"/>
<path d="M212.925 91.7275C211.713 91.7275 210.543 91.3708 209.44 90.6574C208.201 89.8589 207.444 88.7649 207.191 87.3993C206.637 84.4234 208.579 80.561 210.834 77.0873C210.082 77.066 209.259 76.9462 208.361 76.688C207.604 78.0802 206.44 79.3312 204.921 80.3348C201.766 82.411 197.891 82.8289 195.501 81.3356C194.478 80.6968 193.748 79.4457 193.132 77.83C192.524 78.1041 191.88 78.3277 191.203 78.5007C188.701 79.1502 186.649 78.4635 185.713 76.68C184.975 75.2666 185.093 73.4698 185.905 71.9446C184.73 70.9278 183.92 69.5383 183.523 67.856C182.311 68.2792 181.154 68.6492 180.104 68.9607C180.051 69.1417 179.995 69.3227 179.936 69.4957C179.014 72.2454 177.549 74.0102 175.915 74.3349C174.658 74.5958 173.387 74.0075 172.158 72.6021C169.651 69.7326 168.891 66.8232 170.016 64.4089C170.418 63.5464 171.039 62.7878 171.852 62.133C171.383 61.4143 171.103 60.6211 171.047 59.8172C170.924 58.0657 171.857 56.4366 173.674 55.2042C172.862 54.8821 172.033 54.5999 171.212 54.3231C167.663 53.1226 164.308 51.986 163.255 47.6152C162.728 45.4165 163.183 43.4308 164.153 41.8151C162.264 39.2943 162.344 37.0184 162.834 35.4373C163.935 31.9023 167.697 29.5918 170.844 29.1393C173.448 28.764 175.644 29.5918 176.859 31.4152C177.392 32.2137 177.863 33.0922 178.271 34.0238C180.208 33.3876 182.121 33.3956 183.87 34.0345C184.858 32.4959 186.244 31.535 187.488 30.9361C187.472 30.8935 187.456 30.8535 187.44 30.8136C187.078 29.8207 186.582 28.0772 187.328 27.5555C188.152 26.9859 190.355 27.0764 192.207 28.1278C192.764 28.4446 193.46 28.9503 194.078 29.7329C197.891 29.9059 201.579 31.3859 203.141 33.723C203.82 34.7452 204.254 36.1506 204.377 37.7664C204.971 37.5747 205.539 37.3698 206.077 37.1515C206.589 34.7026 207.756 32.4586 209.152 31.5696C209.869 31.1144 210.586 31.0665 211.228 31.4285C212.326 32.0514 212.326 32.9058 212.225 33.3583C211.921 34.7638 209.832 36.4541 206.815 37.7477C206.655 38.6474 206.591 39.5818 206.663 40.4841C206.711 41.1017 206.829 41.7911 207.071 42.4672C209.669 42.2489 212.289 42.744 214.18 43.9712C214.41 43.7662 214.633 43.5825 214.844 43.4228C217.503 41.3625 220.901 40.3617 222.59 41.1469C223.198 41.4317 223.547 41.9455 223.571 42.5923C223.624 43.9472 222.897 45.2089 221.524 46.1432C220.395 46.9152 218.769 47.4742 216.848 47.6232C217.245 49.1192 217.17 50.8627 216.6 52.702C218.369 54.5254 219.59 57.3523 220.04 60.834C222.324 60.4321 223.877 60.8234 224.269 61.9467C224.642 63.0194 224.493 64.156 223.84 65.2287C223.051 66.5197 221.61 67.667 219.64 68.604C218.878 71.7742 217.325 74.6277 214.783 76.1024C214.007 76.5549 213.035 76.9249 211.849 77.0474C209.547 80.5131 207.476 84.3994 208.004 87.2449C208.217 88.3922 208.832 89.2759 209.882 89.9547C211.233 90.8225 212.622 91.086 214.138 90.7533C217.506 90.0212 221.38 86.2654 225.655 79.5868C231.909 69.8151 242.309 66.1417 249.933 64.7789C258.827 63.1818 268.5 63.991 275.175 66.8738C275.389 66.9643 275.485 67.2118 275.394 67.4221C275.301 67.6297 275.053 67.7282 274.845 67.6377C268.311 64.8161 258.822 64.0415 250.082 65.5987C242.621 66.9323 232.45 70.5205 226.361 80.0366C221.897 87.0054 217.959 90.7772 214.314 91.5678C213.842 91.6716 213.376 91.7248 212.915 91.7248L212.925 91.7275ZM193.889 77.46C194.448 78.9426 195.096 80.1005 195.943 80.6276C198.067 81.9532 201.568 81.5432 204.46 79.6373C205.811 78.7456 206.855 77.6463 207.548 76.4245C206.146 75.9214 204.58 75.0882 202.84 73.8185C202.053 73.2462 201.278 72.7272 200.516 72.2613C199.823 72.5196 199.122 72.7298 198.421 72.9029C197.273 74.9205 195.757 76.4431 193.889 77.4573V77.46ZM186.58 72.461C185.948 73.7174 185.865 75.1601 186.457 76.2914C187.206 77.7288 188.861 78.2372 190.995 77.6942C191.645 77.5238 192.263 77.3082 192.847 77.042C192.495 76.0066 192.173 74.8567 191.842 73.6429C190.001 73.6349 188.77 73.4698 188.73 73.4618C187.933 73.2249 187.211 72.8895 186.577 72.461H186.58ZM192.708 73.6349C192.999 74.6943 193.292 75.7271 193.604 76.6614C195.075 75.8336 196.308 74.665 197.292 73.1557C195.647 73.4752 194.059 73.6029 192.708 73.6349ZM208.731 75.9241C209.658 76.1743 210.548 76.2674 211.391 76.2461C212.289 74.9126 213.203 73.6562 214.013 72.5515C214.319 72.1309 214.609 71.7316 214.879 71.359C215.19 70.9224 215.43 70.4859 215.603 70.052C214.346 70.3821 212.981 70.6563 211.521 70.8639C210.658 70.981 209.898 70.997 209.221 70.9304C209.227 71.1327 209.243 71.3324 209.277 71.5347C209.515 73.0466 209.315 74.5399 208.734 75.9214L208.731 75.9241ZM216.581 69.7752C216.384 70.4619 216.054 71.1514 215.553 71.8461C215.286 72.2214 214.993 72.6207 214.684 73.0439C214.007 73.9703 213.25 75.011 212.494 76.1051C213.155 75.9667 213.781 75.7271 214.367 75.3837C216.539 74.122 217.93 71.745 218.681 69.0352C218.028 69.3014 217.325 69.5516 216.579 69.7778L216.581 69.7752ZM201.478 71.8701C202.075 72.256 202.693 72.6793 203.332 73.1451C204.939 74.319 206.477 75.1601 207.926 75.6712C208.475 74.4068 208.665 73.0413 208.449 71.6704C208.403 71.3723 208.382 71.0768 208.382 70.7893C207.17 70.4912 206.285 69.863 205.624 69.0485C204.422 70.2863 202.991 71.2019 201.481 71.8727L201.478 71.8701ZM172.35 62.7985C171.652 63.3681 171.119 64.0256 170.775 64.7656C169.797 66.8604 170.511 69.4504 172.79 72.0564C173.805 73.217 174.804 73.728 175.753 73.5177C177.061 73.2595 178.327 71.6624 179.14 69.2481C176.912 69.8896 175.353 70.241 175.167 70.2836C174.94 70.3368 174.716 70.1904 174.666 69.9668C174.615 69.7406 174.759 69.5196 174.983 69.4691C175.036 69.4558 176.845 69.0458 179.43 68.2819C179.665 67.3848 179.83 66.4212 179.912 65.447C178.143 65.6307 176.414 65.3751 174.863 64.6564C173.85 64.1879 172.995 63.5438 172.353 62.7985H172.35ZM187.011 71.7503C187.571 72.1362 188.205 72.437 188.908 72.65C188.93 72.65 189.996 72.7964 191.616 72.8177C191.317 71.7237 191.008 70.611 190.667 69.5223C189.588 69.7193 188.639 70.1585 187.848 70.8399C187.528 71.1141 187.248 71.4229 187.011 71.7529V71.7503ZM191.509 69.4132C191.866 70.5604 192.183 71.7103 192.484 72.8124C194.03 72.7884 195.927 72.6393 197.859 72.1948C198.051 71.8381 198.227 71.4734 198.389 71.0928C195.831 69.847 193.481 69.2588 191.509 69.4105V69.4132ZM199.136 71.4761C199.072 71.6252 199.002 71.7716 198.936 71.918C199.149 71.8567 199.365 71.7902 199.578 71.721C199.431 71.6385 199.282 71.5586 199.136 71.4788V71.4761ZM199.455 70.6802C199.834 70.8825 200.22 71.1008 200.614 71.3404C202.277 70.6696 203.852 69.7113 205.134 68.3511C204.342 67.0415 203.961 65.423 203.679 63.9164C202.736 64.1533 201.75 64.3264 200.716 64.4382C200.577 66.6156 200.18 68.7477 199.455 70.6829V70.6802ZM184.323 67.5792C184.661 69.0804 185.356 70.3155 186.358 71.2285C186.63 70.8559 186.947 70.5125 187.304 70.2037C187.901 69.69 188.914 69.0299 190.409 68.7211C190.044 67.6297 189.636 66.5783 189.156 65.6094C187.56 66.3494 185.908 67.0095 184.323 67.5792ZM192.197 68.5401C193.915 68.5401 196.066 68.9953 198.707 70.2969C199.37 68.5001 199.74 66.5277 199.879 64.51C199.802 64.5127 199.722 64.5207 199.647 64.5233C197.113 64.683 194.992 64.2412 193.22 63.416C192.189 64.0735 191.064 64.6831 189.897 65.2527C190.417 66.3041 190.854 67.4328 191.243 68.588C191.547 68.5561 191.864 68.5401 192.197 68.5401ZM209.269 70.1026C209.893 70.1744 210.594 70.1585 211.399 70.0414C213.011 69.8124 214.511 69.4957 215.873 69.1071C216.184 67.4407 215.654 65.7105 214.809 63.6928C212.041 65.2687 209.656 67.5632 209.269 70.1052V70.1026ZM206.165 68.4389C206.714 69.147 207.441 69.6794 208.441 69.9509C208.878 67.0548 211.513 64.5766 214.474 62.9182C214.322 62.5722 214.167 62.2155 214.002 61.8562C213.586 60.9219 213.149 59.9423 212.728 58.8962C211.628 59.9929 210.33 61.0017 208.843 61.8562C208.697 63.3734 208.299 64.8321 207.644 66.1657C207.226 67.0175 206.727 67.7708 206.162 68.4416L206.165 68.4389ZM215.545 63.2909C216.382 65.282 216.962 67.0761 216.763 68.8355C217.541 68.5827 218.268 68.3085 218.934 68.005C219.371 65.9767 219.478 63.8206 219.31 61.8508C218.103 62.1569 216.8 62.6494 215.547 63.2936L215.545 63.2909ZM180.762 65.3219C180.696 66.2322 180.555 67.1346 180.355 67.9997C181.293 67.7122 182.308 67.3822 183.358 67.0122C183.289 66.533 183.249 66.0353 183.241 65.5189C183.235 65.2074 183.243 64.8907 183.265 64.5713C182.433 64.9146 181.594 65.1648 180.762 65.3219ZM204.484 63.6955C204.75 65.1436 205.07 66.565 205.685 67.7016C206.141 67.132 206.549 66.4958 206.893 65.7957C207.423 64.7177 207.772 63.5518 207.945 62.3353C206.877 62.873 205.72 63.3362 204.481 63.6955H204.484ZM220.133 61.6672C220.301 63.5385 220.227 65.5828 219.867 67.5472C221.386 66.746 222.505 65.8117 223.126 64.7922C223.653 63.9271 223.773 63.062 223.48 62.2182C223.243 61.5421 221.932 61.3318 220.131 61.6672H220.133ZM184.139 64.172C184.091 64.6245 184.072 65.0717 184.08 65.5056C184.088 65.9261 184.117 66.3361 184.168 66.7274C185.682 66.1763 187.251 65.5508 188.762 64.8507C188.24 63.9191 187.64 63.0833 186.937 62.3885C186.723 62.5403 186.51 62.6946 186.294 62.8544C185.591 63.3654 184.871 63.8073 184.141 64.172H184.139ZM173.027 62.306C173.586 62.9369 174.33 63.4879 175.209 63.8978C176.662 64.5713 178.274 64.8108 179.955 64.6005C180.003 63.1312 179.851 61.6725 179.443 60.4188C176.803 60.637 174.604 61.2918 173.027 62.3087V62.306ZM187.619 61.9094C188.346 62.6521 188.964 63.5358 189.503 64.4994C190.497 64.0176 191.459 63.5065 192.351 62.9608C191.253 62.3246 190.323 61.5261 189.551 60.6264C188.938 61.0123 188.293 61.4383 187.619 61.9067V61.9094ZM180.307 60.3602C180.688 61.6139 180.84 63.03 180.805 64.4595C181.658 64.2864 182.516 64.0043 183.363 63.6156C183.502 62.6281 183.752 61.6326 184.112 60.669C183.467 60.464 182.764 60.3495 181.991 60.3362C181.41 60.3229 180.853 60.3362 180.304 60.3602H180.307ZM194.054 62.857C195.616 63.4959 197.478 63.8046 199.594 63.6875C199.706 63.6795 199.815 63.6742 199.922 63.6662C199.999 61.5687 199.839 59.4419 199.498 57.4348C198.84 57.2778 198.094 57.2299 197.228 57.3443C197.526 58.835 197.038 60.3549 195.85 61.4356C195.309 61.928 194.704 62.4018 194.051 62.857H194.054ZM200.388 57.7196C200.681 59.6202 200.82 61.6139 200.756 63.5864C201.72 63.4799 202.645 63.3095 203.527 63.0859C203.519 63.0487 203.514 63.0087 203.508 62.9715C203.191 61.1721 202.893 59.4658 202.093 58.7977C201.587 58.3718 201.036 57.9965 200.391 57.7196H200.388ZM184.885 60.9591C184.621 61.6752 184.418 62.4098 184.283 63.1472C184.794 62.8623 185.3 62.5403 185.796 62.1782C185.964 62.0558 186.129 61.9387 186.292 61.8216C185.86 61.4808 185.394 61.1934 184.885 60.9591ZM200.223 56.7534C201.158 57.0622 201.931 57.5706 202.629 58.1562C203.66 59.0239 203.969 60.7861 204.329 62.8277C204.329 62.8384 204.332 62.8517 204.334 62.865C205.677 62.4657 206.917 61.9493 208.046 61.3371C208.26 57.9326 207.156 54.2379 204.857 51.0836C204.609 50.7456 204.353 50.4208 204.092 50.1121C203.095 50.0428 202.093 49.9869 201.102 49.931C200.564 49.8991 200.023 49.8725 199.485 49.8379C199.25 50.0562 199.002 50.2718 198.741 50.4847C198.765 51.1236 198.893 51.8183 199.149 52.5716C199.583 53.8573 199.951 55.2707 200.228 56.7534H200.223ZM213.365 58.2201C213.823 59.3913 214.308 60.4773 214.767 61.5101C214.919 61.8508 215.07 62.1862 215.214 62.5163C216.541 61.8455 217.9 61.3398 219.134 61.031L219.222 61.0097C218.825 57.8687 217.788 55.3027 216.288 53.5911C215.667 55.1669 214.684 56.7587 213.368 58.2201H213.365ZM190.281 60.1765C191.067 61.0683 192.029 61.8482 193.169 62.4444C193.95 61.928 194.664 61.385 195.288 60.818C196.255 59.9396 196.649 58.6992 196.402 57.4827C194.789 57.8288 192.802 58.6539 190.281 60.1739V60.1765ZM174.586 55.5981C174.487 55.6673 174.386 55.7339 174.285 55.8004C172.63 56.8705 171.777 58.2733 171.878 59.7613C171.924 60.4108 172.15 61.0523 172.526 61.6432C174.178 60.5652 176.44 59.8651 179.132 59.6069C178.889 59.0719 178.588 58.5901 178.223 58.1801C177.181 57.0089 175.926 56.2183 174.588 55.5981H174.586ZM185.199 60.1898C185.857 60.4853 186.452 60.8713 186.993 61.3265C187.704 60.8287 188.381 60.3788 189.031 59.9689C188.333 59.0133 187.8 57.9645 187.432 56.8812C186.505 57.7942 185.753 58.9441 185.199 60.1925V60.1898ZM205.235 50.1972C205.336 50.3303 205.435 50.4608 205.534 50.5939C207.828 53.7375 208.987 57.4055 208.904 60.8473C210.245 60.0248 211.412 59.0692 212.4 58.0417C211.806 56.4606 211.268 54.7304 210.903 52.7872C210.78 52.1297 210.73 51.5015 210.74 50.9053C208.992 50.5619 207.13 50.349 205.235 50.1999V50.1972ZM181.501 59.4951C181.668 59.4951 181.836 59.4978 182.007 59.5031C182.892 59.5164 183.696 59.6548 184.429 59.8917C185.09 58.4011 186.012 57.0355 187.168 55.9921C187.027 55.4331 186.926 54.8715 186.867 54.3098C186.865 54.2832 186.862 54.2539 186.859 54.2299C185.026 54.2113 183.001 54.0037 180.762 53.5485C179.534 53.2983 178.45 52.9922 177.49 52.6488C176.872 53.5565 176.153 54.3497 175.337 55.0285C176.614 55.6567 177.815 56.4632 178.849 57.6238C179.334 58.1695 179.721 58.819 180.016 59.5377C180.499 59.5111 180.994 59.4951 181.501 59.4951ZM188.114 56.2716C188.466 57.4188 189.012 58.5262 189.753 59.5217C192.349 57.9486 194.43 57.0701 196.138 56.6842C196.124 56.6522 196.111 56.6256 196.098 56.5963C195.384 55.119 193.878 54.3284 192.266 54.6026C191.629 54.7064 190.942 54.8794 190.217 55.119C189.452 55.3719 188.749 55.7685 188.114 56.2689V56.2716ZM211.574 51.0836C211.574 51.5761 211.622 52.0951 211.721 52.6328C212.043 54.355 212.51 55.9069 213.029 57.339C214.228 55.9362 215.105 54.4243 215.638 52.931C214.911 52.2735 214.095 51.7943 213.208 51.5202C212.678 51.3578 212.131 51.2114 211.572 51.0836H211.574ZM198.182 56.4393C198.589 56.4393 198.973 56.4712 199.333 56.5324C199.074 55.2255 198.741 53.9824 198.355 52.8431C198.152 52.2469 198.019 51.6559 197.955 51.081C195.608 52.7446 192.298 54.1075 187.699 54.222C187.741 54.6132 187.803 55.0099 187.891 55.4038C188.522 54.946 189.212 54.576 189.956 54.3311C190.72 54.0782 191.453 53.8892 192.133 53.7801C194.126 53.4607 195.973 54.4189 196.852 56.237C196.9 56.3355 196.943 56.4313 196.983 56.5324C197.406 56.4712 197.806 56.4419 198.182 56.4419V56.4393ZM164.721 42.5071C163.959 43.9046 163.628 45.5816 164.068 47.4183C165.011 51.3365 168.007 52.3533 171.479 53.5272C172.481 53.8679 173.499 54.2113 174.487 54.6345C175.321 53.9957 176.057 53.2291 176.685 52.3374C172.68 50.6844 171.143 48.2967 170.575 46.4573C168.798 45.7892 167.125 44.8203 165.686 43.492C165.326 43.162 165.003 42.8319 164.718 42.5045L164.721 42.5071ZM177.951 51.9221C178.863 52.2389 179.856 52.5104 180.93 52.7287C183.091 53.1705 185.047 53.3755 186.811 53.3915C186.771 51.4749 187.216 49.4972 188.237 47.8974C187.11 47.4156 186.105 46.8034 185.266 46.0208C184.648 46.3242 183.971 46.5878 183.238 46.8167C182.145 47.1601 180.928 47.4076 179.641 47.5434C179.273 49.1751 178.705 50.6418 177.951 51.9221ZM189.039 48.2115C188.04 49.6915 187.605 51.5654 187.645 53.3835C192.359 53.269 195.653 51.7997 197.907 50.0695C197.91 49.9577 197.915 49.8459 197.926 49.7367C194.718 49.5105 191.61 49.1431 189.039 48.2115ZM211.62 50.2318C212.249 50.3756 212.861 50.5353 213.458 50.719C214.348 50.9958 215.172 51.4483 215.915 52.0632C216.352 50.4528 216.374 48.9408 215.99 47.6631C214.948 47.6898 213.757 47.5647 212.552 47.2958C212.089 48.1423 211.74 49.1272 211.62 50.2345V50.2318ZM171.583 46.8007C172.425 48.8397 174.33 50.4847 177.157 51.6213C177.863 50.4554 178.404 49.1112 178.764 47.6126C176.456 47.759 173.949 47.5327 171.583 46.8007ZM204.497 49.3029C206.655 49.4546 208.79 49.6702 210.794 50.0588C210.922 48.9435 211.26 47.9506 211.713 47.0829C211.004 46.8806 210.285 46.625 209.557 46.3083C208.001 45.6322 207.071 44.5328 206.525 43.3563C205.419 43.508 204.326 43.8088 203.314 44.248C202.949 45.161 202.485 46.0687 201.918 46.9444C202.829 47.6046 203.695 48.3952 204.497 49.3029ZM200.279 49.05C200.569 49.0686 200.86 49.0819 201.15 49.0979C201.859 49.1405 202.57 49.1777 203.282 49.223C202.698 48.6294 202.083 48.097 201.446 47.6365C201.115 48.0917 200.729 48.5682 200.279 49.05ZM198.877 48.9675C198.976 48.9754 199.072 48.9781 199.17 48.9861C199.807 48.3685 200.329 47.7483 200.753 47.1707C200.497 47.0083 200.236 46.8539 199.975 46.7129C199.493 47.3278 199.082 48.0757 198.877 48.9701V48.9675ZM189.567 47.5327C191.986 48.3606 194.925 48.6933 198.043 48.9116C198.235 47.9852 198.627 47.1201 199.21 46.3349C197.361 45.5017 195.397 45.1929 193.468 45.4778C191.781 45.7253 190.497 46.4839 189.567 47.5327ZM186.049 45.6082C186.811 46.2683 187.715 46.7954 188.727 47.216C189.785 45.9063 191.304 44.9481 193.348 44.6499C195.512 44.3225 197.718 44.6978 199.767 45.6721C200.209 45.2036 200.724 44.7724 201.315 44.3837C201.739 44.1069 202.184 43.8594 202.648 43.6411C203.253 42.0147 203.54 40.375 203.562 38.879C202.109 39.2756 200.545 39.5658 198.93 39.7095C197.137 39.8666 195.56 39.4913 194.166 38.8018C193.092 40.1195 191.432 41.2028 189.282 41.9561C188.869 43.3616 187.739 44.6233 186.047 45.6109L186.049 45.6082ZM213.013 46.5425C213.938 46.7342 214.831 46.8273 215.673 46.8353C215.385 46.2337 214.996 45.7067 214.5 45.2622C214.42 45.1929 214.338 45.1237 214.255 45.0545C213.831 45.4778 213.402 45.9755 213.013 46.5452V46.5425ZM171.268 45.8265C173.773 46.6942 176.467 46.9578 178.948 46.7714C179.201 45.4352 179.31 44.0271 179.281 42.6136C177.418 42.1771 175.835 41.3679 174.884 40.1221C174.381 39.4646 173.786 39.0201 173.147 38.7459C171.639 40.737 170.855 43.1167 171.164 45.2542C171.191 45.4485 171.226 45.6375 171.271 45.8238L171.268 45.8265ZM214.873 44.4796C214.935 44.5328 214.999 44.586 215.06 44.6419C215.729 45.2435 216.238 45.9755 216.579 46.814C218.431 46.6996 219.987 46.1832 221.055 45.4538C222.18 44.6872 222.779 43.6837 222.739 42.6296C222.726 42.2889 222.566 42.0599 222.241 41.9082C221.007 41.3279 217.956 42.0759 215.361 44.0856C215.206 44.2027 215.044 44.3358 214.876 44.4822L214.873 44.4796ZM180.115 42.7813C180.134 44.1069 180.032 45.4245 179.811 46.6889C180.944 46.5532 182.015 46.3242 182.985 46.0208C183.576 45.8345 184.133 45.6215 184.648 45.3846C184.059 44.7085 183.579 43.9179 183.227 43.0049C182.143 42.9969 181.106 42.9463 180.115 42.7786V42.7813ZM200.548 46.0714C200.774 46.1991 201.004 46.3349 201.227 46.4786C201.568 45.9516 201.867 45.4086 202.131 44.8602C202.011 44.9321 201.894 45.0066 201.779 45.0838C201.398 45.334 200.966 45.6641 200.551 46.074L200.548 46.0714ZM207.42 43.2658C207.908 44.1814 208.681 45.0199 209.893 45.547C210.655 45.877 211.409 46.1406 212.145 46.3402C212.579 45.6588 213.072 45.0678 213.562 44.5701C211.905 43.5532 209.682 43.122 207.423 43.2684L207.42 43.2658ZM165.185 41.7645C165.502 42.1425 165.856 42.5151 166.256 42.8825C167.471 44.0031 168.865 44.8549 170.349 45.4778C170.344 45.4432 170.338 45.4112 170.333 45.3793C170.002 43.0741 170.759 40.5906 172.278 38.4824C170.948 38.2109 169.539 38.5303 168.372 39.0867C167.178 39.6536 166.024 40.5773 165.185 41.7645ZM184.12 42.973C184.453 43.7476 184.893 44.4157 185.42 44.9986C186.785 44.2427 187.773 43.3004 188.264 42.2782C186.955 42.6509 185.54 42.8851 184.12 42.973ZM204.412 38.6315C204.422 40.0689 204.196 41.6367 203.69 43.2045C204.502 42.9117 205.358 42.7015 206.218 42.5737C205.992 41.8763 205.88 41.1815 205.829 40.548C205.768 39.7601 205.8 38.9376 205.909 38.1177C205.43 38.2987 204.929 38.4718 204.412 38.6315ZM180.086 41.9215C180.981 42.0892 181.948 42.1797 182.953 42.1797C182.78 41.5728 182.66 40.9153 182.596 40.1993C182.383 37.9314 182.764 36.1586 183.449 34.7771C181.924 34.2634 180.27 34.2607 178.593 34.8011C179.446 36.9998 179.96 39.4646 180.086 41.9215ZM184.24 35.1045C183.592 36.3716 183.23 38.0113 183.427 40.1248C183.496 40.8674 183.63 41.5462 183.822 42.1638C185.268 42.0972 186.766 41.8576 188.213 41.4264C188.336 41.3918 188.455 41.3546 188.575 41.3146C188.831 39.7734 188.01 38.0885 186.193 36.4301C185.583 35.8738 184.927 35.4293 184.24 35.1045ZM173.68 38.0938C174.399 38.4372 175.033 38.9482 175.548 39.619C176.294 40.5906 177.61 41.3093 179.244 41.7352C179.105 39.438 178.615 37.1435 177.815 35.0912C177.528 35.2137 177.237 35.3494 176.952 35.5011C175.7 36.1613 174.588 37.061 173.682 38.0964L173.68 38.0938ZM172.06 29.8873C171.652 29.8873 171.279 29.9219 170.967 29.9671C167.652 30.4436 164.503 32.9032 163.636 35.6875C163.077 37.4869 163.431 39.3182 164.657 41.0751C165.568 39.8692 166.77 38.9243 168.015 38.3333C169.688 37.5321 171.377 37.3511 172.835 37.7744C173.842 36.5739 175.108 35.5304 176.563 34.7585C176.875 34.5961 177.186 34.447 177.496 34.3166C177.112 33.4435 176.667 32.6263 176.169 31.8783C175.087 30.2599 173.395 29.8846 172.062 29.8846L172.06 29.8873ZM184.669 34.3752C185.404 34.7372 186.105 35.2163 186.758 35.8126C189.026 37.8782 189.527 39.6936 189.452 41.0058C191.171 40.343 192.516 39.4487 193.42 38.3892C190.678 36.7362 188.783 33.8801 187.811 31.7107C186.731 32.2377 185.546 33.0709 184.669 34.3752ZM194.662 38.1151C195.871 38.6874 197.268 39.0174 198.858 38.8764C200.516 38.7353 202.099 38.4239 203.546 38.0192C203.458 36.47 203.071 35.1258 202.448 34.1915C201.129 32.2164 197.995 30.9068 194.672 30.622C195.304 31.7692 195.722 33.3264 195.56 35.4319C195.485 36.3902 195.179 37.2926 194.662 38.1177V38.1151ZM188.573 31.3779C188.783 31.8491 189.042 32.3655 189.356 32.9005C190.068 34.1276 191.6 36.3529 193.921 37.7238C194.387 36.9944 194.662 36.2065 194.726 35.368C194.893 33.172 194.403 31.6388 193.668 30.5634C192.008 30.5288 190.345 30.7444 188.869 31.2661C188.773 31.3007 188.677 31.338 188.575 31.3779H188.573ZM210.338 32.0274C210.106 32.0274 209.864 32.1099 209.6 32.2776C208.603 32.9138 207.588 34.668 207.042 36.7336C209.544 35.573 211.191 34.1915 211.409 33.1827C211.468 32.9191 211.468 32.5225 210.818 32.1578C210.663 32.07 210.506 32.0248 210.338 32.0248V32.0274ZM188.829 28.0479C188.349 28.0479 187.981 28.1251 187.811 28.2423C187.696 28.4153 187.779 29.3123 188.258 30.6033C188.37 30.5581 188.482 30.5208 188.589 30.4809C189.95 29.9991 191.448 29.7542 192.953 29.7196C192.575 29.3549 192.178 29.0728 191.794 28.8545C190.752 28.2609 189.633 28.0453 188.829 28.0453V28.0479Z" fill="#062C59"/>
<path d="M318.498 98.4221C318.498 98.4221 298.326 75.7963 290.809 69.666C287.969 67.3502 277.952 83.8404 277.952 83.8404C281.963 89.0789 289.043 99.3377 299.006 116.134C304.836 125.964 305.987 128.677 310.589 133.974C313.835 137.711 331.227 108.574 318.498 98.4247V98.4221Z" fill="#FFB27D"/>
<path d="M277.952 83.8404C277.952 83.8404 265.164 83.4118 260.797 77.8911C256.429 72.3704 255.028 62.0185 258.462 64.8667C261.897 67.7149 265.281 72.5648 265.281 72.5648C265.281 72.5648 258.542 61.8614 261.729 61.3717C264.919 60.8819 270.688 70.2463 270.688 70.2463C270.688 70.2463 263.685 56.8731 266.846 57.3842C270.009 57.8953 274.168 66.5649 274.168 66.5649C274.168 66.5649 269.238 55.3878 272.897 56.0692C276.556 56.748 277.803 66.5995 280.99 66.1098C284.177 65.62 290.276 65.8862 294.606 75.7004L277.949 83.843L277.952 83.8404Z" fill="#FFB27D"/>
<path d="M268.908 76.5575C268.892 76.5575 268.876 76.5548 268.86 76.5548C266.582 76.1343 265.103 72.8149 265.042 72.6712C264.983 72.5381 265.042 72.3864 265.175 72.3278C265.303 72.2746 265.457 72.3358 265.519 72.4636C265.532 72.4955 266.95 75.6738 268.956 76.0411C269.097 76.0677 269.191 76.2035 269.164 76.3472C269.143 76.4723 269.031 76.5602 268.908 76.5602V76.5575Z" fill="#0B3E6C"/>
<path d="M275.021 74.9631C274.989 74.9631 274.957 74.9551 274.922 74.9418C271.884 73.7254 270.504 70.4832 270.448 70.3475C270.392 70.2144 270.456 70.0627 270.587 70.0068C270.725 69.9509 270.874 70.0174 270.928 70.1452C270.941 70.1771 272.284 73.3261 275.117 74.4627C275.25 74.5159 275.314 74.6677 275.261 74.8008C275.218 74.9019 275.122 74.9631 275.018 74.9631H275.021Z" fill="#0B3E6C"/>
<path d="M279.327 72.5382C279.327 72.5382 279.308 72.5382 279.3 72.5356C276.833 72.2933 275.09 68.3645 275.018 68.1968C274.96 68.0637 275.018 67.9119 275.152 67.8534C275.29 67.7975 275.439 67.856 275.495 67.9891C275.514 68.0264 277.187 71.8062 279.354 72.0218C279.495 72.0351 279.602 72.1603 279.586 72.304C279.572 72.4397 279.458 72.5409 279.327 72.5409V72.5382Z" fill="#0B3E6C"/>
<path d="M295.342 73.7998C295.342 73.7998 318.069 97.6766 327.065 90.9288L328.046 116.877C328.046 116.877 316.697 134.205 310.589 133.971C299.264 133.532 280.769 99.8594 280.769 99.8594C280.769 99.8594 297.098 89.3317 295.344 73.7998H295.342Z" fill="#062C59"/>
<path d="M432.206 184.991H332.141C327.691 182.167 325.397 180.106 325.397 180.106C325.637 176.497 325.906 172.973 326.207 169.528C327.212 158.021 328.552 147.43 330.204 137.73C332.544 123.989 335.499 112.04 339.003 101.824C340.109 98.5925 341.271 95.5393 342.486 92.6539V92.6459C346.688 82.6427 351.514 74.7023 356.856 68.7451C360.848 64.2998 365.125 60.9592 369.647 58.7019C369.647 58.7019 369.649 58.7011 369.652 58.6993C369.652 58.6993 369.655 58.6993 369.658 58.6966C370.132 58.457 370.606 58.2308 371.086 58.0232H371.089C372.589 57.3524 374.116 56.8014 375.664 56.3675C376.594 56.104 377.534 55.883 378.48 55.7047C378.494 55.702 378.507 55.702 378.523 55.6994C380.189 55.3826 381.883 55.1936 383.602 55.1324C387.775 54.9833 391.529 55.3107 394.9 55.9895C396.281 56.2663 397.592 56.6017 398.844 56.985C399.321 57.1288 399.787 57.2832 400.243 57.4455C416.836 63.2271 421.987 77.6996 421.987 77.6996C422.626 79.3712 423.223 81.1547 423.788 83.034C423.938 83.5317 424.087 84.0401 424.231 84.5512C424.545 85.6665 424.846 86.8138 425.139 87.993C428.702 102.372 430.549 121.003 431.468 138.645C431.489 139.066 431.513 139.487 431.532 139.904C432.433 158.008 432.371 174.934 432.201 184.988L432.206 184.991Z" fill="#D2FBFA"/>
<path d="M441.308 78.9879L421.806 89.8536C421.806 89.8536 363.142 103.056 348.652 100.432C334.164 97.8046 346.053 61.3265 372.282 56.6363C374.747 56.1918 380.953 55.324 383.602 55.1324C388.049 54.8183 392.499 54.9487 396.859 55.4225C433.842 59.4313 441.306 78.9879 441.306 78.9879H441.308Z" fill="#D2FBFA"/>
<path d="M363.051 49.8647C362.889 49.8274 359.022 48.8852 357.871 46.1168C357.264 44.6581 357.541 42.9732 358.689 41.1072C359.201 40.2767 359.672 39.5234 360.104 38.8367C363.107 34.0586 364.117 32.4455 363.334 28.7003L363.675 28.6311C364.49 32.5121 363.376 34.2822 360.4 39.023C359.968 39.7071 359.497 40.4577 358.985 41.2882C357.898 43.053 357.631 44.6342 358.194 45.9837C359.273 48.5817 363.094 49.516 363.131 49.524L363.051 49.8647Z" fill="#121212"/>
<path d="M363.505 28.6655C363.505 28.6655 364.832 34.6706 360.85 40.9553C356.869 47.2399 361.202 51.8343 366.598 49.4147C371.994 46.995 374.051 53.8679 380.948 50.0695C387.844 46.271 363.507 28.6628 363.507 28.6628L363.505 28.6655Z" fill="#121212"/>
<path d="M395.38 55.2177C392.401 54.8982 389.811 53.0296 388.625 50.2799L384.91 41.6635L383.834 39.1614L377.497 24.4573L378.595 39.6964L379.256 48.8425L379.445 51.4511C379.6 53.578 378.11 55.4599 376.008 55.8379L375.97 55.8432C374.843 57.6746 373.284 61.3985 377.939 62.8785C383.407 64.6167 392.254 60.3178 395.428 55.2203L395.38 55.215V55.2177Z" fill="#FFB27D"/>
<path d="M384.926 41.4105C384.926 41.4957 384.918 41.5782 384.91 41.6634C384.548 46.5772 379.285 48.8717 379.285 48.8717L379.253 48.8451L378.592 39.699C380.202 39.1107 382.491 38.5065 383.831 39.1639C384.532 39.5073 384.972 40.1967 384.924 41.4132L384.926 41.4105Z" fill="#062C59"/>
<path d="M376.802 44.5596C384.718 44.5596 391.135 36.6511 391.135 26.8955C391.135 17.1399 384.718 9.23145 376.802 9.23145C368.886 9.23145 362.468 17.1399 362.468 26.8955C362.468 36.6511 368.886 44.5596 376.802 44.5596Z" fill="#FFB27D"/>
<path d="M389.515 29.2677C391.01 27.5894 391.139 25.2665 389.803 24.0792C388.467 22.8919 386.172 23.2899 384.678 24.9681C383.183 26.6464 383.054 28.9693 384.39 30.1566C385.726 31.3439 388.021 30.9459 389.515 29.2677Z" fill="#FFB27D"/>
<path d="M375.416 27.0658C375.32 27.0392 375.237 26.97 375.197 26.8715C375.131 26.7038 375.211 26.5148 375.378 26.4483C375.477 26.4083 377.67 25.2824 379.599 27.3879C379.722 27.521 379.719 27.7233 379.589 27.8484C379.458 27.9735 379.277 27.9362 379.128 27.8378C377.63 26.8316 375.704 27.0206 375.624 27.0525C375.554 27.0791 375.482 27.0818 375.418 27.0632L375.416 27.0658Z" fill="#1973A0"/>
<path d="M377.995 30.6435C378.019 31.4207 377.582 32.0649 377.018 32.0835C376.453 32.1022 375.976 31.4873 375.952 30.71C375.928 29.9327 376.365 29.2886 376.93 29.2699C377.494 29.2513 377.971 29.8662 377.995 30.6435Z" fill="#1973A0"/>
<path d="M363.779 28.764C363.681 28.7773 363.579 28.7454 363.505 28.6682C363.38 28.5404 363.382 28.3328 363.51 28.2077C363.585 28.1332 365.186 26.2565 367.771 27.4704C367.934 27.5475 368.008 27.7365 367.936 27.9016C367.862 28.0666 367.683 28.1012 367.505 28.0666C365.738 27.7073 364.027 28.615 363.966 28.6762C363.913 28.7267 363.849 28.756 363.779 28.764Z" fill="#1973A0"/>
<path d="M367.528 31.0905C367.848 31.7986 367.688 32.5625 367.174 32.7941C366.66 33.0257 365.983 32.6371 365.663 31.929C365.343 31.221 365.503 30.457 366.017 30.2281C366.532 29.9965 367.208 30.3851 367.528 31.0932V31.0905Z" fill="#1973A0"/>
<path d="M370.715 12.431C370.715 12.431 371.024 18.5585 378.685 19.6047C386.346 20.6508 391.633 23.8876 390.602 29.4029C389.573 34.9156 377.222 46.3563 386.298 50.7856C395.374 55.2176 393.445 46.9552 403.286 48.8691C413.127 50.7856 414.901 37.6574 408.125 30.0391C401.349 22.4209 404.093 2.26267 378.683 3.15439C353.272 4.04877 362.583 24.3002 362.583 24.3002C362.583 24.3002 370.726 19.1974 370.713 12.4283L370.715 12.431Z" fill="#121212"/>
<path d="M388.915 51.9248C387.002 51.1502 385.827 50.003 385.422 48.5097C384.305 44.3971 389.102 38.187 393.333 32.7089C394.447 31.2662 395.5 29.906 396.432 28.607C399.02 24.9975 399.241 20.8636 397.026 17.5523C394.599 13.9215 389.984 12.3803 384.955 13.5435C377.302 15.3217 372.682 11.9464 371.317 9.91278L371.488 9.79565C372.831 11.7867 377.372 15.0954 384.91 13.3412C390.005 12.1594 394.721 13.7272 397.2 17.4352C399.43 20.7731 399.201 25.0987 396.6 28.7241C395.667 30.0257 394.612 31.3913 393.498 32.834C389.296 38.2775 384.534 44.4423 385.624 48.4538C386.016 49.9018 387.122 50.9745 388.995 51.7278L388.918 51.9222L388.915 51.9248Z" fill="white"/>
<path d="M370.047 29.6691C370.036 29.5227 370.025 29.3763 370.009 29.2299C369.993 29.0356 369.969 28.844 369.945 28.647L369.737 28.7614L369.463 28.9345L369.434 28.9558C369.711 30.4757 369.751 31.9956 369.583 33.3931C369.514 33.9787 369.407 34.5403 369.263 35.0727H369.423C369.54 34.708 369.644 34.3327 369.729 33.9414C369.753 33.8216 369.78 33.6992 369.804 33.5741C369.833 33.417 369.865 33.2573 369.889 33.0949C369.911 32.9539 369.932 32.8101 369.951 32.6664C369.972 32.4934 369.993 32.3177 370.009 32.142C370.017 32.0249 370.028 31.9078 370.036 31.7906C370.044 31.6921 370.049 31.5963 370.055 31.4952C370.06 31.4073 370.063 31.3142 370.065 31.221C370.081 30.7099 370.076 30.1882 370.044 29.6638L370.047 29.6691ZM370.047 29.6691C370.036 29.5227 370.025 29.3763 370.009 29.2299C369.993 29.0356 369.969 28.844 369.945 28.647L369.737 28.7614L369.463 28.9345L369.434 28.9558C369.711 30.4757 369.751 31.9956 369.583 33.3931C369.514 33.9787 369.407 34.5403 369.263 35.0727H369.423C369.54 34.708 369.644 34.3327 369.729 33.9414C369.753 33.8216 369.78 33.6992 369.804 33.5741C369.833 33.417 369.865 33.2573 369.889 33.0949C369.911 32.9539 369.932 32.8101 369.951 32.6664C369.972 32.4934 369.993 32.3177 370.009 32.142C370.017 32.0249 370.028 31.9078 370.036 31.7906C370.044 31.6921 370.049 31.5963 370.055 31.4952C370.06 31.4073 370.063 31.3142 370.065 31.221C370.081 30.7099 370.076 30.1882 370.044 29.6638L370.047 29.6691ZM370.047 29.6691C370.036 29.5227 370.025 29.3763 370.009 29.2299C369.993 29.0356 369.969 28.844 369.945 28.647L369.737 28.7614L369.463 28.9345L369.434 28.9558C369.711 30.4757 369.751 31.9956 369.583 33.3931C369.514 33.9787 369.407 34.5403 369.263 35.0727H369.423C369.54 34.708 369.644 34.3327 369.729 33.9414C369.753 33.8216 369.78 33.6992 369.804 33.5741C369.833 33.417 369.865 33.2573 369.889 33.0949C369.911 32.9539 369.932 32.8101 369.951 32.6664C369.972 32.4934 369.993 32.3177 370.009 32.142C370.017 32.0249 370.028 31.9078 370.036 31.7906C370.044 31.6921 370.049 31.5963 370.055 31.4952C370.06 31.4073 370.063 31.3142 370.065 31.221C370.081 30.7099 370.076 30.1882 370.044 29.6638L370.047 29.6691ZM370.023 28.615C369.945 28.2184 369.852 27.8245 369.743 27.4332C369.737 27.4145 369.732 27.3932 369.727 27.3746C369.727 27.3693 369.724 27.364 369.721 27.3586C369.674 27.175 369.618 26.994 369.559 26.813C368.815 24.4785 367.595 22.578 366.145 21.42C365.98 21.2896 365.802 21.1618 365.634 21.0421C365.626 21.0367 365.618 21.0341 365.607 21.0288C365.247 20.7972 364.88 20.6082 364.501 20.4698C364.179 20.3526 363.851 20.2701 363.529 20.2275C362.796 20.1264 362.074 20.2196 361.392 20.5177C361.184 20.6055 360.979 20.712 360.779 20.8398C357.696 22.743 356.534 28.5192 358.189 33.7125C358.338 34.1863 358.508 34.6415 358.698 35.078C359.233 36.3238 359.91 37.3992 360.685 38.2483C361.04 38.6369 361.413 38.9803 361.802 39.2704C362.266 39.6165 362.751 39.8827 363.249 40.0663C363.758 40.25 364.272 40.3432 364.778 40.3432C365.527 40.3432 366.257 40.1382 366.942 39.7176C366.953 39.715 366.961 39.707 366.972 39.7017C368.378 38.8286 369.388 37.1436 369.908 35.0807C370.009 34.6894 370.089 34.2875 370.153 33.8722C370.26 33.1588 370.316 32.4215 370.316 31.6655C370.316 30.67 370.22 29.6452 370.023 28.623V28.615ZM358.434 32.1793C357.424 27.6381 358.514 22.9799 361.112 21.3721C361.25 21.287 361.394 21.2098 361.536 21.1432C361.951 20.9569 362.383 20.8504 362.828 20.8371C362.831 20.8344 362.831 20.8371 362.831 20.8371C362.996 20.8291 363.161 20.8344 363.329 20.8504C363.641 20.8824 363.958 20.9542 364.278 21.0687C364.762 21.247 365.234 21.5132 365.682 21.8619C367.062 22.9346 368.232 24.7554 368.951 27.0179C369.026 27.2522 369.095 27.4891 369.157 27.726C369.268 28.1359 369.359 28.5485 369.434 28.9584C369.711 30.4783 369.751 31.9983 369.583 33.3957C369.514 33.9813 369.407 34.543 369.263 35.0754C368.776 36.9067 367.875 38.3867 366.628 39.1613C366.596 39.1799 366.564 39.2012 366.532 39.2172C365.594 39.7655 364.531 39.8374 363.465 39.4648C362.985 39.2891 362.519 39.0256 362.076 38.6795C361.711 38.3974 361.36 38.0646 361.032 37.684C360.406 36.9679 359.851 36.0869 359.39 35.0754C359.167 34.5856 358.967 34.0639 358.791 33.5182C358.652 33.079 358.532 32.6344 358.434 32.1899C358.434 32.1846 358.434 32.1819 358.431 32.1793H358.434ZM370.049 29.6718C370.039 29.5254 370.028 29.379 370.012 29.2326C369.996 29.0383 369.972 28.8466 369.948 28.6496L369.74 28.7641L369.466 28.9371L369.436 28.9584C369.713 30.4783 369.753 31.9983 369.586 33.3957C369.516 33.9813 369.41 34.543 369.266 35.0754H369.426C369.543 34.7107 369.647 34.3354 369.732 33.9441C369.756 33.8243 369.783 33.7018 369.807 33.5767C369.836 33.4197 369.868 33.26 369.892 33.0976C369.913 32.9565 369.935 32.8128 369.953 32.669C369.975 32.496 369.996 32.3203 370.012 32.1447C370.02 32.0275 370.031 31.9104 370.039 31.7933C370.047 31.6948 370.052 31.599 370.057 31.4978C370.063 31.41 370.065 31.3168 370.068 31.2237C370.084 30.7126 370.079 30.1909 370.047 29.6665L370.049 29.6718ZM370.049 29.6718C370.039 29.5254 370.028 29.379 370.012 29.2326C369.996 29.0383 369.972 28.8466 369.948 28.6496L369.74 28.7641L369.466 28.9371L369.436 28.9584C369.713 30.4783 369.753 31.9983 369.586 33.3957C369.516 33.9813 369.41 34.543 369.266 35.0754H369.426C369.543 34.7107 369.647 34.3354 369.732 33.9441C369.756 33.8243 369.783 33.7018 369.807 33.5767C369.836 33.4197 369.868 33.26 369.892 33.0976C369.913 32.9565 369.935 32.8128 369.953 32.669C369.975 32.496 369.996 32.3203 370.012 32.1447C370.02 32.0275 370.031 31.9104 370.039 31.7933C370.047 31.6948 370.052 31.599 370.057 31.4978C370.063 31.41 370.065 31.3168 370.068 31.2237C370.084 30.7126 370.079 30.1909 370.047 29.6665L370.049 29.6718ZM370.049 29.6718C370.039 29.5254 370.028 29.379 370.012 29.2326C369.996 29.0383 369.972 28.8466 369.948 28.6496L369.74 28.7641L369.466 28.9371L369.436 28.9584C369.713 30.4783 369.753 31.9983 369.586 33.3957C369.516 33.9813 369.41 34.543 369.266 35.0754H369.426C369.543 34.7107 369.647 34.3354 369.732 33.9441C369.756 33.8243 369.783 33.7018 369.807 33.5767C369.836 33.4197 369.868 33.26 369.892 33.0976C369.913 32.9565 369.935 32.8128 369.953 32.669C369.975 32.496 369.996 32.3203 370.012 32.1447C370.02 32.0275 370.031 31.9104 370.039 31.7933C370.047 31.6948 370.052 31.599 370.057 31.4978C370.063 31.41 370.065 31.3168 370.068 31.2237C370.084 30.7126 370.079 30.1909 370.047 29.6665L370.049 29.6718Z" fill="#121212"/>
<g opacity="0.3">
<path d="M380.087 35.9798C383.692 35.9301 386.555 31.5916 386.482 26.2895C386.409 20.9873 383.427 16.7293 379.822 16.779C376.217 16.8286 373.353 21.1671 373.426 26.4693C373.5 31.7714 376.482 36.0294 380.087 35.9798Z" fill="white"/>
</g>
<g opacity="0.3">
<path d="M364.519 40.003C367.77 39.8895 370.255 35.4634 370.068 30.117C369.881 24.7705 367.094 20.5283 363.842 20.6418C360.59 20.7552 358.105 25.1813 358.292 30.5278C358.479 35.8742 361.267 40.1164 364.519 40.003Z" fill="white"/>
</g>
<path d="M377.548 35.0354C376.924 34.7346 376.335 34.3008 375.805 33.7577C375.882 33.8536 375.962 33.9441 376.045 34.0346C376.098 34.0958 376.154 34.1543 376.21 34.2129C376.266 34.2715 376.322 34.3274 376.378 34.3833C376.415 34.4179 376.45 34.4525 376.485 34.4844C376.543 34.5403 376.604 34.5962 376.663 34.6468C376.724 34.7 376.783 34.7506 376.844 34.8012C376.906 34.8518 376.967 34.8997 377.031 34.9449C377.092 34.9902 377.153 35.0328 377.217 35.078H377.638C377.609 35.0674 377.58 35.0541 377.55 35.0381L377.548 35.0354ZM377.548 35.0354C376.924 34.7346 376.335 34.3008 375.805 33.7577C375.882 33.8536 375.962 33.9441 376.045 34.0346C376.098 34.0958 376.154 34.1543 376.21 34.2129C376.266 34.2715 376.322 34.3274 376.378 34.3833C376.415 34.4179 376.45 34.4525 376.485 34.4844C376.543 34.5403 376.604 34.5962 376.663 34.6468C376.724 34.7 376.783 34.7506 376.844 34.8012C376.906 34.8518 376.967 34.8997 377.031 34.9449C377.092 34.9902 377.153 35.0328 377.217 35.078H377.638C377.609 35.0674 377.58 35.0541 377.55 35.0381L377.548 35.0354ZM377.548 35.0354C376.924 34.7346 376.335 34.3008 375.805 33.7577C375.882 33.8536 375.962 33.9441 376.045 34.0346C376.098 34.0958 376.154 34.1543 376.21 34.2129C376.266 34.2715 376.322 34.3274 376.378 34.3833C376.415 34.4179 376.45 34.4525 376.485 34.4844C376.543 34.5403 376.604 34.5962 376.663 34.6468C376.724 34.7 376.783 34.7506 376.844 34.8012C376.906 34.8518 376.967 34.8997 377.031 34.9449C377.092 34.9902 377.153 35.0328 377.217 35.078H377.638C377.609 35.0674 377.58 35.0541 377.55 35.0381L377.548 35.0354ZM386.648 23.6107C386.597 23.294 386.536 22.9772 386.461 22.6578C386.392 22.357 386.315 22.0642 386.227 21.7767C385.411 19.0749 383.85 17.0093 381.862 16.0458C380.327 15.3084 378.723 15.3004 377.207 16.0058C376.183 16.485 375.288 17.2649 374.553 18.2524C372.922 20.4378 372.066 23.6453 372.328 26.9035C372.362 27.3054 372.408 27.7073 372.474 28.1066C372.525 28.3994 372.583 28.6922 372.65 28.9797C373.274 31.6788 374.603 33.8376 376.362 35.07C376.65 35.2723 376.951 35.4507 377.263 35.6024C377.614 35.7701 377.966 35.9005 378.321 35.991C378.75 36.1055 379.184 36.164 379.616 36.164C380.386 36.164 381.153 35.9884 381.902 35.629C382.014 35.5758 382.126 35.5199 382.232 35.4587C382.448 35.3442 382.656 35.2138 382.856 35.07C384.202 34.1224 385.265 32.6131 385.952 30.8164C386.517 29.3337 386.826 27.6488 386.826 25.9132C386.826 25.1493 386.765 24.3774 386.64 23.6081L386.648 23.6107ZM373.268 28.8386C373.215 28.6097 373.167 28.3781 373.13 28.1492C373.058 27.7446 373.004 27.3427 372.97 26.9354C372.69 23.7545 373.519 20.6295 375.107 18.5585C375.77 17.6934 376.567 17.0093 377.471 16.5834C378.131 16.2773 378.808 16.1203 379.485 16.1203C380.162 16.1203 380.895 16.288 381.579 16.6181C382.576 17.1052 383.474 17.9277 384.207 18.9871C384.537 19.4662 384.833 19.9933 385.092 20.5603C385.211 20.8291 385.326 21.1086 385.427 21.3934C385.592 21.8433 385.731 22.3171 385.846 22.8042C385.926 23.1582 385.992 23.5123 386.045 23.8689C386.405 26.2673 386.12 28.6816 385.334 30.6913C384.607 32.5519 383.453 34.0638 381.987 34.881C381.873 34.9476 381.755 35.0061 381.638 35.062C381.63 35.0647 381.622 35.07 381.614 35.0727C380.53 35.5625 379.386 35.6397 378.278 35.3123C378.062 35.2484 377.849 35.1712 377.636 35.0727C377.606 35.062 377.577 35.0487 377.548 35.0328C376.924 34.732 376.335 34.2981 375.805 33.7551C374.638 32.5599 373.735 30.8377 373.268 28.8386ZM377.548 35.0328C376.924 34.732 376.335 34.2981 375.805 33.7551C375.882 33.8509 375.962 33.9414 376.045 34.0319C376.098 34.0931 376.154 34.1517 376.21 34.2102C376.266 34.2688 376.322 34.3247 376.378 34.3806C376.415 34.4152 376.45 34.4498 376.485 34.4818C376.543 34.5377 376.604 34.5936 376.663 34.6441C376.724 34.6974 376.783 34.7479 376.844 34.7985C376.906 34.8491 376.967 34.897 377.031 34.9423C377.092 34.9875 377.153 35.0301 377.217 35.0753H377.638C377.609 35.0647 377.58 35.0514 377.55 35.0354L377.548 35.0328ZM377.548 35.0328C376.924 34.732 376.335 34.2981 375.805 33.7551C375.882 33.8509 375.962 33.9414 376.045 34.0319C376.098 34.0931 376.154 34.1517 376.21 34.2102C376.266 34.2688 376.322 34.3247 376.378 34.3806C376.415 34.4152 376.45 34.4498 376.485 34.4818C376.543 34.5377 376.604 34.5936 376.663 34.6441C376.724 34.6974 376.783 34.7479 376.844 34.7985C376.906 34.8491 376.967 34.897 377.031 34.9423C377.092 34.9875 377.153 35.0301 377.217 35.0753H377.638C377.609 35.0647 377.58 35.0514 377.55 35.0354L377.548 35.0328ZM377.548 35.0328C376.924 34.732 376.335 34.2981 375.805 33.7551C375.882 33.8509 375.962 33.9414 376.045 34.0319C376.098 34.0931 376.154 34.1517 376.21 34.2102C376.266 34.2688 376.322 34.3247 376.378 34.3806C376.415 34.4152 376.45 34.4498 376.485 34.4818C376.543 34.5377 376.604 34.5936 376.663 34.6441C376.724 34.6974 376.783 34.7479 376.844 34.7985C376.906 34.8491 376.967 34.897 377.031 34.9423C377.092 34.9875 377.153 35.0301 377.217 35.0753H377.638C377.609 35.0647 377.58 35.0514 377.55 35.0354L377.548 35.0328Z" fill="#121212"/>
<path d="M369.021 29.1235C369.154 29.1235 369.287 29.0782 369.399 28.985C369.463 28.9291 371.008 27.7233 373.67 28.2291C373.985 28.2743 374.307 28.0827 374.371 27.7606C374.435 27.4385 374.225 27.1244 373.902 27.0712C370.686 26.3977 368.727 28.0001 368.639 28.0667C368.392 28.2796 368.354 28.655 368.565 28.9052C368.679 29.0516 368.85 29.1261 369.021 29.1261V29.1235Z" fill="#121212"/>
<path d="M374.369 38.1418C374.369 38.7487 373.719 39.2412 372.919 39.2412C372.12 39.2412 371.47 38.7487 371.47 38.1418C371.47 37.5349 372.12 37.0425 372.919 37.0425C373.719 37.0425 374.369 37.5349 374.369 38.1418Z" fill="white"/>
<path d="M369.65 58.7046H369.655C365.096 62.8757 355.548 74.2418 348.689 100.437C348.058 102.854 347.445 105.399 346.867 108.077C345.513 114.313 344.317 121.269 343.352 129.017C343.352 129.023 343.349 129.031 343.349 129.036C343.205 130.199 343.064 131.384 342.931 132.584C342.726 134.437 342.529 136.335 342.35 138.275C342.329 138.523 342.305 138.768 342.283 139.018C342.137 140.652 341.998 142.316 341.87 144.017C341.836 144.456 341.806 144.898 341.772 145.343C341.676 146.711 341.588 148.092 341.505 149.5C341.473 150.025 341.444 150.552 341.417 151.082C341.353 152.258 341.295 153.451 341.239 154.656C341.026 159.392 340.892 164.346 340.85 169.534C340.823 172.358 340.826 175.249 340.852 178.211L341.108 184.994H322.615C322.591 180 322.618 174.815 322.714 169.534C322.887 159.773 323.292 149.679 324.044 139.838C324.635 132.06 325.445 124.442 326.527 117.268C326.82 115.336 327.132 113.44 327.465 111.577C327.923 109.011 328.422 106.517 328.963 104.113C329.077 103.602 329.194 103.094 329.314 102.591C329.373 102.335 329.434 102.082 329.495 101.829C330.908 95.9972 332.589 90.7267 334.585 86.2441L346.28 77.0581H346.283L356.859 68.7504L369.65 58.7073V58.7046Z" fill="#062C59"/>
<path d="M369.687 58.6726C369.687 58.6726 369.671 58.6863 369.66 58.6972C369.66 58.6972 369.658 58.6981 369.655 58.6999L369.69 58.6726H369.687Z" fill="#78DCEA"/>
<path d="M372.277 56.6362L369.687 58.6725C371.23 57.2644 372.192 56.6868 372.277 56.6362Z" fill="#78DCEA"/>
<path d="M449.892 184.991H385.353C385.185 178.339 385.076 171.194 385.057 163.629C385.057 163.233 385.054 162.836 385.057 162.434C385.052 158.977 385.065 155.434 385.102 151.813C385.163 145.784 385.406 139.843 385.787 134.051C386.69 120.31 388.372 107.414 390.245 96.202C393.621 76.0012 397.624 61.2732 398.847 56.9849C399.086 56.1411 399.22 55.7019 399.22 55.7019L440.81 78.7136L440.816 78.7163L441.303 78.9825H441.306L444.434 117.601L449.892 184.991Z" fill="#062C59"/>
<path d="M399.22 55.7019C399.22 55.7019 433.317 59.0239 441.306 78.9878L432.305 86.2387L415.083 82.6398L399.22 55.6992V55.7019Z" fill="#062C59"/>
<path d="M372.282 56.6335C372.282 56.6335 363.457 57.0381 353.733 63.2722C347.119 67.5125 331.163 90.1543 308.777 106.871C296 116.413 297.812 136.061 312.135 143.085C312.135 143.085 342.171 136.26 343.352 129.017C351.575 78.5539 372.282 56.6362 372.282 56.6362V56.6335Z" fill="#062C59"/>
<path d="M357.264 169.531H312.636C310.715 169.531 309.049 168.197 308.631 166.323L295.326 106.61C294.78 104.156 296.648 101.827 299.166 101.827H341.753C343.925 101.827 345.806 103.333 346.278 105.452L359.841 166.323C360.209 167.971 358.954 169.534 357.264 169.534V169.531Z" fill="#1973A0"/>
<path d="M367.992 144.595C367.992 144.595 355.479 131.844 348.63 131.73C341.78 131.615 332.943 136.641 337.175 137.615C341.406 138.587 347.154 138.337 347.154 138.337C347.154 138.337 334.897 139.449 336.397 142.199C337.9 144.951 348.551 143.881 348.551 143.881C348.551 143.881 334.071 146.365 336.33 148.505C338.593 150.645 349.579 148.681 349.579 148.681C349.579 148.681 336.197 151.529 338.883 153.954C341.569 156.379 349.925 151.529 351.428 154.279C352.931 157.031 364.118 166.864 372.282 163.627L367.989 144.595H367.992Z" fill="#FFB27D"/>
<path d="M352.012 139.122C350.539 137.791 347.248 138.571 347.213 138.579L347.096 138.087C347.237 138.052 350.68 137.235 352.356 138.747L352.015 139.122H352.012Z" fill="#0B3E6C"/>
<path d="M354.429 144.81C351.876 143.293 348.649 144.113 348.617 144.124L348.489 143.637C348.628 143.599 351.953 142.747 354.687 144.379L354.429 144.81Z" fill="#0B3E6C"/>
<path d="M355.036 149.524C353.592 147.983 349.68 148.912 349.643 148.923L349.521 148.43C349.694 148.388 353.76 147.419 355.404 149.178L355.036 149.524Z" fill="#0B3E6C"/>
<path d="M329.727 103.514C329.727 103.514 328.056 99.6812 327.569 99.2846C327.081 98.888 306.968 99.0211 307.101 99.9448C307.234 100.871 308.029 103.645 309.881 104.174C311.733 104.704 330.495 105.202 329.73 103.514H329.727Z" fill="#115786"/>
<path d="M437.413 132.59C454.576 107.659 441.714 80.1485 441.306 78.9879C441.306 78.9879 439.878 76.8558 426.261 82.049C412.621 87.2503 413.412 90.4818 413.412 90.4818C413.412 90.4818 414.534 129.779 365.303 142.021C365.303 142.021 363.18 145.3 364.621 153.4C366.284 162.738 371.107 165.511 371.107 165.511C378.766 164.809 417.185 161.974 437.413 132.59Z" fill="#062C59"/>
<path d="M384.929 162.818C384.75 162.818 384.596 162.685 384.572 162.506C384.545 162.312 384.681 162.128 384.878 162.099C408.735 158.798 423.487 147.115 431.662 137.892C440.514 127.908 443.765 118.599 443.797 118.503C443.859 118.317 444.069 118.208 444.256 118.28C444.442 118.346 444.543 118.546 444.479 118.737C444.447 118.831 441.149 128.275 432.203 138.369C423.948 147.68 409.055 159.48 384.977 162.81C384.961 162.81 384.945 162.812 384.929 162.812V162.818Z" fill="#062C59"/>
<path d="M385.79 134.41C385.662 134.41 385.537 134.341 385.473 134.219C385.377 134.046 385.443 133.827 385.619 133.732C405.612 122.967 408.695 104.129 408.722 103.937C408.751 103.743 408.943 103.605 409.133 103.639C409.33 103.666 409.466 103.852 409.436 104.049C409.407 104.241 406.284 123.422 385.96 134.365C385.907 134.397 385.848 134.41 385.79 134.41Z" fill="#062C59"/>
<path d="M256.28 162.719C255.558 162.719 254.839 162.701 254.124 162.671C242.997 162.144 229.7 157.1 228.836 144.624L229.67 144.568C230.494 156.496 243.378 161.324 254.162 161.833C267.512 162.517 282.751 157.095 284.606 145.883C286.506 134.389 277.568 126.478 268.924 118.83C261.825 112.549 255.121 106.615 254.865 99.0875C254.484 87.8997 264.852 84.6443 273.18 82.0304C277.281 80.742 281.155 79.5256 282.839 77.5957C284.148 76.0944 284.731 74.4734 284.571 72.7778C284.236 69.2242 280.766 66.4585 280.729 66.4346L281.246 65.7744C281.398 65.8969 285.035 68.793 285.403 72.7006C285.584 74.6304 284.936 76.4618 283.468 78.1441C281.629 80.2522 277.83 81.4447 273.43 82.8263C264.951 85.4908 255.342 88.5093 255.699 99.0609C255.942 106.227 262.518 112.045 269.476 118.205C278.291 126.007 287.404 134.072 285.427 146.024C283.593 157.1 269.444 162.719 256.272 162.719H256.28Z" fill="#1973A0"/>
<path d="M282.631 90.3062C282.631 90.3062 278.445 99.8862 280.769 99.8595C283.092 99.8356 286.111 95.4488 286.111 95.4488L282.631 90.3062Z" fill="#062C59"/>
</g>
<defs>
<clipPath id="clip0_659_3583">
<rect width="491" height="295" fill="white"/>
</clipPath>
</defs>
</svg>
