<svg width="180" height="71" viewBox="0 0 180 71" fill="none" xmlns="http://www.w3.org/2000/svg">
<path d="M38.8839 56.8885C33.2426 56.887 27.7285 55.2175 23.0386 52.0911C18.3488 48.9647 14.6939 44.5218 12.5362 39.3242C10.3784 34.1266 9.81455 28.4076 10.916 22.8905C12.0175 17.3733 14.7348 12.3057 18.7243 8.32848C22.7137 4.35123 27.7963 1.64292 33.3293 0.545999C38.8623 -0.550923 44.5972 0.0128043 49.8089 2.1659C55.0206 4.319 59.475 7.96477 62.609 12.6422C65.743 17.3197 67.4157 22.8188 67.4157 28.4442C67.4058 35.9864 64.3963 43.2167 59.0475 48.5491C53.6987 53.8815 46.4473 56.8806 38.8839 56.8885ZM38.8839 1.81511C33.602 1.81363 28.4383 3.37415 24.0458 6.2993C19.6534 9.22444 16.2295 13.3828 14.2071 18.2485C12.1848 23.1142 11.6549 28.4687 12.6845 33.6347C13.714 38.8008 16.2567 43.5463 19.9911 47.2712C23.7254 50.9961 28.4836 53.533 33.6639 54.5611C38.8442 55.5892 44.2139 55.0623 49.0939 53.0471C53.9738 51.0318 58.1449 47.6187 61.0795 43.2394C64.0141 38.8601 65.5805 33.7113 65.5805 28.4442C65.5726 21.3855 62.7576 14.618 57.7529 9.62597C52.7483 4.63397 45.9625 1.82499 38.8839 1.81511Z" fill="#B2115A"/>
<path d="M28.5244 61.8931C22.8828 61.8931 17.3679 60.2249 12.6771 57.0994C7.98628 53.9739 4.33024 49.5315 2.1713 44.334C0.0123592 39.1365 -0.552518 33.4173 0.5481 27.8997C1.64872 22.382 4.3654 17.3138 8.3546 13.3358C12.3438 9.35776 17.4264 6.64871 22.9595 5.55118C28.4927 4.45366 34.228 5.01695 39.4401 7.16983C44.6523 9.3227 49.1072 12.9685 52.2415 17.6461C55.3758 22.3237 57.0487 27.8231 57.0487 33.4489C57.0408 40.9903 54.033 48.2206 48.6854 53.5533C43.3377 58.8859 36.087 61.8852 28.5244 61.8931ZM28.5244 6.82722C23.2443 6.82722 18.0827 8.38855 13.6925 11.3138C9.30227 14.239 5.88049 18.3967 3.85989 23.2612C1.83928 28.1257 1.3106 33.4784 2.3407 38.6425C3.37079 43.8066 5.9134 48.5501 9.64699 52.2732C13.3806 55.9963 18.1375 58.5318 23.3161 59.559C28.4947 60.5862 33.8625 60.059 38.7407 58.0441C43.6189 56.0292 47.7883 52.617 50.7218 48.2391C53.6553 43.8612 55.221 38.7141 55.221 33.4489C55.2111 26.3914 52.3952 19.6258 47.3908 14.6354C42.3863 9.64505 35.6017 6.8371 28.5244 6.82722Z" fill="#F8B114"/>
<path d="M42.6966 64.5896C37.0557 64.5867 31.5423 62.9159 26.8534 59.7887C22.1646 56.6614 18.5109 52.218 16.3543 47.0202C14.1976 41.8224 13.6349 36.1037 14.7372 30.587C15.8395 25.0704 18.5574 20.0035 22.5472 16.027C26.5369 12.0505 31.6195 9.34294 37.1523 8.24662C42.6851 7.1503 48.4196 7.71446 53.6309 9.86778C58.8421 12.0211 63.2961 15.6669 66.4298 20.3442C69.5634 25.0215 71.236 30.5203 71.236 36.1454C71.228 43.6894 68.2182 50.922 62.8673 56.2551C57.5164 61.5881 50.2619 64.5857 42.6966 64.5896ZM42.6966 9.51627C37.4157 9.51923 32.2542 11.0835 27.8647 14.0113C23.4752 16.9392 20.0548 21.0991 18.0359 25.9652C16.0171 30.8313 15.4904 36.1851 16.5224 41.3496C17.5545 46.5142 20.099 51.2577 23.8342 54.9803C27.5695 58.703 32.3277 61.2377 37.5074 62.2639C42.6871 63.2902 48.0556 62.762 52.9343 60.7461C57.813 58.7301 61.9827 55.317 64.9163 50.9382C67.8499 46.5594 69.4157 41.4115 69.4157 36.1454C69.4078 29.0828 66.5897 22.3119 61.5802 17.3192C56.5707 12.3266 49.7792 9.52022 42.6966 9.51627Z" fill="#2293BB"/>
<path d="M35.5731 70.3636C29.9311 70.3651 24.4155 68.6982 19.7237 65.5736C15.0319 62.449 11.3747 58.0071 9.21465 52.8097C7.05456 47.6123 6.48861 41.8929 7.58839 36.3748C8.68816 30.8567 11.4042 25.7877 15.3931 21.8089C19.3821 17.8302 24.4646 15.1204 29.998 14.0223C35.5314 12.9241 41.267 13.487 46.4796 15.6396C51.6922 17.7923 56.1475 21.4381 59.2822 26.1159C62.4168 30.7936 64.0899 36.2933 64.0899 41.9194C64.082 49.4596 61.0752 56.6887 55.7292 62.0211C50.3832 67.3535 43.1344 70.3538 35.5731 70.3636ZM35.5731 15.2977C30.293 15.2977 25.1314 16.8591 20.7412 19.7843C16.351 22.7095 12.9292 26.8673 10.9086 31.7317C8.88797 36.5962 8.35929 41.9489 9.38939 47.113C10.4195 52.2771 12.9621 57.0207 16.6957 60.7438C20.4293 64.4669 25.1862 67.0023 30.3648 68.0295C35.5434 69.0567 40.9112 68.5295 45.7894 66.5146C50.6676 64.4997 54.837 61.0875 57.7705 56.7096C60.7039 52.3317 62.2697 47.1847 62.2697 41.9194C62.2598 34.8619 59.4439 28.0964 54.4395 23.106C49.435 18.1156 42.6504 15.3076 35.5731 15.2977Z" fill="#40B080"/>
<path d="M25.0786 30.0502C25.6703 30.384 26.1597 30.872 26.4944 31.462C26.8407 32.0721 27.019 32.7628 27.0112 33.4638V36.7729C27.0124 36.8447 26.9986 36.9161 26.9709 36.9824C26.9431 37.0488 26.902 37.1087 26.85 37.1585C26.7979 37.2082 26.7362 37.2468 26.6686 37.2717C26.6009 37.2966 26.5289 37.3073 26.4569 37.3032C26.3111 37.3091 26.1687 37.2582 26.0599 37.1613C25.9604 37.0566 25.9066 36.917 25.9101 36.7729V35.9288C25.58 36.3761 25.1489 36.7394 24.6517 36.9895C24.1319 37.2518 23.5563 37.385 22.9738 37.3779C22.2997 37.3846 21.6364 37.2098 21.0537 36.872C20.4709 36.5341 19.9905 36.0457 19.6629 35.4582C19.3285 34.845 19.1534 34.1581 19.1534 33.4601C19.1534 32.7621 19.3285 32.0752 19.6629 31.462C19.9955 30.873 20.4823 30.385 21.0711 30.0502C21.68 29.7041 22.3704 29.5262 23.0711 29.5348C23.7747 29.5226 24.4684 29.7007 25.0786 30.0502ZM24.5393 36.0259C24.968 35.7738 25.3221 35.413 25.5655 34.9801C25.804 34.5181 25.9285 34.0059 25.9285 33.4862C25.9285 32.9665 25.804 32.4544 25.5655 31.9923C25.3769 31.6644 25.1252 31.3769 24.8248 31.1463C24.5244 30.9157 24.1812 30.7466 23.8151 30.6488C23.4489 30.5509 23.067 30.5262 22.6912 30.576C22.3154 30.6258 21.9532 30.7492 21.6254 30.9391C21.1892 31.1873 20.8312 31.5521 20.5917 31.9923C20.3484 32.4529 20.2212 32.9656 20.2212 33.4862C20.2212 34.0068 20.3484 34.5196 20.5917 34.9801C20.8336 35.4167 21.1912 35.7784 21.6254 36.0259C22.071 36.2731 22.5725 36.4029 23.0824 36.4029C23.5923 36.4029 24.0937 36.2731 24.5393 36.0259Z" fill="white"/>
<path d="M29.5056 37.1538C29.4064 37.046 29.3527 36.9042 29.3558 36.7579V30.1548C29.3527 30.0085 29.4064 29.8667 29.5056 29.7589C29.5576 29.7072 29.6196 29.6666 29.6879 29.6396C29.7561 29.6126 29.8292 29.5998 29.9026 29.602C29.9749 29.5995 30.047 29.6122 30.1141 29.6392C30.1812 29.6662 30.2418 29.707 30.2921 29.7589C30.3913 29.8667 30.445 30.0085 30.4419 30.1548V36.7579C30.445 36.9042 30.3913 37.046 30.2921 37.1538C30.2414 37.2047 30.1805 37.2443 30.1134 37.2701C30.0463 37.2958 29.9744 37.3071 29.9026 37.3032C29.8297 37.3063 29.757 37.2947 29.6887 37.2691C29.6205 37.2434 29.5582 37.2042 29.5056 37.1538Z" fill="white"/>
<path d="M42.8165 29.9158C43.2521 30.1853 43.6006 30.5743 43.8202 31.0362C44.0746 31.5597 44.2029 32.1352 44.1947 32.7169V36.7729C44.1983 36.917 44.1444 37.0566 44.0449 37.1613C43.9929 37.2097 43.9315 37.2473 43.8646 37.2717C43.7977 37.296 43.7266 37.3068 43.6554 37.3032C43.5096 37.3091 43.3672 37.2582 43.2584 37.1613C43.2077 37.1105 43.1682 37.0497 43.1425 36.9828C43.1167 36.9159 43.1051 36.8444 43.1086 36.7729V32.7169C43.1399 32.1433 42.9556 31.5786 42.5918 31.1333C42.4195 30.9366 42.2044 30.7818 41.9629 30.6808C41.7214 30.5798 41.4599 30.5353 41.1985 30.5507C40.9303 30.5401 40.663 30.5873 40.4148 30.6891C40.1666 30.791 39.9433 30.945 39.7603 31.1408C39.3832 31.5652 39.1894 32.1208 39.221 32.687V36.7729C39.2245 36.917 39.1706 37.0566 39.0712 37.1613C39.0196 37.2105 38.9583 37.2485 38.8913 37.2729C38.8243 37.2973 38.7529 37.3076 38.6816 37.3032C38.6105 37.3068 38.5393 37.296 38.4724 37.2717C38.4055 37.2473 38.3442 37.2097 38.2921 37.1613C38.2405 37.1108 38.1998 37.0503 38.1728 36.9835C38.1457 36.9166 38.1328 36.8449 38.1348 36.7729V32.7169C38.1662 32.1433 37.9819 31.5786 37.618 31.1333C37.4505 30.9427 37.2427 30.7915 37.0095 30.6907C36.7764 30.59 36.5236 30.5421 36.2697 30.5507C36.0029 30.5406 35.737 30.5865 35.4892 30.6856C35.2414 30.7847 35.0173 30.9347 34.8315 31.1258C34.6391 31.3228 34.4894 31.557 34.3915 31.8139C34.2935 32.0709 34.2495 32.3452 34.2622 32.6198V36.7878C34.2678 36.8589 34.2579 36.9303 34.2332 36.9972C34.2084 37.0641 34.1695 37.1249 34.1189 37.1753C34.0683 37.2257 34.0074 37.2646 33.9403 37.2892C33.8733 37.3139 33.8016 37.3238 33.7303 37.3181C33.658 37.3219 33.5857 37.3112 33.5176 37.2869C33.4494 37.2625 33.3868 37.2249 33.3333 37.1762C33.2817 37.1258 33.241 37.0652 33.214 36.9984C33.1869 36.9316 33.174 36.8599 33.176 36.7878V30.1548C33.1738 30.0816 33.1867 30.0087 33.2137 29.9407C33.2408 29.8726 33.2815 29.8107 33.3333 29.7589C33.385 29.7068 33.447 29.666 33.5153 29.639C33.5837 29.612 33.6569 29.5994 33.7303 29.602C33.8026 29.6 33.8745 29.6129 33.9415 29.6399C34.0086 29.6669 34.0693 29.7074 34.1198 29.7589C34.217 29.8674 34.2681 30.0094 34.2622 30.1548V30.461C34.5223 30.1638 34.8444 29.9267 35.206 29.7664C35.5753 29.5997 35.9767 29.5155 36.382 29.5199C36.8715 29.5145 37.354 29.6355 37.7828 29.8709C38.1929 30.108 38.5338 30.4479 38.7715 30.8569C39.0447 30.4416 39.4216 30.1044 39.8652 29.8784C40.3269 29.6374 40.8422 29.5167 41.3633 29.5273C41.8743 29.5207 42.3773 29.6551 42.8165 29.9158Z" fill="white"/>
<path d="M47.5955 37.0791C47.0997 36.9129 46.6522 36.6282 46.2921 36.25C46.2112 36.1618 46.1635 36.0482 46.1573 35.9288C46.1596 35.8454 46.1811 35.7637 46.22 35.6898C46.259 35.616 46.3144 35.5521 46.382 35.503C46.4827 35.4243 46.6061 35.3798 46.7341 35.376C46.8135 35.3768 46.8917 35.3954 46.963 35.4303C47.0343 35.4652 47.0968 35.5156 47.1461 35.5777C47.3881 35.8502 47.6945 36.0581 48.0374 36.1828C48.4341 36.3235 48.8524 36.3943 49.2734 36.3919C49.7951 36.4297 50.3163 36.3127 50.7715 36.0558C50.9243 35.962 51.051 35.8315 51.14 35.6761C51.229 35.5208 51.2774 35.3457 51.2809 35.1669C51.2699 35.0008 51.2176 34.84 51.1287 34.6992C51.0398 34.5583 50.917 34.4418 50.7715 34.3602C50.291 34.0836 49.7577 33.9106 49.206 33.8522C48.4607 33.7724 47.7486 33.5023 47.1386 33.0679C46.9261 32.9134 46.753 32.7111 46.6332 32.4776C46.5135 32.244 46.4506 31.9857 46.4494 31.7234C46.4383 31.4124 46.5058 31.1036 46.6459 30.8256C46.786 30.5475 46.9941 30.3091 47.2509 30.1324C47.8399 29.7423 48.5368 29.5464 49.2434 29.5722C49.8016 29.5591 50.356 29.6661 50.8689 29.8859C51.3081 30.0834 51.6916 30.3862 51.985 30.7673C52.051 30.865 52.0898 30.9784 52.0974 31.096C52.0979 31.1728 52.0772 31.2483 52.0376 31.3142C51.998 31.38 51.9409 31.4338 51.8726 31.4694C51.7937 31.5238 51.6987 31.5502 51.603 31.5441C51.5107 31.5445 51.4193 31.5261 51.3343 31.4902C51.2493 31.4542 51.1725 31.4014 51.1086 31.335C50.8735 31.0705 50.5818 30.862 50.2551 30.725C49.9284 30.588 49.575 30.5258 49.221 30.5432C48.7844 30.5215 48.3512 30.6308 47.9775 30.8569C47.8396 30.941 47.7256 31.059 47.6466 31.1996C47.5675 31.3402 47.526 31.4987 47.526 31.6599C47.526 31.8211 47.5675 31.9796 47.6466 32.1202C47.7256 32.2608 47.8396 32.3788 47.9775 32.4629C48.4559 32.7281 48.9835 32.8933 49.5281 32.9484C50.3045 33.0187 51.0486 33.2918 51.6854 33.7402C51.8915 33.9127 52.0563 34.1291 52.1678 34.3733C52.2792 34.6176 52.3345 34.8836 52.3296 35.1519C52.334 35.5694 52.1996 35.9765 51.9476 36.3097C51.6578 36.6498 51.2831 36.9075 50.8614 37.0567C50.3631 37.2522 49.8313 37.3487 49.2959 37.3405C48.7178 37.3587 48.1413 37.2701 47.5955 37.0791Z" fill="white"/>
<path d="M83.6555 19.8393L86.2397 13.5424H86.8914L89.4682 19.8393H88.5394L86.4195 14.5134H86.7416L84.5993 19.8393H83.6555ZM84.8839 18.4126V17.6656H88.2023V18.4126H84.8839Z" fill="white"/>
<path d="M93.7827 19.9289C93.3428 19.9419 92.9062 19.8497 92.5093 19.66C92.1446 19.465 91.8255 19.1951 91.573 18.8682L92.1498 18.2856C92.3343 18.544 92.5717 18.7604 92.8464 18.9205C93.143 19.0704 93.473 19.1424 93.8052 19.1296C94.126 19.1465 94.4438 19.0601 94.7116 18.8832C94.8237 18.8117 94.9147 18.7118 94.9753 18.5936C95.0359 18.4755 95.0638 18.3434 95.0561 18.2109C95.0672 18.0085 95.0091 17.8084 94.8914 17.6432C94.776 17.4892 94.6241 17.366 94.4494 17.2847C94.2537 17.1853 94.0509 17.1004 93.8427 17.0307C93.6229 16.956 93.4057 16.8738 93.191 16.7842C92.9782 16.7002 92.7769 16.5897 92.5917 16.4555C92.4049 16.3249 92.2532 16.1504 92.1498 15.9476C92.0284 15.699 91.9693 15.4247 91.9775 15.1484C91.968 14.8248 92.0597 14.5064 92.2397 14.2371C92.4272 13.9743 92.6875 13.7719 92.9887 13.6544C93.3075 13.516 93.6523 13.4472 94 13.4528C94.3833 13.4434 94.7634 13.5254 95.1086 13.6918C95.4217 13.8348 95.6964 14.0499 95.9101 14.3192L95.3258 14.9019C95.1581 14.7022 94.955 14.5351 94.7266 14.4089C94.4929 14.2974 94.2365 14.2412 93.9775 14.2445C93.6904 14.2276 93.4058 14.3065 93.1685 14.4686C93.071 14.5396 92.9921 14.6331 92.9387 14.741C92.8852 14.849 92.8587 14.9682 92.8614 15.0886C92.8519 15.2759 92.9134 15.4598 93.0337 15.604C93.1566 15.7429 93.3071 15.8548 93.4756 15.9327C93.6701 16.0347 93.8731 16.1197 94.0824 16.1866C94.2996 16.2613 94.5243 16.3435 94.7415 16.4331C94.9549 16.5223 95.1562 16.6377 95.3408 16.7767C95.5268 16.9236 95.6777 17.1099 95.7827 17.322C95.9029 17.5814 95.9594 17.8656 95.9475 18.1511C95.9602 18.3988 95.9146 18.6459 95.8145 18.8729C95.7143 19.0998 95.5624 19.3003 95.3708 19.4583C94.9146 19.799 94.3514 19.9659 93.7827 19.9289Z" fill="white"/>
<path d="M100.487 19.9289C100.047 19.941 99.6106 19.8489 99.2135 19.66C98.8488 19.465 98.5297 19.1951 98.2772 18.8682L98.8614 18.2856C99.0411 18.5456 99.2765 18.7624 99.5506 18.9205C99.85 19.0698 100.182 19.1417 100.517 19.1296C100.838 19.1465 101.155 19.0601 101.423 18.8831C101.531 18.8077 101.618 18.7068 101.677 18.5894C101.736 18.4721 101.764 18.342 101.76 18.2109C101.771 18.0085 101.713 17.8084 101.596 17.6432C101.482 17.4876 101.33 17.364 101.154 17.2847C100.961 17.1839 100.761 17.099 100.554 17.0307C100.337 16.956 100.112 16.8738 99.8951 16.7842C99.6823 16.7002 99.481 16.5897 99.2959 16.4555C99.1118 16.3219 98.9606 16.1482 98.8539 15.9476C98.7352 15.6983 98.6786 15.4241 98.6891 15.1483C98.6775 14.8256 98.7665 14.5072 98.9438 14.2371C99.1213 13.9799 99.368 13.778 99.6554 13.6544C99.9912 13.5093 100.353 13.4344 100.719 13.4344C101.085 13.4344 101.447 13.5093 101.783 13.6544C102.094 13.8014 102.367 14.0158 102.584 14.2819L102 14.8645C101.831 14.6629 101.625 14.4955 101.393 14.3715C101.16 14.2601 100.903 14.2038 100.644 14.2072C100.357 14.1925 100.073 14.2711 99.8352 14.4313C99.7391 14.5031 99.6617 14.5969 99.6095 14.7048C99.5574 14.8127 99.532 14.9315 99.5356 15.0512C99.524 15.2375 99.5828 15.4214 99.7004 15.5666C99.8233 15.7055 99.9738 15.8175 100.142 15.8953C100.337 15.996 100.54 16.0809 100.749 16.1493C100.974 16.224 101.191 16.3061 101.408 16.3958C101.622 16.4849 101.823 16.6004 102.007 16.7394C102.196 16.8836 102.348 17.0705 102.449 17.2847C102.578 17.5547 102.637 17.8525 102.622 18.1511C102.633 18.3985 102.586 18.6451 102.486 18.8718C102.386 19.0985 102.235 19.2992 102.045 19.4583C101.596 19.7905 101.045 19.9568 100.487 19.9289Z" fill="white"/>
<path d="M108.502 19.9289C108.082 19.9314 107.667 19.8486 107.28 19.6855C106.894 19.5224 106.545 19.2824 106.255 18.9803C105.963 18.681 105.731 18.3285 105.573 17.942C105.413 17.5403 105.332 17.1118 105.333 16.6796C105.33 16.2473 105.412 15.8185 105.573 15.4173C105.73 15.0339 105.959 14.684 106.247 14.3864C106.534 14.0891 106.878 13.8527 107.258 13.6918C108.062 13.3732 108.957 13.3732 109.76 13.6918C110.141 13.8527 110.485 14.0891 110.772 14.3864C111.066 14.6826 111.3 15.0326 111.461 15.4173C111.621 15.8216 111.702 16.2525 111.7 16.6871C111.711 17.5454 111.379 18.3727 110.779 18.9877C110.49 19.2821 110.147 19.518 109.768 19.6824C109.368 19.8515 108.936 19.9354 108.502 19.9289ZM108.502 19.1147C108.912 19.124 109.317 19.0175 109.67 18.8074C110.022 18.5972 110.308 18.2921 110.494 17.927C110.7 17.5412 110.803 17.1091 110.794 16.6721C110.8 16.3428 110.742 16.0154 110.622 15.7086C110.515 15.4297 110.351 15.1755 110.142 14.9616C109.932 14.743 109.676 14.5723 109.393 14.4611C109.099 14.3389 108.783 14.2779 108.464 14.2819C108.056 14.2683 107.651 14.3697 107.298 14.5745C106.944 14.7792 106.655 15.079 106.464 15.4397C106.264 15.8274 106.164 16.2586 106.172 16.6946C106.168 17.028 106.224 17.3594 106.337 17.6731C106.444 17.9502 106.605 18.2039 106.809 18.42C107.025 18.639 107.283 18.8125 107.567 18.9306C107.851 19.0486 108.156 19.1087 108.464 19.1072L108.502 19.1147Z" fill="white"/>
<path d="M117.603 19.9289C117.184 19.9324 116.769 19.8507 116.382 19.6889C115.996 19.5271 115.647 19.2885 115.356 18.9877C115.064 18.6902 114.834 18.3371 114.682 17.9495C114.523 17.5475 114.445 17.1189 114.449 16.6871C114.445 16.253 114.524 15.822 114.682 15.4173C114.836 15.0328 115.065 14.6825 115.356 14.3865C115.642 14.0938 115.983 13.8603 116.36 13.6992C116.753 13.5328 117.176 13.4465 117.603 13.4453C118.053 13.4354 118.5 13.522 118.914 13.6992C119.286 13.8642 119.624 14.0973 119.91 14.3865L119.318 14.9766C119.112 14.7462 118.856 14.565 118.569 14.4462C118.263 14.322 117.934 14.261 117.603 14.2669C117.287 14.2629 116.973 14.3239 116.682 14.4462C116.398 14.5554 116.142 14.7264 115.933 14.9467C115.724 15.1613 115.561 15.4153 115.453 15.6936C115.34 16.0047 115.284 16.3337 115.288 16.6647C115.283 16.9957 115.339 17.3248 115.453 17.6357C115.563 17.9134 115.726 18.1671 115.933 18.3827C116.144 18.6006 116.399 18.7712 116.682 18.8832C116.973 19.0054 117.287 19.0665 117.603 19.0624C117.955 19.0687 118.304 19.0025 118.629 18.8682C118.915 18.7451 119.171 18.5616 119.378 18.3304L119.97 18.913C119.683 19.2168 119.336 19.4584 118.951 19.6226C118.529 19.8193 118.069 19.9237 117.603 19.9289Z" fill="white"/>
<path d="M122.846 19.8393V13.5424H123.7V19.8393H122.846Z" fill="white"/>
<path d="M126.509 19.8393L129.094 13.5424H129.715L132.292 19.8393H131.363L129.243 14.5134H129.588L127.453 19.8393H126.509ZM127.738 18.4126V17.6656H131.086V18.4126H127.738Z" fill="white"/>
<path d="M133.738 14.3192V13.5723H138.876V14.3192H133.738ZM135.888 19.8393V13.7217H136.742V19.8393H135.888Z" fill="white"/>
<path d="M141.715 19.8393V13.5424H142.577V19.8393H141.715Z" fill="white"/>
<path d="M148.764 19.9289C148.344 19.9314 147.929 19.8486 147.542 19.6855C147.156 19.5224 146.807 19.2824 146.517 18.9803C146.225 18.681 145.993 18.3285 145.835 17.942C145.675 17.5403 145.594 17.1118 145.595 16.6796C145.592 16.2473 145.674 15.8185 145.835 15.4173C145.992 15.0339 146.221 14.684 146.509 14.3864C146.797 14.0906 147.141 13.8545 147.521 13.6918C148.324 13.3732 149.219 13.3732 150.022 13.6918C150.405 13.8526 150.752 14.0889 151.041 14.3864C151.333 14.683 151.564 15.033 151.723 15.4173C151.889 15.82 151.973 16.2517 151.97 16.6871C151.976 17.3199 151.795 17.9406 151.45 18.4719C151.106 19.0031 150.612 19.4215 150.03 19.6749C149.631 19.8476 149.199 19.9342 148.764 19.9289ZM148.764 19.1147C149.185 19.1242 149.6 19.0155 149.963 18.801C150.301 18.5856 150.575 18.2838 150.757 17.927C150.932 17.5827 151.035 17.2057 151.056 16.82C151.078 16.4342 151.02 16.0481 150.884 15.6862C150.771 15.4083 150.606 15.1546 150.397 14.9392C150.188 14.7189 149.932 14.5479 149.648 14.4387C149.354 14.3156 149.038 14.2546 148.719 14.2595C148.304 14.2505 147.894 14.3565 147.536 14.5657C147.195 14.7729 146.916 15.0668 146.727 15.4173C146.521 15.8031 146.418 16.2352 146.427 16.6721C146.425 17.006 146.483 17.3375 146.599 17.6507C146.707 17.9278 146.867 18.1815 147.071 18.3976C147.281 18.6174 147.537 18.7883 147.82 18.8981C148.108 19.0347 148.422 19.1086 148.742 19.1147H148.764Z" fill="white"/>
<path d="M154.929 19.8393V13.5424H155.528L155.79 14.5284V19.8393H154.929ZM159.296 19.8393L155.423 14.6778L155.528 13.5424L159.416 18.6964L159.296 19.8393ZM159.296 19.8393L159.041 18.9056V13.5424H159.903V19.8393H159.296Z" fill="white"/>
<path d="M169.798 19.9289C169.378 19.9314 168.963 19.8486 168.576 19.6855C168.19 19.5224 167.841 19.2824 167.551 18.9803C167.259 18.681 167.027 18.3285 166.869 17.942C166.709 17.5403 166.628 17.1118 166.629 16.6796C166.626 16.2473 166.708 15.8185 166.869 15.4173C167.026 15.0339 167.254 14.684 167.543 14.3864C167.828 14.0878 168.173 13.8512 168.554 13.6918C169.358 13.3732 170.253 13.3732 171.056 13.6918C171.824 14.0262 172.431 14.6449 172.749 15.4173C172.915 15.82 172.999 16.2517 172.996 16.6871C173.005 17.3195 172.826 17.9404 172.482 18.472C172.139 19.0035 171.645 19.422 171.064 19.6749C170.664 19.8466 170.233 19.9331 169.798 19.9289ZM169.798 19.1147C170.208 19.124 170.613 19.0175 170.966 18.8074C171.318 18.5972 171.604 18.2921 171.79 17.927C171.996 17.5412 172.099 17.1091 172.09 16.6721C172.096 16.3428 172.038 16.0154 171.918 15.7086C171.81 15.4297 171.647 15.1755 171.438 14.9616C171.228 14.743 170.972 14.5723 170.689 14.4611C170.395 14.3389 170.079 14.2779 169.76 14.2819C169.358 14.2726 168.961 14.3744 168.614 14.5761C168.266 14.7778 167.981 15.0715 167.79 15.4247C167.59 15.8125 167.49 16.2437 167.498 16.6796C167.494 17.013 167.549 17.3445 167.663 17.6581C167.77 17.9352 167.931 18.1889 168.135 18.4051C168.351 18.624 168.609 18.7976 168.893 18.9156C169.177 19.0337 169.482 19.0937 169.79 19.0923L169.798 19.1147Z" fill="white"/>
<path d="M175.97 19.8393V13.5424H176.824V19.8393H175.97ZM176.554 14.3192V13.5723H180V14.3192H176.554ZM176.554 17.068V16.3211H179.843V17.068H176.554Z" fill="white"/>
<path d="M84.1199 30.7673V24.4704H84.9738V30.7673H84.1199Z" fill="white"/>
<path d="M89.8876 30.8569C89.4453 30.87 89.0062 30.7778 88.6067 30.588C88.2418 30.3934 87.9226 30.1235 87.6704 29.7962L88.2547 29.2136C88.4338 29.4741 88.6693 29.6911 88.9438 29.8485C89.2433 29.9978 89.5755 30.0697 89.9101 30.0577C90.2301 30.0768 90.5478 29.993 90.8165 29.8186C90.925 29.7436 91.0133 29.6429 91.0734 29.5256C91.1335 29.4084 91.1636 29.2781 91.161 29.1464C91.1682 28.9422 91.1105 28.7409 90.9963 28.5712C90.8766 28.4214 90.7258 28.2991 90.5543 28.2127C90.3572 28.1164 90.1546 28.0316 89.9476 27.9587L89.2959 27.7122C89.081 27.6308 88.8772 27.5229 88.6891 27.391C88.5069 27.2544 88.3583 27.0782 88.2547 26.8756C88.1291 26.6285 88.0697 26.3532 88.0824 26.0764C88.0739 25.753 88.1655 25.4348 88.3446 25.1651C88.5212 24.9101 88.7648 24.7085 89.0487 24.5825C89.3701 24.4441 89.7173 24.3753 90.0674 24.3808C90.4503 24.3758 90.8294 24.4576 91.176 24.6198C91.4868 24.77 91.7605 24.9868 91.9775 25.2547L91.3933 25.8299C91.2266 25.6283 91.02 25.463 90.7865 25.3444C90.5546 25.2279 90.297 25.1714 90.0374 25.18C89.7506 25.1654 89.4667 25.244 89.2285 25.4041C89.1323 25.4759 89.0549 25.5697 89.0028 25.6776C88.9506 25.7855 88.9253 25.9044 88.9288 26.0241C88.9194 26.2114 88.9809 26.3953 89.1011 26.5395C89.2245 26.6779 89.3748 26.7898 89.5431 26.8682C89.7372 26.9632 89.9374 27.0456 90.1423 27.1147C90.367 27.1894 90.5843 27.279 90.8015 27.3686C91.0186 27.4549 91.2228 27.5705 91.4082 27.7122C91.594 27.8563 91.7451 28.0401 91.8502 28.25C91.9687 28.51 92.0251 28.7938 92.015 29.0792C92.027 29.3267 91.9812 29.5737 91.8811 29.8006C91.781 30.0274 91.6294 30.228 91.4382 30.3863C90.9915 30.7174 90.4435 30.8837 89.8876 30.8569Z" fill="white"/>
<path d="M95.0262 30.7673V24.4704H95.8802V30.7673H95.0262ZM95.6105 30.7673V30.0203H98.9963V30.7673H95.6105Z" fill="white"/>
<path d="M101.176 30.7673L103.76 24.4704H104.382L106.959 30.7673H106.03L103.91 25.4415H104.225L102.09 30.7673H101.176ZM102.404 29.3406V28.5936H105.73V29.3406H102.404Z" fill="white"/>
<path d="M109.723 30.7673V24.4704H110.322L113.004 28.8551H112.592L115.266 24.4704H115.865V30.7673H115.011V25.9718L115.213 26.0241L113.109 29.4825H112.509L110.397 26.0241L110.584 25.9718V30.7673H109.723Z" fill="white"/>
<path d="M119.176 30.7673V24.4704H120.03V30.7673H119.176Z" fill="white"/>
<path d="M126.21 30.8569C125.778 30.8612 125.35 30.7773 124.951 30.6104C124.567 30.4519 124.22 30.2153 123.933 29.9157C123.647 29.6174 123.421 29.2675 123.266 28.8849C122.946 28.0709 122.946 27.1667 123.266 26.3527C123.577 25.5858 124.18 24.9733 124.944 24.6497C125.342 24.4822 125.77 24.3983 126.202 24.4032C126.652 24.3919 127.1 24.4786 127.513 24.6571C127.886 24.8246 128.226 25.0573 128.517 25.3444L127.925 25.9345C127.716 25.7088 127.46 25.5305 127.176 25.4116C126.864 25.2786 126.527 25.2124 126.187 25.2174C125.871 25.2148 125.558 25.2758 125.266 25.3966C124.985 25.5113 124.73 25.6815 124.517 25.8971C124.312 26.113 124.152 26.3668 124.045 26.6441C123.925 26.9535 123.866 27.2833 123.873 27.6151C123.867 27.9468 123.925 28.2766 124.045 28.5862C124.151 28.8639 124.311 29.1178 124.517 29.3331C124.727 29.5518 124.983 29.7225 125.266 29.8336C125.558 29.9545 125.871 30.0154 126.187 30.0129C126.539 30.0206 126.889 29.9544 127.213 29.8186C127.497 29.6952 127.752 29.5146 127.963 29.2883L128.554 29.8709C128.263 30.1709 127.914 30.4097 127.528 30.5731C127.113 30.7588 126.664 30.8555 126.21 30.8569Z" fill="white"/>
<path d="M84.03 41.7028V35.3237H84.8989L87.4906 39.4619H86.9963L89.5805 35.3237H90.4494V41.7028H89.221V37.4376L89.4607 37.5049L87.6405 40.3956H86.8165L85.0187 37.5049L85.2659 37.4376V41.7028H84.03Z" fill="white"/>
<path d="M93.5805 41.7028V35.3237H94.8165V41.7028H93.5805ZM94.4944 36.4068V35.3237H97.985V36.4068H94.4944ZM94.4944 38.9689V37.9157H97.7153V38.9689H94.4944ZM94.4944 41.7028V40.6122H98.0299V41.7028H94.4944Z" fill="white"/>
<path d="M100.876 41.7028V35.3237H101.745L102.12 36.5562V41.7028H100.876ZM105.303 41.7028L101.506 36.8027L101.745 35.3088L105.536 40.2089L105.303 41.7028ZM105.303 41.7028L104.944 40.5002V35.3237H106.195V41.7028H105.303Z" fill="white"/>
<path d="M108.861 36.4218V35.3237H114.18V36.4218H108.861ZM110.899 41.7028V35.4582H112.142V41.7028H110.899Z" fill="white"/>
<path d="M115.558 41.7028L118.135 35.3237H119.139L121.708 41.7028H120.39L118.404 36.4741H118.861L116.846 41.7028H115.558ZM116.921 40.5076V39.4768H120.36V40.5076H116.921Z" fill="white"/>
<path d="M124.285 41.7028V35.3237H125.521V41.7028H124.285ZM125.191 41.7028V40.6048H128.449V41.7028H125.191Z" fill="white"/>
<path d="M130.757 39.925V38.8419H133.903V39.925H130.757Z" fill="white"/>
<path d="M136.906 41.7028V35.3237H138.142V41.7028H136.906ZM137.655 38.954V37.8634H141.236V38.954H137.655ZM140.884 41.7028V35.3237H142.127V41.7028H140.884Z" fill="white"/>
<path d="M145.318 41.7028V35.3237H146.554V41.7028H145.318ZM146.225 36.4068V35.3237H149.723V36.4068H146.225ZM146.225 38.9689V37.9157H149.446V38.9689H146.225ZM146.225 41.7028V40.6122H149.768V41.7028H146.225Z" fill="white"/>
<path d="M152.112 41.7028L154.682 35.3237H155.693L158.262 41.7028H156.944L154.959 36.4741H155.416L153.401 41.7028H152.112ZM153.476 40.5076V39.4768H156.914V40.5076H153.476Z" fill="white"/>
<path d="M160.839 41.7028V35.3237H162.075V41.7028H160.839ZM161.745 41.7028V40.6048H165.004V41.7028H161.745Z" fill="white"/>
<path d="M166.539 36.4218V35.3237H171.865V36.4218H166.539ZM168.577 41.7028V35.4582H169.828V41.7028H168.577Z" fill="white"/>
<path d="M174.532 41.7028V35.3237H175.768V41.7028H174.532ZM175.318 38.954V37.8634H178.891V38.954H175.318ZM178.547 41.7028V35.3237H179.775V41.7028H178.547Z" fill="white"/>
<path d="M85.8726 52.7204C85.4328 52.7326 84.9964 52.6404 84.5992 52.4515C84.2345 52.2565 83.9154 51.9867 83.6629 51.6598L84.2472 51.0771C84.4225 51.3408 84.6588 51.5586 84.9363 51.7121C85.2358 51.8613 85.568 51.9332 85.9026 51.9212C86.2234 51.9381 86.5412 51.8516 86.809 51.6747C86.9186 51.603 87.0074 51.5039 87.0665 51.3872C87.1257 51.2705 87.1531 51.1404 87.146 51.0099C87.1582 50.8051 87.1001 50.6023 86.9813 50.4347C86.8634 50.2831 86.7122 50.1605 86.5393 50.0762C86.3468 49.9755 86.1464 49.8905 85.9401 49.8222C85.7228 49.7475 85.4981 49.6654 85.2809 49.5757C85.0681 49.4917 84.8668 49.3813 84.6816 49.2471C84.4975 49.1135 84.3464 48.9398 84.2397 48.7391C84.1209 48.4899 84.0644 48.2157 84.0749 47.9399C84.0632 47.6172 84.1522 47.2988 84.3296 47.0286C84.5171 46.7659 84.7774 46.5634 85.0786 46.446C85.4144 46.3008 85.7764 46.226 86.1423 46.226C86.5082 46.226 86.8702 46.3008 87.206 46.446C87.5151 46.5954 87.7885 46.8094 88.0075 47.0734L87.4232 47.6561C87.2565 47.4544 87.05 47.2892 86.8165 47.1705C86.584 47.0555 86.3268 46.9991 86.0674 47.0062C85.7817 46.993 85.499 47.0687 85.2584 47.2228C85.1612 47.2954 85.0832 47.3904 85.031 47.4997C84.9788 47.609 84.954 47.7293 84.9588 47.8503C84.9491 48.034 85.0078 48.2149 85.1236 48.3582C85.2486 48.4967 85.3985 48.6108 85.5655 48.6943C85.7623 48.7894 85.9649 48.8717 86.1723 48.9408C86.397 49.0155 86.6142 49.0977 86.8314 49.1873C87.045 49.2791 87.2463 49.397 87.4307 49.5384C87.6202 49.6786 87.7721 49.8633 87.8726 50.0762C87.9948 50.3352 88.0538 50.6193 88.0449 50.9053C88.057 51.1529 88.0112 51.3999 87.9111 51.6267C87.811 51.8536 87.6593 52.0541 87.4681 52.2125C87.0142 52.5664 86.4482 52.7466 85.8726 52.7204Z" fill="white"/>
<path d="M90.9888 52.6308V46.3115H91.8427V52.6084L90.9888 52.6308ZM91.5581 50.1808V49.4338H93.2809C93.4993 49.4398 93.7156 49.391 93.9101 49.2919C94.0942 49.2004 94.2477 49.0577 94.3521 48.8811C94.455 48.6892 94.5089 48.475 94.5089 48.2574C94.5089 48.0398 94.455 47.8255 94.3521 47.6336C94.2477 47.457 94.0942 47.3143 93.9101 47.2228C93.7156 47.1237 93.4993 47.0749 93.2809 47.0809H91.5581V46.3115H93.3333C93.694 46.3043 94.0511 46.3837 94.3745 46.5431C94.6811 46.6947 94.9402 46.9272 95.1236 47.2153C95.2637 47.439 95.3556 47.6893 95.3937 47.9502C95.4317 48.2112 95.415 48.4772 95.3446 48.7314C95.2742 48.9856 95.1516 49.2224 94.9846 49.4269C94.8176 49.6314 94.6099 49.7991 94.3745 49.9193C94.0518 50.0813 93.6946 50.1633 93.3333 50.1584L91.5581 50.1808Z" fill="white"/>
<path d="M98.2472 52.6308V46.3115H99.1011V52.6084L98.2472 52.6308ZM98.8315 47.1108V46.3115H102.404V47.0585L98.8315 47.1108ZM98.8315 49.7849V49.0379H102.15V49.7849H98.8315ZM98.8315 52.6308V51.8838H102.457V52.6308H98.8315Z" fill="white"/>
<path d="M108.165 52.7205C107.733 52.7247 107.305 52.6408 106.906 52.474C106.523 52.3126 106.177 52.076 105.887 51.7783C105.598 51.4805 105.371 51.1278 105.221 50.741C105.06 50.3395 104.979 49.9109 104.981 49.4786C104.98 49.044 105.061 48.6131 105.221 48.2088C105.376 47.8262 105.602 47.4764 105.888 47.178C106.18 46.8803 106.53 46.6442 106.916 46.4839C107.302 46.3235 107.717 46.242 108.135 46.2443C108.585 46.233 109.032 46.3197 109.446 46.4983C109.82 46.663 110.161 46.8961 110.449 47.1855L109.858 47.7756C109.648 47.5499 109.393 47.3716 109.109 47.2527C108.796 47.1197 108.459 47.0535 108.12 47.0585C107.804 47.0559 107.49 47.1169 107.198 47.2378C106.917 47.3524 106.663 47.5227 106.449 47.7382C106.244 47.9535 106.084 48.2075 105.978 48.4852C105.858 48.7948 105.799 49.1245 105.805 49.4562C105.799 49.788 105.857 50.1178 105.978 50.4273C106.076 50.7125 106.233 50.9737 106.44 51.1939C106.646 51.414 106.897 51.5881 107.176 51.7046C107.468 51.8255 107.781 51.8864 108.097 51.8839C108.449 51.8916 108.799 51.8254 109.124 51.6896C109.407 51.5662 109.662 51.3856 109.873 51.1593L110.464 51.7345C110.173 52.0369 109.824 52.2781 109.438 52.4441C109.037 52.6212 108.604 52.7152 108.165 52.7205Z" fill="white"/>
<path d="M113.378 52.6308V46.3115H114.24V52.6084L113.378 52.6308Z" fill="white"/>
<path d="M117.086 52.6308L119.67 46.3115H120.292L122.846 52.6308H121.918L119.85 47.305H120.172L118.03 52.6308H117.086ZM118.352 51.2041V50.4572H121.67V51.2041H118.352Z" fill="white"/>
<path d="M125.633 52.6308V46.3115H126.487V52.6084L125.633 52.6308ZM126.21 52.6308V51.8838H129.588V52.6308H126.21Z" fill="white"/>
<path d="M132.472 52.6308V46.3115H133.333V52.6084L132.472 52.6308Z" fill="white"/>
<path d="M138.27 52.7204C137.83 52.7326 137.393 52.6404 136.996 52.4515C136.632 52.2565 136.312 51.9867 136.06 51.6598L136.644 51.0771C136.82 51.3408 137.056 51.5586 137.333 51.7121C137.633 51.8613 137.965 51.9332 138.3 51.9212C138.62 51.9381 138.938 51.8517 139.206 51.6747C139.316 51.603 139.404 51.5039 139.464 51.3872C139.523 51.2705 139.55 51.1404 139.543 51.0099C139.555 50.8051 139.497 50.6023 139.378 50.4347C139.26 50.2831 139.109 50.1605 138.936 50.0762C138.744 49.9755 138.543 49.8905 138.337 49.8222C138.112 49.7475 137.895 49.6654 137.678 49.5757C137.465 49.4917 137.264 49.3813 137.079 49.2471C136.895 49.1135 136.743 48.9398 136.637 48.7391C136.518 48.4899 136.461 48.2157 136.472 47.9399C136.46 47.6172 136.549 47.2988 136.727 47.0286C136.904 46.7715 137.151 46.5695 137.438 46.446C137.757 46.3075 138.102 46.2387 138.449 46.2443C138.835 46.2358 139.217 46.3176 139.566 46.4833C139.874 46.631 140.145 46.8454 140.36 47.1108L139.783 47.6934C139.616 47.4918 139.41 47.3265 139.176 47.2079C138.944 47.0929 138.686 47.0365 138.427 47.0435C138.141 47.0293 137.858 47.1051 137.618 47.2602C137.521 47.3327 137.443 47.4277 137.391 47.537C137.338 47.6463 137.314 47.7666 137.318 47.8876C137.309 48.0714 137.367 48.2523 137.483 48.3955C137.608 48.5341 137.758 48.6481 137.925 48.7317C138.121 48.828 138.324 48.9104 138.532 48.9782C138.749 49.0529 138.974 49.135 139.191 49.2247C139.405 49.3164 139.606 49.4344 139.79 49.5757C139.978 49.7179 140.129 49.9021 140.232 50.1136C140.354 50.3725 140.413 50.6566 140.405 50.9427C140.417 51.191 140.37 51.4388 140.269 51.6658C140.167 51.8929 140.014 52.093 139.82 52.2499C139.374 52.5821 138.826 52.7485 138.27 52.7204Z" fill="white"/>
<path d="M142.622 47.1108V46.3115H147.76V47.0585L142.622 47.1108ZM144.764 52.6308V46.5132H145.618V52.6308H144.764Z" fill="white"/>
</svg>
